<?xml version="1.0" encoding="utf-8" standalone="no"?>
<!DOCTYPE svg PUBLIC "-//W3C//DTD SVG 1.1//EN"
  "http://www.w3.org/Graphics/SVG/1.1/DTD/svg11.dtd">
<svg xmlns:xlink="http://www.w3.org/1999/xlink" width="517.054321pt" height="175.791326pt" viewBox="0 0 517.054321 175.791326" xmlns="http://www.w3.org/2000/svg" version="1.1">
 <metadata>
  <rdf:RDF xmlns:dc="http://purl.org/dc/elements/1.1/" xmlns:cc="http://creativecommons.org/ns#" xmlns:rdf="http://www.w3.org/1999/02/22-rdf-syntax-ns#">
   <cc:Work>
    <dc:type rdf:resource="http://purl.org/dc/dcmitype/StillImage"/>
    <dc:date>2026-06-24T12:19:11.165348</dc:date>
    <dc:format>image/svg+xml</dc:format>
    <dc:creator>
     <cc:Agent>
      <dc:title>Matplotlib v3.10.9, https://matplotlib.org/</dc:title>
     </cc:Agent>
    </dc:creator>
   </cc:Work>
  </rdf:RDF>
 </metadata>
 <defs>
  <style type="text/css">*{stroke-linejoin: round; stroke-linecap: butt}</style>
 </defs>
 <g id="figure_1">
  <g id="patch_1">
   <path d="M -0 175.791326 
L 517.054321 175.791326 
L 517.054321 0 
L -0 0 
z
" style="fill: #ffffff"/>
  </g>
  <g id="axes_1">
   <g id="patch_2">
    <path d="M 31.016563 148.509764 
L 172.030174 148.509764 
L 172.030174 44.419213 
L 31.016563 44.419213 
z
" style="fill: #ffffff"/>
   </g>
   <g id="FillBetweenPolyCollection_1">
    <defs>
     <path id="m8a90dc454b" d="M 37.426272 -59.871086 
L 37.426272 -30.290609 
L 54.907298 -30.597839 
L 72.388325 -27.433773 
L 89.869351 -26.728793 
L 107.350377 -27.258101 
L 124.831403 -28.425079 
L 142.31243 -28.63435 
L 159.793456 -25.583487 
L 165.620465 -25.617323 
L 165.620465 -76.618013 
L 165.620465 -76.618013 
L 159.793456 -86.974604 
L 142.31243 -102.710493 
L 124.831403 -99.467782 
L 107.350377 -88.312177 
L 89.869351 -79.697051 
L 72.388325 -77.017138 
L 54.907298 -65.555038 
L 37.426272 -59.871086 
z
"/>
    </defs>
    <g clip-path="url(#pe13d4f38b6)">
     <use xlink:href="#m8a90dc454b" x="0" y="175.791326" style="fill: #8a8a8a; fill-opacity: 0.15"/>
    </g>
   </g>
   <g id="FillBetweenPolyCollection_2">
    <defs>
     <path id="m327b5d0a05" d="M 37.426272 -125.795834 
L 37.426272 -125.795834 
L 54.907298 -102.919671 
L 72.388325 -96.356981 
L 89.869351 -97.201458 
L 107.350377 -98.408707 
L 124.831403 -100.883289 
L 142.31243 -96.223071 
L 159.793456 -91.956494 
L 165.620465 -82.133757 
L 165.620465 -126.830905 
L 165.620465 -126.830905 
L 159.793456 -135.828112 
L 142.31243 -126.300581 
L 124.831403 -126.005129 
L 107.350377 -124.97794 
L 89.869351 -126.367747 
L 72.388325 -126.523487 
L 54.907298 -128.682031 
L 37.426272 -125.795834 
z
"/>
    </defs>
    <g clip-path="url(#pe13d4f38b6)">
     <use xlink:href="#m327b5d0a05" x="0" y="175.791326" style="fill: #d6337c; fill-opacity: 0.15"/>
    </g>
   </g>
   <g id="matplotlib.axis_1">
    <g id="xtick_1">
     <g id="line2d_1">
      <defs>
       <path id="m87a52c75fd" d="M 0 0 
L 0 -2.5 
" style="stroke: #000000; stroke-width: 0.6"/>
      </defs>
      <g>
       <use xlink:href="#m87a52c75fd" x="49.08029" y="148.509764" style="stroke: #000000; stroke-width: 0.6"/>
      </g>
     </g>
     <g id="text_1">
      <!-- 20 -->
      <g transform="translate(45.26279 156.568826) scale(0.06 -0.06)">
       <defs>
        <path id="DejaVuSans-32" d="M 1228 531 
L 3431 531 
L 3431 0 
L 469 0 
L 469 531 
Q 828 903 1448 1529 
Q 2069 2156 2228 2338 
Q 2531 2678 2651 2914 
Q 2772 3150 2772 3378 
Q 2772 3750 2511 3984 
Q 2250 4219 1831 4219 
Q 1534 4219 1204 4116 
Q 875 4013 500 3803 
L 500 4441 
Q 881 4594 1212 4672 
Q 1544 4750 1819 4750 
Q 2544 4750 2975 4387 
Q 3406 4025 3406 3419 
Q 3406 3131 3298 2873 
Q 3191 2616 2906 2266 
Q 2828 2175 2409 1742 
Q 1991 1309 1228 531 
z
" transform="scale(0.015625)"/>
        <path id="DejaVuSans-30" d="M 2034 4250 
Q 1547 4250 1301 3770 
Q 1056 3291 1056 2328 
Q 1056 1369 1301 889 
Q 1547 409 2034 409 
Q 2525 409 2770 889 
Q 3016 1369 3016 2328 
Q 3016 3291 2770 3770 
Q 2525 4250 2034 4250 
z
M 2034 4750 
Q 2819 4750 3233 4129 
Q 3647 3509 3647 2328 
Q 3647 1150 3233 529 
Q 2819 -91 2034 -91 
Q 1250 -91 836 529 
Q 422 1150 422 2328 
Q 422 3509 836 4129 
Q 1250 4750 2034 4750 
z
" transform="scale(0.015625)"/>
       </defs>
       <use xlink:href="#DejaVuSans-32"/>
       <use xlink:href="#DejaVuSans-30" transform="translate(63.623047 0)"/>
      </g>
     </g>
    </g>
    <g id="xtick_2">
     <g id="line2d_2">
      <g>
       <use xlink:href="#m87a52c75fd" x="78.215333" y="148.509764" style="stroke: #000000; stroke-width: 0.6"/>
      </g>
     </g>
     <g id="text_2">
      <!-- 40 -->
      <g transform="translate(74.397833 156.568826) scale(0.06 -0.06)">
       <defs>
        <path id="DejaVuSans-34" d="M 2419 4116 
L 825 1625 
L 2419 1625 
L 2419 4116 
z
M 2253 4666 
L 3047 4666 
L 3047 1625 
L 3713 1625 
L 3713 1100 
L 3047 1100 
L 3047 0 
L 2419 0 
L 2419 1100 
L 313 1100 
L 313 1709 
L 2253 4666 
z
" transform="scale(0.015625)"/>
       </defs>
       <use xlink:href="#DejaVuSans-34"/>
       <use xlink:href="#DejaVuSans-30" transform="translate(63.623047 0)"/>
      </g>
     </g>
    </g>
    <g id="xtick_3">
     <g id="line2d_3">
      <g>
       <use xlink:href="#m87a52c75fd" x="107.350377" y="148.509764" style="stroke: #000000; stroke-width: 0.6"/>
      </g>
     </g>
     <g id="text_3">
      <!-- 60 -->
      <g transform="translate(103.532877 156.568826) scale(0.06 -0.06)">
       <defs>
        <path id="DejaVuSans-36" d="M 2113 2584 
Q 1688 2584 1439 2293 
Q 1191 2003 1191 1497 
Q 1191 994 1439 701 
Q 1688 409 2113 409 
Q 2538 409 2786 701 
Q 3034 994 3034 1497 
Q 3034 2003 2786 2293 
Q 2538 2584 2113 2584 
z
M 3366 4563 
L 3366 3988 
Q 3128 4100 2886 4159 
Q 2644 4219 2406 4219 
Q 1781 4219 1451 3797 
Q 1122 3375 1075 2522 
Q 1259 2794 1537 2939 
Q 1816 3084 2150 3084 
Q 2853 3084 3261 2657 
Q 3669 2231 3669 1497 
Q 3669 778 3244 343 
Q 2819 -91 2113 -91 
Q 1303 -91 875 529 
Q 447 1150 447 2328 
Q 447 3434 972 4092 
Q 1497 4750 2381 4750 
Q 2619 4750 2861 4703 
Q 3103 4656 3366 4563 
z
" transform="scale(0.015625)"/>
       </defs>
       <use xlink:href="#DejaVuSans-36"/>
       <use xlink:href="#DejaVuSans-30" transform="translate(63.623047 0)"/>
      </g>
     </g>
    </g>
    <g id="xtick_4">
     <g id="line2d_4">
      <g>
       <use xlink:href="#m87a52c75fd" x="136.485421" y="148.509764" style="stroke: #000000; stroke-width: 0.6"/>
      </g>
     </g>
     <g id="text_4">
      <!-- 80 -->
      <g transform="translate(132.667921 156.568826) scale(0.06 -0.06)">
       <defs>
        <path id="DejaVuSans-38" d="M 2034 2216 
Q 1584 2216 1326 1975 
Q 1069 1734 1069 1313 
Q 1069 891 1326 650 
Q 1584 409 2034 409 
Q 2484 409 2743 651 
Q 3003 894 3003 1313 
Q 3003 1734 2745 1975 
Q 2488 2216 2034 2216 
z
M 1403 2484 
Q 997 2584 770 2862 
Q 544 3141 544 3541 
Q 544 4100 942 4425 
Q 1341 4750 2034 4750 
Q 2731 4750 3128 4425 
Q 3525 4100 3525 3541 
Q 3525 3141 3298 2862 
Q 3072 2584 2669 2484 
Q 3125 2378 3379 2068 
Q 3634 1759 3634 1313 
Q 3634 634 3220 271 
Q 2806 -91 2034 -91 
Q 1263 -91 848 271 
Q 434 634 434 1313 
Q 434 1759 690 2068 
Q 947 2378 1403 2484 
z
M 1172 3481 
Q 1172 3119 1398 2916 
Q 1625 2713 2034 2713 
Q 2441 2713 2670 2916 
Q 2900 3119 2900 3481 
Q 2900 3844 2670 4047 
Q 2441 4250 2034 4250 
Q 1625 4250 1398 4047 
Q 1172 3844 1172 3481 
z
" transform="scale(0.015625)"/>
       </defs>
       <use xlink:href="#DejaVuSans-38"/>
       <use xlink:href="#DejaVuSans-30" transform="translate(63.623047 0)"/>
      </g>
     </g>
    </g>
    <g id="xtick_5">
     <g id="line2d_5">
      <g>
       <use xlink:href="#m87a52c75fd" x="165.620465" y="148.509764" style="stroke: #000000; stroke-width: 0.6"/>
      </g>
     </g>
     <g id="text_5">
      <!-- 100 -->
      <g transform="translate(159.894215 156.568826) scale(0.06 -0.06)">
       <defs>
        <path id="DejaVuSans-31" d="M 794 531 
L 1825 531 
L 1825 4091 
L 703 3866 
L 703 4441 
L 1819 4666 
L 2450 4666 
L 2450 531 
L 3481 531 
L 3481 0 
L 794 0 
L 794 531 
z
" transform="scale(0.015625)"/>
       </defs>
       <use xlink:href="#DejaVuSans-31"/>
       <use xlink:href="#DejaVuSans-30" transform="translate(63.623047 0)"/>
       <use xlink:href="#DejaVuSans-30" transform="translate(127.246094 0)"/>
      </g>
     </g>
    </g>
    <g id="text_6">
     <!-- Cycle -->
     <g transform="translate(91.957431 167.135545) scale(0.07 -0.07)">
      <defs>
       <path id="DejaVuSans-43" d="M 4122 4306 
L 4122 3641 
Q 3803 3938 3442 4084 
Q 3081 4231 2675 4231 
Q 1875 4231 1450 3742 
Q 1025 3253 1025 2328 
Q 1025 1406 1450 917 
Q 1875 428 2675 428 
Q 3081 428 3442 575 
Q 3803 722 4122 1019 
L 4122 359 
Q 3791 134 3420 21 
Q 3050 -91 2638 -91 
Q 1578 -91 968 557 
Q 359 1206 359 2328 
Q 359 3453 968 4101 
Q 1578 4750 2638 4750 
Q 3056 4750 3426 4639 
Q 3797 4528 4122 4306 
z
" transform="scale(0.015625)"/>
       <path id="DejaVuSans-79" d="M 2059 -325 
Q 1816 -950 1584 -1140 
Q 1353 -1331 966 -1331 
L 506 -1331 
L 506 -850 
L 844 -850 
Q 1081 -850 1212 -737 
Q 1344 -625 1503 -206 
L 1606 56 
L 191 3500 
L 800 3500 
L 1894 763 
L 2988 3500 
L 3597 3500 
L 2059 -325 
z
" transform="scale(0.015625)"/>
       <path id="DejaVuSans-63" d="M 3122 3366 
L 3122 2828 
Q 2878 2963 2633 3030 
Q 2388 3097 2138 3097 
Q 1578 3097 1268 2742 
Q 959 2388 959 1747 
Q 959 1106 1268 751 
Q 1578 397 2138 397 
Q 2388 397 2633 464 
Q 2878 531 3122 666 
L 3122 134 
Q 2881 22 2623 -34 
Q 2366 -91 2075 -91 
Q 1284 -91 818 406 
Q 353 903 353 1747 
Q 353 2603 823 3093 
Q 1294 3584 2113 3584 
Q 2378 3584 2631 3529 
Q 2884 3475 3122 3366 
z
" transform="scale(0.015625)"/>
       <path id="DejaVuSans-6c" d="M 603 4863 
L 1178 4863 
L 1178 0 
L 603 0 
L 603 4863 
z
" transform="scale(0.015625)"/>
       <path id="DejaVuSans-65" d="M 3597 1894 
L 3597 1613 
L 953 1613 
Q 991 1019 1311 708 
Q 1631 397 2203 397 
Q 2534 397 2845 478 
Q 3156 559 3463 722 
L 3463 178 
Q 3153 47 2828 -22 
Q 2503 -91 2169 -91 
Q 1331 -91 842 396 
Q 353 884 353 1716 
Q 353 2575 817 3079 
Q 1281 3584 2069 3584 
Q 2775 3584 3186 3129 
Q 3597 2675 3597 1894 
z
M 3022 2063 
Q 3016 2534 2758 2815 
Q 2500 3097 2075 3097 
Q 1594 3097 1305 2825 
Q 1016 2553 972 2059 
L 3022 2063 
z
" transform="scale(0.015625)"/>
      </defs>
      <use xlink:href="#DejaVuSans-43"/>
      <use xlink:href="#DejaVuSans-79" transform="translate(69.824219 0)"/>
      <use xlink:href="#DejaVuSans-63" transform="translate(129.003906 0)"/>
      <use xlink:href="#DejaVuSans-6c" transform="translate(183.984375 0)"/>
      <use xlink:href="#DejaVuSans-65" transform="translate(211.767578 0)"/>
     </g>
    </g>
   </g>
   <g id="matplotlib.axis_2">
    <g id="ytick_1">
     <g id="line2d_6">
      <defs>
       <path id="m9d610e13d2" d="M 0 0 
L 2.5 0 
" style="stroke: #000000; stroke-width: 0.6"/>
      </defs>
      <g>
       <use xlink:href="#m9d610e13d2" x="31.016563" y="142.933484" style="stroke: #000000; stroke-width: 0.6"/>
      </g>
     </g>
     <g id="text_7">
      <!-- 0.0 -->
      <g transform="translate(17.974688 145.213016) scale(0.06 -0.06)">
       <defs>
        <path id="DejaVuSans-2e" d="M 684 794 
L 1344 794 
L 1344 0 
L 684 0 
L 684 794 
z
" transform="scale(0.015625)"/>
       </defs>
       <use xlink:href="#DejaVuSans-30"/>
       <use xlink:href="#DejaVuSans-2e" transform="translate(63.623047 0)"/>
       <use xlink:href="#DejaVuSans-30" transform="translate(95.410156 0)"/>
      </g>
     </g>
    </g>
    <g id="ytick_2">
     <g id="line2d_7">
      <g>
       <use xlink:href="#m9d610e13d2" x="31.016563" y="124.345886" style="stroke: #000000; stroke-width: 0.6"/>
      </g>
     </g>
     <g id="text_8">
      <!-- 0.2 -->
      <g transform="translate(17.974688 126.625417) scale(0.06 -0.06)">
       <use xlink:href="#DejaVuSans-30"/>
       <use xlink:href="#DejaVuSans-2e" transform="translate(63.623047 0)"/>
       <use xlink:href="#DejaVuSans-32" transform="translate(95.410156 0)"/>
      </g>
     </g>
    </g>
    <g id="ytick_3">
     <g id="line2d_8">
      <g>
       <use xlink:href="#m9d610e13d2" x="31.016563" y="105.758287" style="stroke: #000000; stroke-width: 0.6"/>
      </g>
     </g>
     <g id="text_9">
      <!-- 0.4 -->
      <g transform="translate(17.974688 108.037819) scale(0.06 -0.06)">
       <use xlink:href="#DejaVuSans-30"/>
       <use xlink:href="#DejaVuSans-2e" transform="translate(63.623047 0)"/>
       <use xlink:href="#DejaVuSans-34" transform="translate(95.410156 0)"/>
      </g>
     </g>
    </g>
    <g id="ytick_4">
     <g id="line2d_9">
      <g>
       <use xlink:href="#m9d610e13d2" x="31.016563" y="87.170689" style="stroke: #000000; stroke-width: 0.6"/>
      </g>
     </g>
     <g id="text_10">
      <!-- 0.6 -->
      <g transform="translate(17.974688 89.45022) scale(0.06 -0.06)">
       <use xlink:href="#DejaVuSans-30"/>
       <use xlink:href="#DejaVuSans-2e" transform="translate(63.623047 0)"/>
       <use xlink:href="#DejaVuSans-36" transform="translate(95.410156 0)"/>
      </g>
     </g>
    </g>
    <g id="ytick_5">
     <g id="line2d_10">
      <g>
       <use xlink:href="#m9d610e13d2" x="31.016563" y="68.583091" style="stroke: #000000; stroke-width: 0.6"/>
      </g>
     </g>
     <g id="text_11">
      <!-- 0.8 -->
      <g transform="translate(17.974688 70.862622) scale(0.06 -0.06)">
       <use xlink:href="#DejaVuSans-30"/>
       <use xlink:href="#DejaVuSans-2e" transform="translate(63.623047 0)"/>
       <use xlink:href="#DejaVuSans-38" transform="translate(95.410156 0)"/>
      </g>
     </g>
    </g>
    <g id="ytick_6">
     <g id="line2d_11">
      <g>
       <use xlink:href="#m9d610e13d2" x="31.016563" y="49.995492" style="stroke: #000000; stroke-width: 0.6"/>
      </g>
     </g>
     <g id="text_12">
      <!-- 1.0 -->
      <g transform="translate(17.974688 52.275023) scale(0.06 -0.06)">
       <use xlink:href="#DejaVuSans-31"/>
       <use xlink:href="#DejaVuSans-2e" transform="translate(63.623047 0)"/>
       <use xlink:href="#DejaVuSans-30" transform="translate(95.410156 0)"/>
      </g>
     </g>
    </g>
    <g id="text_13">
     <!-- PPC acceptance -->
     <g transform="translate(12.518906 124.424019) rotate(-90) scale(0.07 -0.07)">
      <defs>
       <path id="DejaVuSans-50" d="M 1259 4147 
L 1259 2394 
L 2053 2394 
Q 2494 2394 2734 2622 
Q 2975 2850 2975 3272 
Q 2975 3691 2734 3919 
Q 2494 4147 2053 4147 
L 1259 4147 
z
M 628 4666 
L 2053 4666 
Q 2838 4666 3239 4311 
Q 3641 3956 3641 3272 
Q 3641 2581 3239 2228 
Q 2838 1875 2053 1875 
L 1259 1875 
L 1259 0 
L 628 0 
L 628 4666 
z
" transform="scale(0.015625)"/>
       <path id="DejaVuSans-20" transform="scale(0.015625)"/>
       <path id="DejaVuSans-61" d="M 2194 1759 
Q 1497 1759 1228 1600 
Q 959 1441 959 1056 
Q 959 750 1161 570 
Q 1363 391 1709 391 
Q 2188 391 2477 730 
Q 2766 1069 2766 1631 
L 2766 1759 
L 2194 1759 
z
M 3341 1997 
L 3341 0 
L 2766 0 
L 2766 531 
Q 2569 213 2275 61 
Q 1981 -91 1556 -91 
Q 1019 -91 701 211 
Q 384 513 384 1019 
Q 384 1609 779 1909 
Q 1175 2209 1959 2209 
L 2766 2209 
L 2766 2266 
Q 2766 2663 2505 2880 
Q 2244 3097 1772 3097 
Q 1472 3097 1187 3025 
Q 903 2953 641 2809 
L 641 3341 
Q 956 3463 1253 3523 
Q 1550 3584 1831 3584 
Q 2591 3584 2966 3190 
Q 3341 2797 3341 1997 
z
" transform="scale(0.015625)"/>
       <path id="DejaVuSans-70" d="M 1159 525 
L 1159 -1331 
L 581 -1331 
L 581 3500 
L 1159 3500 
L 1159 2969 
Q 1341 3281 1617 3432 
Q 1894 3584 2278 3584 
Q 2916 3584 3314 3078 
Q 3713 2572 3713 1747 
Q 3713 922 3314 415 
Q 2916 -91 2278 -91 
Q 1894 -91 1617 61 
Q 1341 213 1159 525 
z
M 3116 1747 
Q 3116 2381 2855 2742 
Q 2594 3103 2138 3103 
Q 1681 3103 1420 2742 
Q 1159 2381 1159 1747 
Q 1159 1113 1420 752 
Q 1681 391 2138 391 
Q 2594 391 2855 752 
Q 3116 1113 3116 1747 
z
" transform="scale(0.015625)"/>
       <path id="DejaVuSans-74" d="M 1172 4494 
L 1172 3500 
L 2356 3500 
L 2356 3053 
L 1172 3053 
L 1172 1153 
Q 1172 725 1289 603 
Q 1406 481 1766 481 
L 2356 481 
L 2356 0 
L 1766 0 
Q 1100 0 847 248 
Q 594 497 594 1153 
L 594 3053 
L 172 3053 
L 172 3500 
L 594 3500 
L 594 4494 
L 1172 4494 
z
" transform="scale(0.015625)"/>
       <path id="DejaVuSans-6e" d="M 3513 2113 
L 3513 0 
L 2938 0 
L 2938 2094 
Q 2938 2591 2744 2837 
Q 2550 3084 2163 3084 
Q 1697 3084 1428 2787 
Q 1159 2491 1159 1978 
L 1159 0 
L 581 0 
L 581 3500 
L 1159 3500 
L 1159 2956 
Q 1366 3272 1645 3428 
Q 1925 3584 2291 3584 
Q 2894 3584 3203 3211 
Q 3513 2838 3513 2113 
z
" transform="scale(0.015625)"/>
      </defs>
      <use xlink:href="#DejaVuSans-50"/>
      <use xlink:href="#DejaVuSans-50" transform="translate(60.302734 0)"/>
      <use xlink:href="#DejaVuSans-43" transform="translate(120.605469 0)"/>
      <use xlink:href="#DejaVuSans-20" transform="translate(190.429688 0)"/>
      <use xlink:href="#DejaVuSans-61" transform="translate(222.216797 0)"/>
      <use xlink:href="#DejaVuSans-63" transform="translate(283.496094 0)"/>
      <use xlink:href="#DejaVuSans-63" transform="translate(338.476562 0)"/>
      <use xlink:href="#DejaVuSans-65" transform="translate(393.457031 0)"/>
      <use xlink:href="#DejaVuSans-70" transform="translate(454.980469 0)"/>
      <use xlink:href="#DejaVuSans-74" transform="translate(518.457031 0)"/>
      <use xlink:href="#DejaVuSans-61" transform="translate(557.666016 0)"/>
      <use xlink:href="#DejaVuSans-6e" transform="translate(618.945312 0)"/>
      <use xlink:href="#DejaVuSans-63" transform="translate(682.324219 0)"/>
      <use xlink:href="#DejaVuSans-65" transform="translate(737.304688 0)"/>
     </g>
    </g>
   </g>
   <g id="line2d_12">
    <path d="M 37.426272 130.710479 
L 54.907298 127.714888 
L 72.388325 123.565871 
L 89.869351 122.578404 
L 107.350377 118.006187 
L 124.831403 111.844896 
L 142.31243 110.118905 
L 159.793456 119.51228 
L 165.620465 124.673658 
" clip-path="url(#pe13d4f38b6)" style="fill: none; stroke: #8a8a8a; stroke-width: 1.1; stroke-linecap: square"/>
   </g>
   <g id="line2d_13">
    <path d="M 37.426272 49.995492 
L 54.907298 59.990475 
L 72.388325 64.351093 
L 89.869351 64.006724 
L 107.350377 64.098003 
L 124.831403 62.347117 
L 142.31243 64.5295 
L 159.793456 61.899023 
L 165.620465 71.308995 
" clip-path="url(#pe13d4f38b6)" style="fill: none; stroke: #d6337c; stroke-width: 1.3; stroke-linecap: square"/>
   </g>
   <g id="patch_3">
    <path d="M 31.016563 148.509764 
L 31.016563 44.419213 
" style="fill: none; stroke: #000000; stroke-width: 0.6; stroke-linejoin: miter; stroke-linecap: square"/>
   </g>
   <g id="patch_4">
    <path d="M 172.030174 148.509764 
L 172.030174 44.419213 
" style="fill: none; stroke: #000000; stroke-width: 0.6; stroke-linejoin: miter; stroke-linecap: square"/>
   </g>
   <g id="patch_5">
    <path d="M 31.016563 148.509764 
L 172.030174 148.509764 
" style="fill: none; stroke: #000000; stroke-width: 0.6; stroke-linejoin: miter; stroke-linecap: square"/>
   </g>
   <g id="patch_6">
    <path d="M 31.016563 44.419213 
L 172.030174 44.419213 
" style="fill: none; stroke: #000000; stroke-width: 0.6; stroke-linejoin: miter; stroke-linecap: square"/>
   </g>
   <g id="text_14">
    <!-- Task 1 (56 trajectories) -->
    <g transform="translate(61.31165 38.419213) scale(0.07 -0.07)">
     <defs>
      <path id="DejaVuSans-54" d="M -19 4666 
L 3928 4666 
L 3928 4134 
L 2272 4134 
L 2272 0 
L 1638 0 
L 1638 4134 
L -19 4134 
L -19 4666 
z
" transform="scale(0.015625)"/>
      <path id="DejaVuSans-73" d="M 2834 3397 
L 2834 2853 
Q 2591 2978 2328 3040 
Q 2066 3103 1784 3103 
Q 1356 3103 1142 2972 
Q 928 2841 928 2578 
Q 928 2378 1081 2264 
Q 1234 2150 1697 2047 
L 1894 2003 
Q 2506 1872 2764 1633 
Q 3022 1394 3022 966 
Q 3022 478 2636 193 
Q 2250 -91 1575 -91 
Q 1294 -91 989 -36 
Q 684 19 347 128 
L 347 722 
Q 666 556 975 473 
Q 1284 391 1588 391 
Q 1994 391 2212 530 
Q 2431 669 2431 922 
Q 2431 1156 2273 1281 
Q 2116 1406 1581 1522 
L 1381 1569 
Q 847 1681 609 1914 
Q 372 2147 372 2553 
Q 372 3047 722 3315 
Q 1072 3584 1716 3584 
Q 2034 3584 2315 3537 
Q 2597 3491 2834 3397 
z
" transform="scale(0.015625)"/>
      <path id="DejaVuSans-6b" d="M 581 4863 
L 1159 4863 
L 1159 1991 
L 2875 3500 
L 3609 3500 
L 1753 1863 
L 3688 0 
L 2938 0 
L 1159 1709 
L 1159 0 
L 581 0 
L 581 4863 
z
" transform="scale(0.015625)"/>
      <path id="DejaVuSans-28" d="M 1984 4856 
Q 1566 4138 1362 3434 
Q 1159 2731 1159 2009 
Q 1159 1288 1364 580 
Q 1569 -128 1984 -844 
L 1484 -844 
Q 1016 -109 783 600 
Q 550 1309 550 2009 
Q 550 2706 781 3412 
Q 1013 4119 1484 4856 
L 1984 4856 
z
" transform="scale(0.015625)"/>
      <path id="DejaVuSans-35" d="M 691 4666 
L 3169 4666 
L 3169 4134 
L 1269 4134 
L 1269 2991 
Q 1406 3038 1543 3061 
Q 1681 3084 1819 3084 
Q 2600 3084 3056 2656 
Q 3513 2228 3513 1497 
Q 3513 744 3044 326 
Q 2575 -91 1722 -91 
Q 1428 -91 1123 -41 
Q 819 9 494 109 
L 494 744 
Q 775 591 1075 516 
Q 1375 441 1709 441 
Q 2250 441 2565 725 
Q 2881 1009 2881 1497 
Q 2881 1984 2565 2268 
Q 2250 2553 1709 2553 
Q 1456 2553 1204 2497 
Q 953 2441 691 2322 
L 691 4666 
z
" transform="scale(0.015625)"/>
      <path id="DejaVuSans-72" d="M 2631 2963 
Q 2534 3019 2420 3045 
Q 2306 3072 2169 3072 
Q 1681 3072 1420 2755 
Q 1159 2438 1159 1844 
L 1159 0 
L 581 0 
L 581 3500 
L 1159 3500 
L 1159 2956 
Q 1341 3275 1631 3429 
Q 1922 3584 2338 3584 
Q 2397 3584 2469 3576 
Q 2541 3569 2628 3553 
L 2631 2963 
z
" transform="scale(0.015625)"/>
      <path id="DejaVuSans-6a" d="M 603 3500 
L 1178 3500 
L 1178 -63 
Q 1178 -731 923 -1031 
Q 669 -1331 103 -1331 
L -116 -1331 
L -116 -844 
L 38 -844 
Q 366 -844 484 -692 
Q 603 -541 603 -63 
L 603 3500 
z
M 603 4863 
L 1178 4863 
L 1178 4134 
L 603 4134 
L 603 4863 
z
" transform="scale(0.015625)"/>
      <path id="DejaVuSans-6f" d="M 1959 3097 
Q 1497 3097 1228 2736 
Q 959 2375 959 1747 
Q 959 1119 1226 758 
Q 1494 397 1959 397 
Q 2419 397 2687 759 
Q 2956 1122 2956 1747 
Q 2956 2369 2687 2733 
Q 2419 3097 1959 3097 
z
M 1959 3584 
Q 2709 3584 3137 3096 
Q 3566 2609 3566 1747 
Q 3566 888 3137 398 
Q 2709 -91 1959 -91 
Q 1206 -91 779 398 
Q 353 888 353 1747 
Q 353 2609 779 3096 
Q 1206 3584 1959 3584 
z
" transform="scale(0.015625)"/>
      <path id="DejaVuSans-69" d="M 603 3500 
L 1178 3500 
L 1178 0 
L 603 0 
L 603 3500 
z
M 603 4863 
L 1178 4863 
L 1178 4134 
L 603 4134 
L 603 4863 
z
" transform="scale(0.015625)"/>
      <path id="DejaVuSans-29" d="M 513 4856 
L 1013 4856 
Q 1481 4119 1714 3412 
Q 1947 2706 1947 2009 
Q 1947 1309 1714 600 
Q 1481 -109 1013 -844 
L 513 -844 
Q 928 -128 1133 580 
Q 1338 1288 1338 2009 
Q 1338 2731 1133 3434 
Q 928 4138 513 4856 
z
" transform="scale(0.015625)"/>
     </defs>
     <use xlink:href="#DejaVuSans-54"/>
     <use xlink:href="#DejaVuSans-61" transform="translate(44.583984 0)"/>
     <use xlink:href="#DejaVuSans-73" transform="translate(105.863281 0)"/>
     <use xlink:href="#DejaVuSans-6b" transform="translate(157.962891 0)"/>
     <use xlink:href="#DejaVuSans-20" transform="translate(215.873047 0)"/>
     <use xlink:href="#DejaVuSans-31" transform="translate(247.660156 0)"/>
     <use xlink:href="#DejaVuSans-20" transform="translate(311.283203 0)"/>
     <use xlink:href="#DejaVuSans-28" transform="translate(343.070312 0)"/>
     <use xlink:href="#DejaVuSans-35" transform="translate(382.083984 0)"/>
     <use xlink:href="#DejaVuSans-36" transform="translate(445.707031 0)"/>
     <use xlink:href="#DejaVuSans-20" transform="translate(509.330078 0)"/>
     <use xlink:href="#DejaVuSans-74" transform="translate(541.117188 0)"/>
     <use xlink:href="#DejaVuSans-72" transform="translate(580.326172 0)"/>
     <use xlink:href="#DejaVuSans-61" transform="translate(621.439453 0)"/>
     <use xlink:href="#DejaVuSans-6a" transform="translate(682.71875 0)"/>
     <use xlink:href="#DejaVuSans-65" transform="translate(710.501953 0)"/>
     <use xlink:href="#DejaVuSans-63" transform="translate(772.025391 0)"/>
     <use xlink:href="#DejaVuSans-74" transform="translate(827.005859 0)"/>
     <use xlink:href="#DejaVuSans-6f" transform="translate(866.214844 0)"/>
     <use xlink:href="#DejaVuSans-72" transform="translate(927.396484 0)"/>
     <use xlink:href="#DejaVuSans-69" transform="translate(968.509766 0)"/>
     <use xlink:href="#DejaVuSans-65" transform="translate(996.292969 0)"/>
     <use xlink:href="#DejaVuSans-73" transform="translate(1057.816406 0)"/>
     <use xlink:href="#DejaVuSans-29" transform="translate(1109.916016 0)"/>
    </g>
   </g>
   <g id="legend_1">
    <g id="line2d_14">
     <path d="M 119.433846 92.02066 
L 124.933846 92.02066 
L 130.433846 92.02066 
" style="fill: none; stroke: #8a8a8a; stroke-width: 1.1; stroke-linecap: square"/>
    </g>
    <g id="text_15">
     <!-- Without GM -->
     <g transform="translate(134.833846 93.94566) scale(0.055 -0.055)">
      <defs>
       <path id="DejaVuSans-57" d="M 213 4666 
L 850 4666 
L 1831 722 
L 2809 4666 
L 3519 4666 
L 4500 722 
L 5478 4666 
L 6119 4666 
L 4947 0 
L 4153 0 
L 3169 4050 
L 2175 0 
L 1381 0 
L 213 4666 
z
" transform="scale(0.015625)"/>
       <path id="DejaVuSans-68" d="M 3513 2113 
L 3513 0 
L 2938 0 
L 2938 2094 
Q 2938 2591 2744 2837 
Q 2550 3084 2163 3084 
Q 1697 3084 1428 2787 
Q 1159 2491 1159 1978 
L 1159 0 
L 581 0 
L 581 4863 
L 1159 4863 
L 1159 2956 
Q 1366 3272 1645 3428 
Q 1925 3584 2291 3584 
Q 2894 3584 3203 3211 
Q 3513 2838 3513 2113 
z
" transform="scale(0.015625)"/>
       <path id="DejaVuSans-75" d="M 544 1381 
L 544 3500 
L 1119 3500 
L 1119 1403 
Q 1119 906 1312 657 
Q 1506 409 1894 409 
Q 2359 409 2629 706 
Q 2900 1003 2900 1516 
L 2900 3500 
L 3475 3500 
L 3475 0 
L 2900 0 
L 2900 538 
Q 2691 219 2414 64 
Q 2138 -91 1772 -91 
Q 1169 -91 856 284 
Q 544 659 544 1381 
z
M 1991 3584 
L 1991 3584 
z
" transform="scale(0.015625)"/>
       <path id="DejaVuSans-47" d="M 3809 666 
L 3809 1919 
L 2778 1919 
L 2778 2438 
L 4434 2438 
L 4434 434 
Q 4069 175 3628 42 
Q 3188 -91 2688 -91 
Q 1594 -91 976 548 
Q 359 1188 359 2328 
Q 359 3472 976 4111 
Q 1594 4750 2688 4750 
Q 3144 4750 3555 4637 
Q 3966 4525 4313 4306 
L 4313 3634 
Q 3963 3931 3569 4081 
Q 3175 4231 2741 4231 
Q 1884 4231 1454 3753 
Q 1025 3275 1025 2328 
Q 1025 1384 1454 906 
Q 1884 428 2741 428 
Q 3075 428 3337 486 
Q 3600 544 3809 666 
z
" transform="scale(0.015625)"/>
       <path id="DejaVuSans-4d" d="M 628 4666 
L 1569 4666 
L 2759 1491 
L 3956 4666 
L 4897 4666 
L 4897 0 
L 4281 0 
L 4281 4097 
L 3078 897 
L 2444 897 
L 1241 4097 
L 1241 0 
L 628 0 
L 628 4666 
z
" transform="scale(0.015625)"/>
      </defs>
      <use xlink:href="#DejaVuSans-57"/>
      <use xlink:href="#DejaVuSans-69" transform="translate(96.626953 0)"/>
      <use xlink:href="#DejaVuSans-74" transform="translate(124.410156 0)"/>
      <use xlink:href="#DejaVuSans-68" transform="translate(163.619141 0)"/>
      <use xlink:href="#DejaVuSans-6f" transform="translate(226.998047 0)"/>
      <use xlink:href="#DejaVuSans-75" transform="translate(288.179688 0)"/>
      <use xlink:href="#DejaVuSans-74" transform="translate(351.558594 0)"/>
      <use xlink:href="#DejaVuSans-20" transform="translate(390.767578 0)"/>
      <use xlink:href="#DejaVuSans-47" transform="translate(422.554688 0)"/>
      <use xlink:href="#DejaVuSans-4d" transform="translate(500.044922 0)"/>
     </g>
    </g>
    <g id="line2d_15">
     <path d="M 119.433846 100.093629 
L 124.933846 100.093629 
L 130.433846 100.093629 
" style="fill: none; stroke: #d6337c; stroke-width: 1.3; stroke-linecap: square"/>
    </g>
    <g id="text_16">
     <!-- With GM -->
     <g transform="translate(134.833846 102.018629) scale(0.055 -0.055)">
      <use xlink:href="#DejaVuSans-57"/>
      <use xlink:href="#DejaVuSans-69" transform="translate(96.626953 0)"/>
      <use xlink:href="#DejaVuSans-74" transform="translate(124.410156 0)"/>
      <use xlink:href="#DejaVuSans-68" transform="translate(163.619141 0)"/>
      <use xlink:href="#DejaVuSans-20" transform="translate(226.998047 0)"/>
      <use xlink:href="#DejaVuSans-47" transform="translate(258.785156 0)"/>
      <use xlink:href="#DejaVuSans-4d" transform="translate(336.275391 0)"/>
     </g>
    </g>
   </g>
  </g>
  <g id="axes_2">
   <g id="patch_7">
    <path d="M 199.928636 148.509764 
L 340.942248 148.509764 
L 340.942248 44.419213 
L 199.928636 44.419213 
z
" style="fill: #ffffff"/>
   </g>
   <g id="FillBetweenPolyCollection_3">
    <defs>
     <path id="m80a08b82cc" d="M 206.338346 -130.083752 
L 206.338346 -76.804742 
L 213.87918 -74.627866 
L 221.420015 -70.117836 
L 228.96085 -63.057486 
L 236.501685 -54.527281 
L 244.04252 -48.596356 
L 251.583355 -42.68054 
L 259.12419 -40.3408 
L 266.665024 -40.377918 
L 274.205859 -40.43678 
L 281.746694 -43.911624 
L 289.287529 -46.275012 
L 296.828364 -48.938965 
L 304.369199 -52.139461 
L 311.910034 -54.322928 
L 319.450869 -56.517078 
L 326.991703 -56.277469 
L 334.532538 -55.887806 
L 334.532538 -124.420422 
L 334.532538 -124.420422 
L 326.991703 -127.84178 
L 319.450869 -132.403923 
L 311.910034 -131.783468 
L 304.369199 -129.205182 
L 296.828364 -125.652522 
L 289.287529 -123.662643 
L 281.746694 -122.584101 
L 274.205859 -122.642472 
L 266.665024 -122.842452 
L 259.12419 -121.434719 
L 251.583355 -119.101368 
L 244.04252 -116.734189 
L 236.501685 -116.80961 
L 228.96085 -121.795767 
L 221.420015 -126.548001 
L 213.87918 -128.609791 
L 206.338346 -130.083752 
z
"/>
    </defs>
    <g clip-path="url(#pa5071d9865)">
     <use xlink:href="#m80a08b82cc" x="0" y="175.791326" style="fill: #8a8a8a; fill-opacity: 0.15"/>
    </g>
   </g>
   <g id="FillBetweenPolyCollection_4">
    <defs>
     <path id="m9b923cd613" d="M 206.338346 -129.81339 
L 206.338346 -77.493325 
L 213.87918 -78.731498 
L 221.420015 -87.552381 
L 228.96085 -96.835376 
L 236.501685 -103.708426 
L 244.04252 -108.811581 
L 251.583355 -107.940656 
L 259.12419 -106.276309 
L 266.665024 -108.542462 
L 274.205859 -109.919866 
L 281.746694 -109.613381 
L 289.287529 -106.756561 
L 296.828364 -107.899681 
L 304.369199 -108.331241 
L 311.910034 -109.088122 
L 319.450869 -109.308754 
L 326.991703 -103.713029 
L 334.532538 -93.373199 
L 334.532538 -127.64187 
L 334.532538 -127.64187 
L 326.991703 -125.870616 
L 319.450869 -128.915747 
L 311.910034 -129.870982 
L 304.369199 -127.958955 
L 296.828364 -126.900567 
L 289.287529 -127.616398 
L 281.746694 -128.092801 
L 274.205859 -128.788875 
L 266.665024 -130.083772 
L 259.12419 -130.181044 
L 251.583355 -128.082826 
L 244.04252 -124.943007 
L 236.501685 -123.730724 
L 228.96085 -124.11374 
L 221.420015 -126.582244 
L 213.87918 -129.464327 
L 206.338346 -129.81339 
z
"/>
    </defs>
    <g clip-path="url(#pa5071d9865)">
     <use xlink:href="#m9b923cd613" x="0" y="175.791326" style="fill: #d6337c; fill-opacity: 0.15"/>
    </g>
   </g>
   <g id="matplotlib.axis_3">
    <g id="xtick_6">
     <g id="line2d_16">
      <g>
       <use xlink:href="#m87a52c75fd" x="215.129163" y="148.509764" style="stroke: #000000; stroke-width: 0.6"/>
      </g>
     </g>
     <g id="text_17">
      <!-- 20 -->
      <g transform="translate(211.311663 156.568826) scale(0.06 -0.06)">
       <use xlink:href="#DejaVuSans-32"/>
       <use xlink:href="#DejaVuSans-30" transform="translate(63.623047 0)"/>
      </g>
     </g>
    </g>
    <g id="xtick_7">
     <g id="line2d_17">
      <g>
       <use xlink:href="#m87a52c75fd" x="244.980007" y="148.509764" style="stroke: #000000; stroke-width: 0.6"/>
      </g>
     </g>
     <g id="text_18">
      <!-- 40 -->
      <g transform="translate(241.162507 156.568826) scale(0.06 -0.06)">
       <use xlink:href="#DejaVuSans-34"/>
       <use xlink:href="#DejaVuSans-30" transform="translate(63.623047 0)"/>
      </g>
     </g>
    </g>
    <g id="xtick_8">
     <g id="line2d_18">
      <g>
       <use xlink:href="#m87a52c75fd" x="274.830851" y="148.509764" style="stroke: #000000; stroke-width: 0.6"/>
      </g>
     </g>
     <g id="text_19">
      <!-- 60 -->
      <g transform="translate(271.013351 156.568826) scale(0.06 -0.06)">
       <use xlink:href="#DejaVuSans-36"/>
       <use xlink:href="#DejaVuSans-30" transform="translate(63.623047 0)"/>
      </g>
     </g>
    </g>
    <g id="xtick_9">
     <g id="line2d_19">
      <g>
       <use xlink:href="#m87a52c75fd" x="304.681694" y="148.509764" style="stroke: #000000; stroke-width: 0.6"/>
      </g>
     </g>
     <g id="text_20">
      <!-- 80 -->
      <g transform="translate(300.864194 156.568826) scale(0.06 -0.06)">
       <use xlink:href="#DejaVuSans-38"/>
       <use xlink:href="#DejaVuSans-30" transform="translate(63.623047 0)"/>
      </g>
     </g>
    </g>
    <g id="xtick_10">
     <g id="line2d_20">
      <g>
       <use xlink:href="#m87a52c75fd" x="334.532538" y="148.509764" style="stroke: #000000; stroke-width: 0.6"/>
      </g>
     </g>
     <g id="text_21">
      <!-- 100 -->
      <g transform="translate(328.806288 156.568826) scale(0.06 -0.06)">
       <use xlink:href="#DejaVuSans-31"/>
       <use xlink:href="#DejaVuSans-30" transform="translate(63.623047 0)"/>
       <use xlink:href="#DejaVuSans-30" transform="translate(127.246094 0)"/>
      </g>
     </g>
    </g>
    <g id="text_22">
     <!-- Observation fraction (%) -->
     <g transform="translate(227.396379 167.135545) scale(0.07 -0.07)">
      <defs>
       <path id="DejaVuSans-4f" d="M 2522 4238 
Q 1834 4238 1429 3725 
Q 1025 3213 1025 2328 
Q 1025 1447 1429 934 
Q 1834 422 2522 422 
Q 3209 422 3611 934 
Q 4013 1447 4013 2328 
Q 4013 3213 3611 3725 
Q 3209 4238 2522 4238 
z
M 2522 4750 
Q 3503 4750 4090 4092 
Q 4678 3434 4678 2328 
Q 4678 1225 4090 567 
Q 3503 -91 2522 -91 
Q 1538 -91 948 565 
Q 359 1222 359 2328 
Q 359 3434 948 4092 
Q 1538 4750 2522 4750 
z
" transform="scale(0.015625)"/>
       <path id="DejaVuSans-62" d="M 3116 1747 
Q 3116 2381 2855 2742 
Q 2594 3103 2138 3103 
Q 1681 3103 1420 2742 
Q 1159 2381 1159 1747 
Q 1159 1113 1420 752 
Q 1681 391 2138 391 
Q 2594 391 2855 752 
Q 3116 1113 3116 1747 
z
M 1159 2969 
Q 1341 3281 1617 3432 
Q 1894 3584 2278 3584 
Q 2916 3584 3314 3078 
Q 3713 2572 3713 1747 
Q 3713 922 3314 415 
Q 2916 -91 2278 -91 
Q 1894 -91 1617 61 
Q 1341 213 1159 525 
L 1159 0 
L 581 0 
L 581 4863 
L 1159 4863 
L 1159 2969 
z
" transform="scale(0.015625)"/>
       <path id="DejaVuSans-76" d="M 191 3500 
L 800 3500 
L 1894 563 
L 2988 3500 
L 3597 3500 
L 2284 0 
L 1503 0 
L 191 3500 
z
" transform="scale(0.015625)"/>
       <path id="DejaVuSans-66" d="M 2375 4863 
L 2375 4384 
L 1825 4384 
Q 1516 4384 1395 4259 
Q 1275 4134 1275 3809 
L 1275 3500 
L 2222 3500 
L 2222 3053 
L 1275 3053 
L 1275 0 
L 697 0 
L 697 3053 
L 147 3053 
L 147 3500 
L 697 3500 
L 697 3744 
Q 697 4328 969 4595 
Q 1241 4863 1831 4863 
L 2375 4863 
z
" transform="scale(0.015625)"/>
       <path id="DejaVuSans-25" d="M 4653 2053 
Q 4381 2053 4226 1822 
Q 4072 1591 4072 1178 
Q 4072 772 4226 539 
Q 4381 306 4653 306 
Q 4919 306 5073 539 
Q 5228 772 5228 1178 
Q 5228 1588 5073 1820 
Q 4919 2053 4653 2053 
z
M 4653 2450 
Q 5147 2450 5437 2106 
Q 5728 1763 5728 1178 
Q 5728 594 5436 251 
Q 5144 -91 4653 -91 
Q 4153 -91 3862 251 
Q 3572 594 3572 1178 
Q 3572 1766 3864 2108 
Q 4156 2450 4653 2450 
z
M 1428 4353 
Q 1159 4353 1004 4120 
Q 850 3888 850 3481 
Q 850 3069 1003 2837 
Q 1156 2606 1428 2606 
Q 1700 2606 1854 2837 
Q 2009 3069 2009 3481 
Q 2009 3884 1853 4118 
Q 1697 4353 1428 4353 
z
M 4250 4750 
L 4750 4750 
L 1831 -91 
L 1331 -91 
L 4250 4750 
z
M 1428 4750 
Q 1922 4750 2215 4408 
Q 2509 4066 2509 3481 
Q 2509 2891 2217 2550 
Q 1925 2209 1428 2209 
Q 931 2209 642 2551 
Q 353 2894 353 3481 
Q 353 4063 643 4406 
Q 934 4750 1428 4750 
z
" transform="scale(0.015625)"/>
      </defs>
      <use xlink:href="#DejaVuSans-4f"/>
      <use xlink:href="#DejaVuSans-62" transform="translate(78.710938 0)"/>
      <use xlink:href="#DejaVuSans-73" transform="translate(142.1875 0)"/>
      <use xlink:href="#DejaVuSans-65" transform="translate(194.287109 0)"/>
      <use xlink:href="#DejaVuSans-72" transform="translate(255.810547 0)"/>
      <use xlink:href="#DejaVuSans-76" transform="translate(296.923828 0)"/>
      <use xlink:href="#DejaVuSans-61" transform="translate(356.103516 0)"/>
      <use xlink:href="#DejaVuSans-74" transform="translate(417.382812 0)"/>
      <use xlink:href="#DejaVuSans-69" transform="translate(456.591797 0)"/>
      <use xlink:href="#DejaVuSans-6f" transform="translate(484.375 0)"/>
      <use xlink:href="#DejaVuSans-6e" transform="translate(545.556641 0)"/>
      <use xlink:href="#DejaVuSans-20" transform="translate(608.935547 0)"/>
      <use xlink:href="#DejaVuSans-66" transform="translate(640.722656 0)"/>
      <use xlink:href="#DejaVuSans-72" transform="translate(675.927734 0)"/>
      <use xlink:href="#DejaVuSans-61" transform="translate(717.041016 0)"/>
      <use xlink:href="#DejaVuSans-63" transform="translate(778.320312 0)"/>
      <use xlink:href="#DejaVuSans-74" transform="translate(833.300781 0)"/>
      <use xlink:href="#DejaVuSans-69" transform="translate(872.509766 0)"/>
      <use xlink:href="#DejaVuSans-6f" transform="translate(900.292969 0)"/>
      <use xlink:href="#DejaVuSans-6e" transform="translate(961.474609 0)"/>
      <use xlink:href="#DejaVuSans-20" transform="translate(1024.853516 0)"/>
      <use xlink:href="#DejaVuSans-28" transform="translate(1056.640625 0)"/>
      <use xlink:href="#DejaVuSans-25" transform="translate(1095.654297 0)"/>
      <use xlink:href="#DejaVuSans-29" transform="translate(1190.673828 0)"/>
     </g>
    </g>
   </g>
   <g id="matplotlib.axis_4">
    <g id="ytick_7">
     <g id="line2d_21">
      <g>
       <use xlink:href="#m9d610e13d2" x="199.928636" y="142.933484" style="stroke: #000000; stroke-width: 0.6"/>
      </g>
     </g>
     <g id="text_23">
      <!-- 0.0 -->
      <g transform="translate(186.886761 145.213016) scale(0.06 -0.06)">
       <use xlink:href="#DejaVuSans-30"/>
       <use xlink:href="#DejaVuSans-2e" transform="translate(63.623047 0)"/>
       <use xlink:href="#DejaVuSans-30" transform="translate(95.410156 0)"/>
      </g>
     </g>
    </g>
    <g id="ytick_8">
     <g id="line2d_22">
      <g>
       <use xlink:href="#m9d610e13d2" x="199.928636" y="124.345886" style="stroke: #000000; stroke-width: 0.6"/>
      </g>
     </g>
     <g id="text_24">
      <!-- 0.2 -->
      <g transform="translate(186.886761 126.625417) scale(0.06 -0.06)">
       <use xlink:href="#DejaVuSans-30"/>
       <use xlink:href="#DejaVuSans-2e" transform="translate(63.623047 0)"/>
       <use xlink:href="#DejaVuSans-32" transform="translate(95.410156 0)"/>
      </g>
     </g>
    </g>
    <g id="ytick_9">
     <g id="line2d_23">
      <g>
       <use xlink:href="#m9d610e13d2" x="199.928636" y="105.758287" style="stroke: #000000; stroke-width: 0.6"/>
      </g>
     </g>
     <g id="text_25">
      <!-- 0.4 -->
      <g transform="translate(186.886761 108.037819) scale(0.06 -0.06)">
       <use xlink:href="#DejaVuSans-30"/>
       <use xlink:href="#DejaVuSans-2e" transform="translate(63.623047 0)"/>
       <use xlink:href="#DejaVuSans-34" transform="translate(95.410156 0)"/>
      </g>
     </g>
    </g>
    <g id="ytick_10">
     <g id="line2d_24">
      <g>
       <use xlink:href="#m9d610e13d2" x="199.928636" y="87.170689" style="stroke: #000000; stroke-width: 0.6"/>
      </g>
     </g>
     <g id="text_26">
      <!-- 0.6 -->
      <g transform="translate(186.886761 89.45022) scale(0.06 -0.06)">
       <use xlink:href="#DejaVuSans-30"/>
       <use xlink:href="#DejaVuSans-2e" transform="translate(63.623047 0)"/>
       <use xlink:href="#DejaVuSans-36" transform="translate(95.410156 0)"/>
      </g>
     </g>
    </g>
    <g id="ytick_11">
     <g id="line2d_25">
      <g>
       <use xlink:href="#m9d610e13d2" x="199.928636" y="68.583091" style="stroke: #000000; stroke-width: 0.6"/>
      </g>
     </g>
     <g id="text_27">
      <!-- 0.8 -->
      <g transform="translate(186.886761 70.862622) scale(0.06 -0.06)">
       <use xlink:href="#DejaVuSans-30"/>
       <use xlink:href="#DejaVuSans-2e" transform="translate(63.623047 0)"/>
       <use xlink:href="#DejaVuSans-38" transform="translate(95.410156 0)"/>
      </g>
     </g>
    </g>
    <g id="ytick_12">
     <g id="line2d_26">
      <g>
       <use xlink:href="#m9d610e13d2" x="199.928636" y="49.995492" style="stroke: #000000; stroke-width: 0.6"/>
      </g>
     </g>
     <g id="text_28">
      <!-- 1.0 -->
      <g transform="translate(186.886761 52.275023) scale(0.06 -0.06)">
       <use xlink:href="#DejaVuSans-31"/>
       <use xlink:href="#DejaVuSans-2e" transform="translate(63.623047 0)"/>
       <use xlink:href="#DejaVuSans-30" transform="translate(95.410156 0)"/>
      </g>
     </g>
    </g>
    <g id="text_29">
     <!-- PPC acceptance -->
     <g transform="translate(181.43098 124.424019) rotate(-90) scale(0.07 -0.07)">
      <use xlink:href="#DejaVuSans-50"/>
      <use xlink:href="#DejaVuSans-50" transform="translate(60.302734 0)"/>
      <use xlink:href="#DejaVuSans-43" transform="translate(120.605469 0)"/>
      <use xlink:href="#DejaVuSans-20" transform="translate(190.429688 0)"/>
      <use xlink:href="#DejaVuSans-61" transform="translate(222.216797 0)"/>
      <use xlink:href="#DejaVuSans-63" transform="translate(283.496094 0)"/>
      <use xlink:href="#DejaVuSans-63" transform="translate(338.476562 0)"/>
      <use xlink:href="#DejaVuSans-65" transform="translate(393.457031 0)"/>
      <use xlink:href="#DejaVuSans-70" transform="translate(454.980469 0)"/>
      <use xlink:href="#DejaVuSans-74" transform="translate(518.457031 0)"/>
      <use xlink:href="#DejaVuSans-61" transform="translate(557.666016 0)"/>
      <use xlink:href="#DejaVuSans-6e" transform="translate(618.945312 0)"/>
      <use xlink:href="#DejaVuSans-63" transform="translate(682.324219 0)"/>
      <use xlink:href="#DejaVuSans-65" transform="translate(737.304688 0)"/>
     </g>
    </g>
   </g>
   <g id="line2d_27">
    <path d="M 206.338346 72.347079 
L 213.87918 74.172498 
L 221.420015 77.458408 
L 228.96085 83.3647 
L 236.501685 90.12288 
L 244.04252 93.126054 
L 251.583355 94.900373 
L 259.12419 94.903566 
L 266.665024 94.181141 
L 274.205859 94.2517 
L 281.746694 92.543464 
L 289.287529 90.822499 
L 296.828364 88.495583 
L 304.369199 85.119005 
L 311.910034 82.738128 
L 319.450869 81.330826 
L 326.991703 83.731702 
L 334.532538 85.637212 
" clip-path="url(#pa5071d9865)" style="fill: none; stroke: #8a8a8a; stroke-width: 1.1; stroke-linecap: square"/>
   </g>
   <g id="line2d_28">
    <path d="M 206.338346 72.137969 
L 213.87918 71.693414 
L 221.420015 68.724014 
L 228.96085 65.316768 
L 236.501685 62.071751 
L 244.04252 58.914033 
L 251.583355 57.779585 
L 259.12419 57.56265 
L 266.665024 56.478209 
L 274.205859 56.436956 
L 281.746694 56.938236 
L 289.287529 58.604847 
L 296.828364 58.391202 
L 304.369199 57.646228 
L 311.910034 56.311775 
L 319.450869 56.679076 
L 326.991703 60.999504 
L 334.532538 65.283792 
" clip-path="url(#pa5071d9865)" style="fill: none; stroke: #d6337c; stroke-width: 1.3; stroke-linecap: square"/>
   </g>
   <g id="patch_8">
    <path d="M 199.928636 148.509764 
L 199.928636 44.419213 
" style="fill: none; stroke: #000000; stroke-width: 0.6; stroke-linejoin: miter; stroke-linecap: square"/>
   </g>
   <g id="patch_9">
    <path d="M 340.942248 148.509764 
L 340.942248 44.419213 
" style="fill: none; stroke: #000000; stroke-width: 0.6; stroke-linejoin: miter; stroke-linecap: square"/>
   </g>
   <g id="patch_10">
    <path d="M 199.928636 148.509764 
L 340.942248 148.509764 
" style="fill: none; stroke: #000000; stroke-width: 0.6; stroke-linejoin: miter; stroke-linecap: square"/>
   </g>
   <g id="patch_11">
    <path d="M 199.928636 44.419213 
L 340.942248 44.419213 
" style="fill: none; stroke: #000000; stroke-width: 0.6; stroke-linejoin: miter; stroke-linecap: square"/>
   </g>
   <g id="text_30">
    <!-- Task 2 (10 trajectories) -->
    <g transform="translate(230.223723 38.419213) scale(0.07 -0.07)">
     <use xlink:href="#DejaVuSans-54"/>
     <use xlink:href="#DejaVuSans-61" transform="translate(44.583984 0)"/>
     <use xlink:href="#DejaVuSans-73" transform="translate(105.863281 0)"/>
     <use xlink:href="#DejaVuSans-6b" transform="translate(157.962891 0)"/>
     <use xlink:href="#DejaVuSans-20" transform="translate(215.873047 0)"/>
     <use xlink:href="#DejaVuSans-32" transform="translate(247.660156 0)"/>
     <use xlink:href="#DejaVuSans-20" transform="translate(311.283203 0)"/>
     <use xlink:href="#DejaVuSans-28" transform="translate(343.070312 0)"/>
     <use xlink:href="#DejaVuSans-31" transform="translate(382.083984 0)"/>
     <use xlink:href="#DejaVuSans-30" transform="translate(445.707031 0)"/>
     <use xlink:href="#DejaVuSans-20" transform="translate(509.330078 0)"/>
     <use xlink:href="#DejaVuSans-74" transform="translate(541.117188 0)"/>
     <use xlink:href="#DejaVuSans-72" transform="translate(580.326172 0)"/>
     <use xlink:href="#DejaVuSans-61" transform="translate(621.439453 0)"/>
     <use xlink:href="#DejaVuSans-6a" transform="translate(682.71875 0)"/>
     <use xlink:href="#DejaVuSans-65" transform="translate(710.501953 0)"/>
     <use xlink:href="#DejaVuSans-63" transform="translate(772.025391 0)"/>
     <use xlink:href="#DejaVuSans-74" transform="translate(827.005859 0)"/>
     <use xlink:href="#DejaVuSans-6f" transform="translate(866.214844 0)"/>
     <use xlink:href="#DejaVuSans-72" transform="translate(927.396484 0)"/>
     <use xlink:href="#DejaVuSans-69" transform="translate(968.509766 0)"/>
     <use xlink:href="#DejaVuSans-65" transform="translate(996.292969 0)"/>
     <use xlink:href="#DejaVuSans-73" transform="translate(1057.816406 0)"/>
     <use xlink:href="#DejaVuSans-29" transform="translate(1109.916016 0)"/>
    </g>
   </g>
   <g id="legend_2">
    <g id="line2d_29">
     <path d="M 288.34592 92.02066 
L 293.84592 92.02066 
L 299.34592 92.02066 
" style="fill: none; stroke: #8a8a8a; stroke-width: 1.1; stroke-linecap: square"/>
    </g>
    <g id="text_31">
     <!-- Without GM -->
     <g transform="translate(303.74592 93.94566) scale(0.055 -0.055)">
      <use xlink:href="#DejaVuSans-57"/>
      <use xlink:href="#DejaVuSans-69" transform="translate(96.626953 0)"/>
      <use xlink:href="#DejaVuSans-74" transform="translate(124.410156 0)"/>
      <use xlink:href="#DejaVuSans-68" transform="translate(163.619141 0)"/>
      <use xlink:href="#DejaVuSans-6f" transform="translate(226.998047 0)"/>
      <use xlink:href="#DejaVuSans-75" transform="translate(288.179688 0)"/>
      <use xlink:href="#DejaVuSans-74" transform="translate(351.558594 0)"/>
      <use xlink:href="#DejaVuSans-20" transform="translate(390.767578 0)"/>
      <use xlink:href="#DejaVuSans-47" transform="translate(422.554688 0)"/>
      <use xlink:href="#DejaVuSans-4d" transform="translate(500.044922 0)"/>
     </g>
    </g>
    <g id="line2d_30">
     <path d="M 288.34592 100.093629 
L 293.84592 100.093629 
L 299.34592 100.093629 
" style="fill: none; stroke: #d6337c; stroke-width: 1.3; stroke-linecap: square"/>
    </g>
    <g id="text_32">
     <!-- With GM -->
     <g transform="translate(303.74592 102.018629) scale(0.055 -0.055)">
      <use xlink:href="#DejaVuSans-57"/>
      <use xlink:href="#DejaVuSans-69" transform="translate(96.626953 0)"/>
      <use xlink:href="#DejaVuSans-74" transform="translate(124.410156 0)"/>
      <use xlink:href="#DejaVuSans-68" transform="translate(163.619141 0)"/>
      <use xlink:href="#DejaVuSans-20" transform="translate(226.998047 0)"/>
      <use xlink:href="#DejaVuSans-47" transform="translate(258.785156 0)"/>
      <use xlink:href="#DejaVuSans-4d" transform="translate(336.275391 0)"/>
     </g>
    </g>
   </g>
  </g>
  <g id="axes_3">
   <g id="patch_12">
    <path d="M 368.840709 148.509764 
L 509.854321 148.509764 
L 509.854321 44.419213 
L 368.840709 44.419213 
z
" style="fill: #ffffff"/>
   </g>
   <g id="matplotlib.axis_5">
    <g id="xtick_11">
     <g id="line2d_31">
      <g>
       <use xlink:href="#m87a52c75fd" x="370.324993" y="148.509764" style="stroke: #000000; stroke-width: 0.6"/>
      </g>
     </g>
     <g id="text_33">
      <!-- 0 -->
      <g transform="translate(368.416243 156.568826) scale(0.06 -0.06)">
       <use xlink:href="#DejaVuSans-30"/>
      </g>
     </g>
    </g>
    <g id="xtick_12">
     <g id="line2d_32">
      <g>
       <use xlink:href="#m87a52c75fd" x="396.948917" y="148.509764" style="stroke: #000000; stroke-width: 0.6"/>
      </g>
     </g>
     <g id="text_34">
      <!-- 20 -->
      <g transform="translate(393.131417 156.568826) scale(0.06 -0.06)">
       <use xlink:href="#DejaVuSans-32"/>
       <use xlink:href="#DejaVuSans-30" transform="translate(63.623047 0)"/>
      </g>
     </g>
    </g>
    <g id="xtick_13">
     <g id="line2d_33">
      <g>
       <use xlink:href="#m87a52c75fd" x="423.572841" y="148.509764" style="stroke: #000000; stroke-width: 0.6"/>
      </g>
     </g>
     <g id="text_35">
      <!-- 40 -->
      <g transform="translate(419.755341 156.568826) scale(0.06 -0.06)">
       <use xlink:href="#DejaVuSans-34"/>
       <use xlink:href="#DejaVuSans-30" transform="translate(63.623047 0)"/>
      </g>
     </g>
    </g>
    <g id="xtick_14">
     <g id="line2d_34">
      <g>
       <use xlink:href="#m87a52c75fd" x="450.196764" y="148.509764" style="stroke: #000000; stroke-width: 0.6"/>
      </g>
     </g>
     <g id="text_36">
      <!-- 60 -->
      <g transform="translate(446.379264 156.568826) scale(0.06 -0.06)">
       <use xlink:href="#DejaVuSans-36"/>
       <use xlink:href="#DejaVuSans-30" transform="translate(63.623047 0)"/>
      </g>
     </g>
    </g>
    <g id="xtick_15">
     <g id="line2d_35">
      <g>
       <use xlink:href="#m87a52c75fd" x="476.820688" y="148.509764" style="stroke: #000000; stroke-width: 0.6"/>
      </g>
     </g>
     <g id="text_37">
      <!-- 80 -->
      <g transform="translate(473.003188 156.568826) scale(0.06 -0.06)">
       <use xlink:href="#DejaVuSans-38"/>
       <use xlink:href="#DejaVuSans-30" transform="translate(63.623047 0)"/>
      </g>
     </g>
    </g>
    <g id="xtick_16">
     <g id="line2d_36">
      <g>
       <use xlink:href="#m87a52c75fd" x="503.444612" y="148.509764" style="stroke: #000000; stroke-width: 0.6"/>
      </g>
     </g>
     <g id="text_38">
      <!-- 100 -->
      <g transform="translate(497.718362 156.568826) scale(0.06 -0.06)">
       <use xlink:href="#DejaVuSans-31"/>
       <use xlink:href="#DejaVuSans-30" transform="translate(63.623047 0)"/>
       <use xlink:href="#DejaVuSans-30" transform="translate(127.246094 0)"/>
      </g>
     </g>
    </g>
    <g id="text_39">
     <!-- Observation fraction (%) -->
     <g transform="translate(396.308453 167.135545) scale(0.07 -0.07)">
      <use xlink:href="#DejaVuSans-4f"/>
      <use xlink:href="#DejaVuSans-62" transform="translate(78.710938 0)"/>
      <use xlink:href="#DejaVuSans-73" transform="translate(142.1875 0)"/>
      <use xlink:href="#DejaVuSans-65" transform="translate(194.287109 0)"/>
      <use xlink:href="#DejaVuSans-72" transform="translate(255.810547 0)"/>
      <use xlink:href="#DejaVuSans-76" transform="translate(296.923828 0)"/>
      <use xlink:href="#DejaVuSans-61" transform="translate(356.103516 0)"/>
      <use xlink:href="#DejaVuSans-74" transform="translate(417.382812 0)"/>
      <use xlink:href="#DejaVuSans-69" transform="translate(456.591797 0)"/>
      <use xlink:href="#DejaVuSans-6f" transform="translate(484.375 0)"/>
      <use xlink:href="#DejaVuSans-6e" transform="translate(545.556641 0)"/>
      <use xlink:href="#DejaVuSans-20" transform="translate(608.935547 0)"/>
      <use xlink:href="#DejaVuSans-66" transform="translate(640.722656 0)"/>
      <use xlink:href="#DejaVuSans-72" transform="translate(675.927734 0)"/>
      <use xlink:href="#DejaVuSans-61" transform="translate(717.041016 0)"/>
      <use xlink:href="#DejaVuSans-63" transform="translate(778.320312 0)"/>
      <use xlink:href="#DejaVuSans-74" transform="translate(833.300781 0)"/>
      <use xlink:href="#DejaVuSans-69" transform="translate(872.509766 0)"/>
      <use xlink:href="#DejaVuSans-6f" transform="translate(900.292969 0)"/>
      <use xlink:href="#DejaVuSans-6e" transform="translate(961.474609 0)"/>
      <use xlink:href="#DejaVuSans-20" transform="translate(1024.853516 0)"/>
      <use xlink:href="#DejaVuSans-28" transform="translate(1056.640625 0)"/>
      <use xlink:href="#DejaVuSans-25" transform="translate(1095.654297 0)"/>
      <use xlink:href="#DejaVuSans-29" transform="translate(1190.673828 0)"/>
     </g>
    </g>
   </g>
   <g id="matplotlib.axis_6">
    <g id="ytick_13">
     <g id="line2d_37">
      <g>
       <use xlink:href="#m9d610e13d2" x="368.840709" y="142.933484" style="stroke: #000000; stroke-width: 0.6"/>
      </g>
     </g>
     <g id="text_40">
      <!-- 0.0 -->
      <g transform="translate(355.798834 145.213016) scale(0.06 -0.06)">
       <use xlink:href="#DejaVuSans-30"/>
       <use xlink:href="#DejaVuSans-2e" transform="translate(63.623047 0)"/>
       <use xlink:href="#DejaVuSans-30" transform="translate(95.410156 0)"/>
      </g>
     </g>
    </g>
    <g id="ytick_14">
     <g id="line2d_38">
      <g>
       <use xlink:href="#m9d610e13d2" x="368.840709" y="124.345886" style="stroke: #000000; stroke-width: 0.6"/>
      </g>
     </g>
     <g id="text_41">
      <!-- 0.2 -->
      <g transform="translate(355.798834 126.625417) scale(0.06 -0.06)">
       <use xlink:href="#DejaVuSans-30"/>
       <use xlink:href="#DejaVuSans-2e" transform="translate(63.623047 0)"/>
       <use xlink:href="#DejaVuSans-32" transform="translate(95.410156 0)"/>
      </g>
     </g>
    </g>
    <g id="ytick_15">
     <g id="line2d_39">
      <g>
       <use xlink:href="#m9d610e13d2" x="368.840709" y="105.758287" style="stroke: #000000; stroke-width: 0.6"/>
      </g>
     </g>
     <g id="text_42">
      <!-- 0.4 -->
      <g transform="translate(355.798834 108.037819) scale(0.06 -0.06)">
       <use xlink:href="#DejaVuSans-30"/>
       <use xlink:href="#DejaVuSans-2e" transform="translate(63.623047 0)"/>
       <use xlink:href="#DejaVuSans-34" transform="translate(95.410156 0)"/>
      </g>
     </g>
    </g>
    <g id="ytick_16">
     <g id="line2d_40">
      <g>
       <use xlink:href="#m9d610e13d2" x="368.840709" y="87.170689" style="stroke: #000000; stroke-width: 0.6"/>
      </g>
     </g>
     <g id="text_43">
      <!-- 0.6 -->
      <g transform="translate(355.798834 89.45022) scale(0.06 -0.06)">
       <use xlink:href="#DejaVuSans-30"/>
       <use xlink:href="#DejaVuSans-2e" transform="translate(63.623047 0)"/>
       <use xlink:href="#DejaVuSans-36" transform="translate(95.410156 0)"/>
      </g>
     </g>
    </g>
    <g id="ytick_17">
     <g id="line2d_41">
      <g>
       <use xlink:href="#m9d610e13d2" x="368.840709" y="68.583091" style="stroke: #000000; stroke-width: 0.6"/>
      </g>
     </g>
     <g id="text_44">
      <!-- 0.8 -->
      <g transform="translate(355.798834 70.862622) scale(0.06 -0.06)">
       <use xlink:href="#DejaVuSans-30"/>
       <use xlink:href="#DejaVuSans-2e" transform="translate(63.623047 0)"/>
       <use xlink:href="#DejaVuSans-38" transform="translate(95.410156 0)"/>
      </g>
     </g>
    </g>
    <g id="ytick_18">
     <g id="line2d_42">
      <g>
       <use xlink:href="#m9d610e13d2" x="368.840709" y="49.995492" style="stroke: #000000; stroke-width: 0.6"/>
      </g>
     </g>
     <g id="text_45">
      <!-- 1.0 -->
      <g transform="translate(355.798834 52.275023) scale(0.06 -0.06)">
       <use xlink:href="#DejaVuSans-31"/>
       <use xlink:href="#DejaVuSans-2e" transform="translate(63.623047 0)"/>
       <use xlink:href="#DejaVuSans-30" transform="translate(95.410156 0)"/>
      </g>
     </g>
    </g>
    <g id="text_46">
     <!-- PPC acceptance -->
     <g transform="translate(350.343053 124.424019) rotate(-90) scale(0.07 -0.07)">
      <use xlink:href="#DejaVuSans-50"/>
      <use xlink:href="#DejaVuSans-50" transform="translate(60.302734 0)"/>
      <use xlink:href="#DejaVuSans-43" transform="translate(120.605469 0)"/>
      <use xlink:href="#DejaVuSans-20" transform="translate(190.429688 0)"/>
      <use xlink:href="#DejaVuSans-61" transform="translate(222.216797 0)"/>
      <use xlink:href="#DejaVuSans-63" transform="translate(283.496094 0)"/>
      <use xlink:href="#DejaVuSans-63" transform="translate(338.476562 0)"/>
      <use xlink:href="#DejaVuSans-65" transform="translate(393.457031 0)"/>
      <use xlink:href="#DejaVuSans-70" transform="translate(454.980469 0)"/>
      <use xlink:href="#DejaVuSans-74" transform="translate(518.457031 0)"/>
      <use xlink:href="#DejaVuSans-61" transform="translate(557.666016 0)"/>
      <use xlink:href="#DejaVuSans-6e" transform="translate(618.945312 0)"/>
      <use xlink:href="#DejaVuSans-63" transform="translate(682.324219 0)"/>
      <use xlink:href="#DejaVuSans-65" transform="translate(737.304688 0)"/>
     </g>
    </g>
   </g>
   <g id="line2d_43">
    <path d="M 375.916017 142.933484 
L 381.373922 111.954154 
L 386.964946 54.642392 
L 392.42285 64.122067 
L 392.55597 61.612741 
L 398.013874 66.631393 
L 398.146993 74.902874 
L 403.604898 66.786289 
L 409.062802 62.774466 
L 409.195922 49.995492 
L 414.653826 69.605408 
L 414.786946 49.995492 
L 420.111731 73.22999 
L 420.37797 89.958829 
L 425.702755 71.278292 
L 425.835874 49.995492 
L 431.160659 142.747608 
L 431.293778 49.995492 
L 431.426898 87.914193 
L 436.751683 118.397854 
L 437.017922 80.479154 
L 442.342707 117.979633 
L 442.608946 82.988479 
L 447.800611 68.118401 
L 448.06685 78.80627 
L 453.391635 82.895541 
L 453.657874 75.55344 
L 458.84954 82.709665 
L 458.982659 71.37123 
L 459.248898 72.114734 
L 464.440564 74.345246 
L 464.839922 71.83592 
L 470.031587 73.090583 
L 470.297827 74.902874 
L 475.489492 72.440017 
L 475.888851 71.37123 
L 481.080516 72.7653 
L 481.479875 75.274626 
L 486.53842 73.415866 
L 486.67154 79.549774 
L 487.070899 75.832254 
L 492.129444 74.019963 
L 492.528803 76.204006 
L 497.587349 69.047781 
L 497.720468 49.995492 
L 498.119827 92.282279 
L 503.178372 65.702013 
L 503.444612 89.649035 
" clip-path="url(#pba0c63083b)" style="fill: none; stroke: #d6337c; stroke-linecap: square"/>
   </g>
   <g id="line2d_44">
    <path d="M 375.916017 142.933484 
L 381.373922 142.933484 
L 386.964946 142.933484 
L 392.42285 142.933484 
L 392.55597 142.933484 
L 398.013874 142.933484 
L 398.146993 142.933484 
L 403.604898 142.933484 
L 409.062802 142.933484 
L 409.195922 142.933484 
L 414.653826 142.933484 
L 414.786946 142.933484 
L 420.111731 142.933484 
L 420.37797 142.933484 
L 425.702755 142.933484 
L 425.835874 142.933484 
L 431.160659 142.933484 
L 431.293778 142.933484 
L 431.426898 142.933484 
L 436.751683 142.933484 
L 437.017922 142.933484 
L 442.342707 142.933484 
L 442.608946 142.933484 
L 447.800611 142.933484 
L 448.06685 142.933484 
L 453.391635 142.933484 
L 453.657874 130.665669 
L 458.84954 142.933484 
L 458.982659 142.933484 
L 459.248898 113.193327 
L 464.440564 137.450143 
L 464.839922 116.910846 
L 470.031587 121.185994 
L 470.297827 122.487126 
L 475.489492 115.888529 
L 475.888851 127.319902 
L 481.080516 119.466641 
L 481.479875 129.178661 
L 486.53842 120.44249 
L 486.67154 118.304916 
L 487.070899 129.457475 
L 492.129444 117.933164 
L 492.528803 127.134026 
L 497.587349 106.873543 
L 497.720468 128.249281 
L 498.119827 127.598716 
L 503.178372 118.909013 
L 503.444612 126.824232 
" clip-path="url(#pba0c63083b)" style="fill: none; stroke-dasharray: 1.6,1.6; stroke-dashoffset: 0; stroke: #d6337c; stroke-opacity: 0.7; stroke-width: 0.8"/>
   </g>
   <g id="line2d_45">
    <path d="M 375.782898 49.995492 
L 375.916017 50.08843 
L 381.373922 49.995492 
L 381.507041 50.181368 
L 386.831826 49.995492 
L 386.964946 58.266973 
L 392.42285 49.995492 
L 392.55597 55.107082 
L 397.880754 73.22999 
L 398.013874 57.244656 
L 398.146993 70.44185 
L 403.338659 52.969508 
L 403.604898 53.713012 
L 403.738017 89.958829 
L 408.929683 50.924872 
L 409.195922 65.097916 
L 414.387587 50.460182 
L 414.653826 51.668376 
L 414.786946 74.345246 
L 419.845491 49.995492 
L 420.24485 50.460182 
L 420.37797 61.612741 
L 425.436515 49.995492 
L 425.835874 49.995492 
L 425.968994 54.177702 
L 430.89442 49.995492 
L 431.426898 49.995492 
L 436.485444 51.854252 
L 436.884802 49.995492 
L 437.017922 49.995492 
L 441.943348 53.248322 
L 442.475826 49.995492 
L 442.608946 49.995492 
L 447.401252 57.616407 
L 448.06685 49.995492 
L 448.19997 51.110748 
L 452.992276 51.668376 
L 453.524755 62.820935 
L 453.657874 51.389562 
L 458.450181 54.177702 
L 459.115779 49.995492 
L 459.248898 55.757648 
L 463.908085 49.995492 
L 464.706803 49.995492 
L 464.839922 70.255974 
L 469.499109 49.995492 
L 470.164707 49.995492 
L 470.430946 73.973494 
L 474.957013 49.995492 
L 475.755731 63.750315 
L 475.888851 49.995492 
L 480.548037 50.181368 
L 481.346755 49.995492 
L 481.479875 94.791604 
L 486.005942 49.995492 
L 486.804659 57.616407 
L 487.070899 88.285945 
L 491.463846 49.995492 
L 492.395683 49.995492 
L 492.661923 86.241309 
L 497.05487 49.995492 
L 497.986707 49.995492 
L 498.119827 76.94751 
L 502.512774 49.995492 
L 503.444612 50.243327 
" clip-path="url(#pba0c63083b)" style="fill: none; stroke: #2e6fae; stroke-linecap: square"/>
   </g>
   <g id="line2d_46">
    <path d="M 375.782898 49.995492 
L 375.916017 95.163356 
L 381.373922 115.423839 
L 381.507041 49.995492 
L 386.831826 132.245615 
L 386.964946 96.696833 
L 392.42285 124.345886 
L 392.55597 98.323248 
L 397.880754 66.259641 
L 398.013874 132.245615 
L 398.146993 86.984813 
L 403.338659 72.30061 
L 403.604898 73.22999 
L 403.738017 136.427825 
L 408.929683 142.933484 
L 409.195922 97.068585 
L 414.387587 142.933484 
L 414.653826 50.924872 
L 414.786946 142.933484 
L 419.845491 142.933484 
L 420.24485 54.456516 
L 420.37797 142.18998 
L 425.436515 142.933484 
L 425.835874 112.078071 
L 425.968994 95.813922 
L 430.89442 142.933484 
L 431.426898 97.30093 
L 436.485444 141.074724 
L 436.884802 142.933484 
L 437.017922 66.259641 
L 441.943348 71.37123 
L 442.475826 142.933484 
L 442.608946 125.08939 
L 447.401252 51.668376 
L 448.06685 142.933484 
L 448.19997 140.145344 
L 452.992276 50.460182 
L 453.524755 142.933484 
L 453.657874 118.58373 
L 458.450181 55.571772 
L 459.115779 142.933484 
L 459.248898 119.698986 
L 463.908085 50.460182 
L 464.706803 142.933484 
L 464.839922 133.825561 
L 469.499109 50.181368 
L 470.164707 142.933484 
L 470.430946 136.892515 
L 474.957013 49.995492 
L 475.755731 142.933484 
L 475.888851 142.747608 
L 480.548037 50.460182 
L 481.346755 142.933484 
L 481.479875 142.933484 
L 486.005942 49.995492 
L 486.804659 142.933484 
L 487.070899 142.933484 
L 491.463846 49.995492 
L 492.395683 72.486486 
L 492.661923 142.933484 
L 497.05487 49.995492 
L 497.986707 74.902874 
L 498.119827 142.933484 
L 502.512774 49.995492 
L 503.444612 93.893204 
" clip-path="url(#pba0c63083b)" style="fill: none; stroke-dasharray: 1.6,1.6; stroke-dashoffset: 0; stroke: #2e6fae; stroke-opacity: 0.7; stroke-width: 0.8"/>
   </g>
   <g id="line2d_47">
    <path d="M 375.649778 65.702013 
L 375.782898 49.995492 
L 380.841443 72.114734 
L 380.974563 63.471501 
L 381.240802 56.965842 
L 386.166228 56.687028 
L 386.299347 56.965842 
L 386.698706 58.824601 
L 391.357893 57.616407 
L 391.491013 53.898888 
L 392.156611 54.642392 
L 396.682678 54.177702 
L 396.815797 52.597756 
L 397.614515 55.571772 
L 402.007462 55.571772 
L 402.140582 54.177702 
L 403.072419 57.895221 
L 407.199128 57.430531 
L 407.465367 55.107082 
L 408.530324 56.687028 
L 412.523912 56.036462 
L 412.790152 57.244656 
L 413.988228 65.980827 
L 417.715577 58.359911 
L 418.114936 61.333927 
L 419.446132 65.330261 
L 423.040362 61.333927 
L 423.306601 63.006811 
L 424.904037 61.612741 
L 428.365147 62.077431 
L 428.631386 67.653711 
L 430.361941 58.824601 
L 433.556812 62.263307 
L 433.956171 60.683361 
L 435.819846 56.965842 
L 438.881597 61.612741 
L 439.280956 60.683361 
L 441.27775 56.687028 
L 444.206381 56.501152 
L 444.60574 57.616407 
L 446.735654 56.315276 
L 449.398047 55.571772 
L 449.930525 59.103415 
L 452.193559 52.318942 
L 454.722831 55.757648 
L 455.12219 56.687028 
L 457.651463 51.110748 
L 459.914496 55.757648 
L 460.446975 56.315276 
L 463.109367 49.995492 
L 465.239281 53.713012 
L 465.77176 59.289291 
L 468.700391 50.738996 
L 470.564066 52.318942 
L 471.096544 56.687028 
L 474.158296 52.040128 
L 475.755731 54.177702 
L 476.421329 56.687028 
L 479.6162 57.616407 
L 481.080516 51.854252 
L 481.746114 58.174035 
L 485.074104 72.30061 
L 486.272181 52.597756 
L 486.937779 56.687028 
L 490.532009 49.995492 
L 491.596966 60.683361 
L 492.262564 55.571772 
L 495.989913 49.995492 
L 496.92175 82.337913 
L 497.587349 55.107082 
L 501.447817 49.995492 
L 502.113416 96.278612 
L 502.779014 65.794951 
L 502.912133 55.20002 
L 503.045253 49.995492 
" clip-path="url(#pba0c63083b)" style="fill: none; stroke: #b8a11e; stroke-linecap: square"/>
   </g>
   <g id="line2d_48">
    <path d="M 375.649778 100.321415 
L 375.782898 140.145344 
L 380.841443 129.178661 
L 380.974563 94.141038 
L 381.240802 141.2606 
L 386.166228 133.174995 
L 386.299347 97.207992 
L 386.698706 141.074724 
L 391.357893 130.665669 
L 391.491013 95.535108 
L 392.156611 142.468794 
L 396.682678 132.710305 
L 396.815797 103.899528 
L 397.614515 142.468794 
L 402.007462 139.959469 
L 402.140582 112.449823 
L 403.072419 142.933484 
L 407.199128 142.004104 
L 407.465367 131.780925 
L 408.530324 142.933484 
L 412.523912 142.933484 
L 412.790152 140.888848 
L 413.988228 142.933484 
L 417.715577 142.933484 
L 418.114936 142.468794 
L 419.446132 142.933484 
L 423.040362 142.933484 
L 423.306601 142.933484 
L 424.904037 142.933484 
L 428.365147 142.933484 
L 428.631386 142.933484 
L 430.361941 142.933484 
L 433.556812 142.933484 
L 433.956171 142.933484 
L 435.819846 142.933484 
L 438.881597 142.933484 
L 439.280956 142.933484 
L 441.27775 142.747608 
L 444.206381 142.933484 
L 444.60574 142.933484 
L 446.735654 137.821895 
L 449.398047 142.933484 
L 449.930525 142.933484 
L 452.193559 98.509124 
L 454.722831 141.2606 
L 455.12219 142.933484 
L 457.651463 57.430531 
L 459.914496 139.215965 
L 460.446975 141.539414 
L 463.109367 52.783632 
L 465.239281 132.896181 
L 465.77176 140.33122 
L 468.700391 54.642392 
L 470.564066 104.364218 
L 471.096544 140.610034 
L 474.158296 62.820935 
L 475.755731 85.126053 
L 476.421329 137.821895 
L 479.6162 76.48282 
L 481.080516 70.255974 
L 481.746114 134.383189 
L 485.074104 81.408533 
L 486.272181 63.750315 
L 486.937779 126.390522 
L 490.532009 91.817589 
L 491.596966 70.627726 
L 492.262564 121.093056 
L 495.989913 110.591063 
L 496.92175 88.285945 
L 497.587349 116.910846 
L 501.447817 134.104375 
L 502.113416 101.297264 
L 502.779014 109.011117 
L 502.912133 113.51861 
L 503.045253 140.33122 
" clip-path="url(#pba0c63083b)" style="fill: none; stroke-dasharray: 1.6,1.6; stroke-dashoffset: 0; stroke: #b8a11e; stroke-opacity: 0.7; stroke-width: 0.8"/>
   </g>
   <g id="line2d_49">
    <path d="M 375.250419 83.267293 
L 375.649778 54.177702 
L 376.315376 52.597756 
L 380.175845 57.895221 
L 381.107682 54.177702 
L 382.172639 52.040128 
L 385.23439 55.385896 
L 386.432467 52.969508 
L 388.163022 53.527136 
L 390.159816 51.110748 
L 391.890371 56.036462 
L 394.020285 53.898888 
L 395.085242 51.389562 
L 397.215156 55.385896 
L 400.010668 51.250155 
L 402.673061 54.456516 
L 404.936094 49.995492 
L 405.867931 51.110748 
L 407.997845 52.783632 
L 409.99464 50.181368 
L 411.858314 52.040128 
L 413.32263 52.969508 
L 414.920065 50.738996 
L 417.848697 53.248322 
L 418.780534 52.318942 
L 419.845491 52.969508 
L 423.70596 59.103415 
L 424.105319 54.642392 
L 424.770917 51.668376 
L 429.563223 54.828268 
L 429.696343 58.452849 
L 434.621769 50.924872 
L 434.888008 56.315276 
L 435.553606 71.37123 
L 439.680314 50.460182 
L 440.345913 57.244656 
L 441.543989 71.557106 
L 444.60574 49.995492 
L 445.670697 55.571772 
L 447.534372 65.330261 
L 449.531166 49.995492 
L 450.995482 60.962175 
L 453.391635 62.820935 
L 454.456592 49.995492 
L 456.453386 69.326594 
L 459.382018 54.874737 
L 461.778171 65.609075 
L 464.440564 49.995492 
L 465.239281 73.69468 
L 467.236075 57.430531 
L 469.365989 49.995492 
L 471.229664 74.15937 
L 472.56086 50.460182 
L 474.291415 50.738996 
L 477.086927 62.077431 
L 478.018765 49.995492 
L 479.216841 52.969508 
L 483.07731 59.475167 
L 483.343549 49.995492 
L 484.142267 56.965842 
L 488.668334 49.995492 
L 489.067693 59.103415 
L 489.200813 52.783632 
L 494.126238 50.460182 
L 494.924956 58.545787 
L 499.051664 52.969508 
L 499.451023 66.724331 
L 500.915339 56.687028 
L 502.379655 49.995492 
L 502.912133 54.828268 
L 503.045253 49.995492 
" clip-path="url(#pba0c63083b)" style="fill: none; stroke: #5ba053; stroke-linecap: square"/>
   </g>
   <g id="line2d_50">
    <path d="M 375.250419 77.4122 
L 375.649778 53.527136 
L 376.315376 51.854252 
L 380.175845 83.267293 
L 381.107682 53.898888 
L 382.172639 54.828268 
L 385.23439 78.062766 
L 386.432467 60.962175 
L 388.163022 55.107082 
L 390.159816 74.15937 
L 391.890371 58.824601 
L 394.020285 58.824601 
L 395.085242 66.910207 
L 397.215156 61.612741 
L 400.010668 60.590423 
L 402.673061 63.936191 
L 404.936094 63.471501 
L 405.867931 60.404547 
L 407.997845 65.330261 
L 409.99464 80.20034 
L 411.858314 61.891555 
L 413.32263 66.910207 
L 414.920065 97.393868 
L 417.848697 73.044114 
L 418.780534 73.415866 
L 419.845491 106.222977 
L 423.70596 105.572411 
L 424.105319 77.691014 
L 424.770917 94.141038 
L 429.563223 91.631713 
L 429.696343 107.01295 
L 434.621769 58.545787 
L 434.888008 99.066752 
L 435.553606 142.004104 
L 439.680314 54.177702 
L 440.345913 104.364218 
L 441.543989 142.933484 
L 444.60574 50.181368 
L 445.670697 92.003465 
L 447.534372 142.933484 
L 449.531166 49.995492 
L 450.995482 109.011117 
L 453.391635 142.468794 
L 454.456592 49.995492 
L 456.453386 124.810576 
L 459.382018 96.37155 
L 461.778171 128.528095 
L 464.440564 49.995492 
L 465.239281 142.933484 
L 467.236075 114.308583 
L 469.365989 49.995492 
L 471.229664 142.933484 
L 472.56086 65.609075 
L 474.291415 50.181368 
L 477.086927 142.933484 
L 478.018765 50.924872 
L 479.216841 52.040128 
L 483.07731 142.933484 
L 483.343549 49.995492 
L 484.142267 58.174035 
L 488.668334 49.995492 
L 489.067693 142.933484 
L 489.200813 54.828268 
L 494.126238 51.4825 
L 494.924956 141.539414 
L 499.051664 53.527136 
L 499.451023 51.668376 
L 500.915339 138.286585 
L 502.379655 127.134026 
L 502.912133 133.639685 
L 503.045253 116.446156 
" clip-path="url(#pba0c63083b)" style="fill: none; stroke-dasharray: 1.6,1.6; stroke-dashoffset: 0; stroke: #5ba053; stroke-opacity: 0.7; stroke-width: 0.8"/>
   </g>
   <g id="patch_13">
    <path d="M 368.840709 148.509764 
L 368.840709 44.419213 
" style="fill: none; stroke: #000000; stroke-width: 0.6; stroke-linejoin: miter; stroke-linecap: square"/>
   </g>
   <g id="patch_14">
    <path d="M 509.854321 148.509764 
L 509.854321 44.419213 
" style="fill: none; stroke: #000000; stroke-width: 0.6; stroke-linejoin: miter; stroke-linecap: square"/>
   </g>
   <g id="patch_15">
    <path d="M 368.840709 148.509764 
L 509.854321 148.509764 
" style="fill: none; stroke: #000000; stroke-width: 0.6; stroke-linejoin: miter; stroke-linecap: square"/>
   </g>
   <g id="patch_16">
    <path d="M 368.840709 44.419213 
L 509.854321 44.419213 
" style="fill: none; stroke: #000000; stroke-width: 0.6; stroke-linejoin: miter; stroke-linecap: square"/>
   </g>
   <g id="text_47">
    <!-- Task 3 (solid, with GM; dashed, without) -->
    <g transform="translate(379.502203 38.419213) scale(0.06 -0.06)">
     <defs>
      <path id="DejaVuSans-33" d="M 2597 2516 
Q 3050 2419 3304 2112 
Q 3559 1806 3559 1356 
Q 3559 666 3084 287 
Q 2609 -91 1734 -91 
Q 1441 -91 1130 -33 
Q 819 25 488 141 
L 488 750 
Q 750 597 1062 519 
Q 1375 441 1716 441 
Q 2309 441 2620 675 
Q 2931 909 2931 1356 
Q 2931 1769 2642 2001 
Q 2353 2234 1838 2234 
L 1294 2234 
L 1294 2753 
L 1863 2753 
Q 2328 2753 2575 2939 
Q 2822 3125 2822 3475 
Q 2822 3834 2567 4026 
Q 2313 4219 1838 4219 
Q 1578 4219 1281 4162 
Q 984 4106 628 3988 
L 628 4550 
Q 988 4650 1302 4700 
Q 1616 4750 1894 4750 
Q 2613 4750 3031 4423 
Q 3450 4097 3450 3541 
Q 3450 3153 3228 2886 
Q 3006 2619 2597 2516 
z
" transform="scale(0.015625)"/>
      <path id="DejaVuSans-64" d="M 2906 2969 
L 2906 4863 
L 3481 4863 
L 3481 0 
L 2906 0 
L 2906 525 
Q 2725 213 2448 61 
Q 2172 -91 1784 -91 
Q 1150 -91 751 415 
Q 353 922 353 1747 
Q 353 2572 751 3078 
Q 1150 3584 1784 3584 
Q 2172 3584 2448 3432 
Q 2725 3281 2906 2969 
z
M 947 1747 
Q 947 1113 1208 752 
Q 1469 391 1925 391 
Q 2381 391 2643 752 
Q 2906 1113 2906 1747 
Q 2906 2381 2643 2742 
Q 2381 3103 1925 3103 
Q 1469 3103 1208 2742 
Q 947 2381 947 1747 
z
" transform="scale(0.015625)"/>
      <path id="DejaVuSans-2c" d="M 750 794 
L 1409 794 
L 1409 256 
L 897 -744 
L 494 -744 
L 750 256 
L 750 794 
z
" transform="scale(0.015625)"/>
      <path id="DejaVuSans-77" d="M 269 3500 
L 844 3500 
L 1563 769 
L 2278 3500 
L 2956 3500 
L 3675 769 
L 4391 3500 
L 4966 3500 
L 4050 0 
L 3372 0 
L 2619 2869 
L 1863 0 
L 1184 0 
L 269 3500 
z
" transform="scale(0.015625)"/>
      <path id="DejaVuSans-3b" d="M 750 3309 
L 1409 3309 
L 1409 2516 
L 750 2516 
L 750 3309 
z
M 750 794 
L 1409 794 
L 1409 256 
L 897 -744 
L 494 -744 
L 750 256 
L 750 794 
z
" transform="scale(0.015625)"/>
     </defs>
     <use xlink:href="#DejaVuSans-54"/>
     <use xlink:href="#DejaVuSans-61" transform="translate(44.583984 0)"/>
     <use xlink:href="#DejaVuSans-73" transform="translate(105.863281 0)"/>
     <use xlink:href="#DejaVuSans-6b" transform="translate(157.962891 0)"/>
     <use xlink:href="#DejaVuSans-20" transform="translate(215.873047 0)"/>
     <use xlink:href="#DejaVuSans-33" transform="translate(247.660156 0)"/>
     <use xlink:href="#DejaVuSans-20" transform="translate(311.283203 0)"/>
     <use xlink:href="#DejaVuSans-28" transform="translate(343.070312 0)"/>
     <use xlink:href="#DejaVuSans-73" transform="translate(382.083984 0)"/>
     <use xlink:href="#DejaVuSans-6f" transform="translate(434.183594 0)"/>
     <use xlink:href="#DejaVuSans-6c" transform="translate(495.365234 0)"/>
     <use xlink:href="#DejaVuSans-69" transform="translate(523.148438 0)"/>
     <use xlink:href="#DejaVuSans-64" transform="translate(550.931641 0)"/>
     <use xlink:href="#DejaVuSans-2c" transform="translate(614.408203 0)"/>
     <use xlink:href="#DejaVuSans-20" transform="translate(646.195312 0)"/>
     <use xlink:href="#DejaVuSans-77" transform="translate(677.982422 0)"/>
     <use xlink:href="#DejaVuSans-69" transform="translate(759.769531 0)"/>
     <use xlink:href="#DejaVuSans-74" transform="translate(787.552734 0)"/>
     <use xlink:href="#DejaVuSans-68" transform="translate(826.761719 0)"/>
     <use xlink:href="#DejaVuSans-20" transform="translate(890.140625 0)"/>
     <use xlink:href="#DejaVuSans-47" transform="translate(921.927734 0)"/>
     <use xlink:href="#DejaVuSans-4d" transform="translate(999.417969 0)"/>
     <use xlink:href="#DejaVuSans-3b" transform="translate(1085.697266 0)"/>
     <use xlink:href="#DejaVuSans-20" transform="translate(1119.388672 0)"/>
     <use xlink:href="#DejaVuSans-64" transform="translate(1151.175781 0)"/>
     <use xlink:href="#DejaVuSans-61" transform="translate(1214.652344 0)"/>
     <use xlink:href="#DejaVuSans-73" transform="translate(1275.931641 0)"/>
     <use xlink:href="#DejaVuSans-68" transform="translate(1328.03125 0)"/>
     <use xlink:href="#DejaVuSans-65" transform="translate(1391.410156 0)"/>
     <use xlink:href="#DejaVuSans-64" transform="translate(1452.933594 0)"/>
     <use xlink:href="#DejaVuSans-2c" transform="translate(1516.410156 0)"/>
     <use xlink:href="#DejaVuSans-20" transform="translate(1548.197266 0)"/>
     <use xlink:href="#DejaVuSans-77" transform="translate(1579.984375 0)"/>
     <use xlink:href="#DejaVuSans-69" transform="translate(1661.771484 0)"/>
     <use xlink:href="#DejaVuSans-74" transform="translate(1689.554688 0)"/>
     <use xlink:href="#DejaVuSans-68" transform="translate(1728.763672 0)"/>
     <use xlink:href="#DejaVuSans-6f" transform="translate(1792.142578 0)"/>
     <use xlink:href="#DejaVuSans-75" transform="translate(1853.324219 0)"/>
     <use xlink:href="#DejaVuSans-74" transform="translate(1916.703125 0)"/>
     <use xlink:href="#DejaVuSans-29" transform="translate(1955.912109 0)"/>
    </g>
   </g>
   <g id="legend_3">
    <g id="line2d_51">
     <path d="M 466.093759 123.305717 
L 470.393759 123.305717 
L 474.693759 123.305717 
" style="fill: none; stroke: #d6337c; stroke-linecap: square"/>
    </g>
    <g id="text_48">
     <!-- KCoHCF 87% -->
     <g transform="translate(478.133759 124.810717) scale(0.043 -0.043)">
      <defs>
       <path id="DejaVuSans-4b" d="M 628 4666 
L 1259 4666 
L 1259 2694 
L 3353 4666 
L 4166 4666 
L 1850 2491 
L 4331 0 
L 3500 0 
L 1259 2247 
L 1259 0 
L 628 0 
L 628 4666 
z
" transform="scale(0.015625)"/>
       <path id="DejaVuSans-48" d="M 628 4666 
L 1259 4666 
L 1259 2753 
L 3553 2753 
L 3553 4666 
L 4184 4666 
L 4184 0 
L 3553 0 
L 3553 2222 
L 1259 2222 
L 1259 0 
L 628 0 
L 628 4666 
z
" transform="scale(0.015625)"/>
       <path id="DejaVuSans-46" d="M 628 4666 
L 3309 4666 
L 3309 4134 
L 1259 4134 
L 1259 2759 
L 3109 2759 
L 3109 2228 
L 1259 2228 
L 1259 0 
L 628 0 
L 628 4666 
z
" transform="scale(0.015625)"/>
       <path id="DejaVuSans-37" d="M 525 4666 
L 3525 4666 
L 3525 4397 
L 1831 0 
L 1172 0 
L 2766 4134 
L 525 4134 
L 525 4666 
z
" transform="scale(0.015625)"/>
      </defs>
      <use xlink:href="#DejaVuSans-4b"/>
      <use xlink:href="#DejaVuSans-43" transform="translate(60.076172 0)"/>
      <use xlink:href="#DejaVuSans-6f" transform="translate(129.900391 0)"/>
      <use xlink:href="#DejaVuSans-48" transform="translate(191.082031 0)"/>
      <use xlink:href="#DejaVuSans-43" transform="translate(266.277344 0)"/>
      <use xlink:href="#DejaVuSans-46" transform="translate(336.101562 0)"/>
      <use xlink:href="#DejaVuSans-20" transform="translate(393.621094 0)"/>
      <use xlink:href="#DejaVuSans-38" transform="translate(425.408203 0)"/>
      <use xlink:href="#DejaVuSans-37" transform="translate(489.03125 0)"/>
      <use xlink:href="#DejaVuSans-25" transform="translate(552.654297 0)"/>
     </g>
    </g>
    <g id="line2d_52">
     <path d="M 466.093759 129.617311 
L 470.393759 129.617311 
L 474.693759 129.617311 
" style="fill: none; stroke: #2e6fae; stroke-linecap: square"/>
    </g>
    <g id="text_49">
     <!-- KCoHCF 90% -->
     <g transform="translate(478.133759 131.122311) scale(0.043 -0.043)">
      <defs>
       <path id="DejaVuSans-39" d="M 703 97 
L 703 672 
Q 941 559 1184 500 
Q 1428 441 1663 441 
Q 2288 441 2617 861 
Q 2947 1281 2994 2138 
Q 2813 1869 2534 1725 
Q 2256 1581 1919 1581 
Q 1219 1581 811 2004 
Q 403 2428 403 3163 
Q 403 3881 828 4315 
Q 1253 4750 1959 4750 
Q 2769 4750 3195 4129 
Q 3622 3509 3622 2328 
Q 3622 1225 3098 567 
Q 2575 -91 1691 -91 
Q 1453 -91 1209 -44 
Q 966 3 703 97 
z
M 1959 2075 
Q 2384 2075 2632 2365 
Q 2881 2656 2881 3163 
Q 2881 3666 2632 3958 
Q 2384 4250 1959 4250 
Q 1534 4250 1286 3958 
Q 1038 3666 1038 3163 
Q 1038 2656 1286 2365 
Q 1534 2075 1959 2075 
z
" transform="scale(0.015625)"/>
      </defs>
      <use xlink:href="#DejaVuSans-4b"/>
      <use xlink:href="#DejaVuSans-43" transform="translate(60.076172 0)"/>
      <use xlink:href="#DejaVuSans-6f" transform="translate(129.900391 0)"/>
      <use xlink:href="#DejaVuSans-48" transform="translate(191.082031 0)"/>
      <use xlink:href="#DejaVuSans-43" transform="translate(266.277344 0)"/>
      <use xlink:href="#DejaVuSans-46" transform="translate(336.101562 0)"/>
      <use xlink:href="#DejaVuSans-20" transform="translate(393.621094 0)"/>
      <use xlink:href="#DejaVuSans-39" transform="translate(425.408203 0)"/>
      <use xlink:href="#DejaVuSans-30" transform="translate(489.03125 0)"/>
      <use xlink:href="#DejaVuSans-25" transform="translate(552.654297 0)"/>
     </g>
    </g>
    <g id="line2d_53">
     <path d="M 466.093759 135.928904 
L 470.393759 135.928904 
L 474.693759 135.928904 
" style="fill: none; stroke: #b8a11e; stroke-linecap: square"/>
    </g>
    <g id="text_50">
     <!-- Urea 86% -->
     <g transform="translate(478.133759 137.433904) scale(0.043 -0.043)">
      <defs>
       <path id="DejaVuSans-55" d="M 556 4666 
L 1191 4666 
L 1191 1831 
Q 1191 1081 1462 751 
Q 1734 422 2344 422 
Q 2950 422 3222 751 
Q 3494 1081 3494 1831 
L 3494 4666 
L 4128 4666 
L 4128 1753 
Q 4128 841 3676 375 
Q 3225 -91 2344 -91 
Q 1459 -91 1007 375 
Q 556 841 556 1753 
L 556 4666 
z
" transform="scale(0.015625)"/>
      </defs>
      <use xlink:href="#DejaVuSans-55"/>
      <use xlink:href="#DejaVuSans-72" transform="translate(73.193359 0)"/>
      <use xlink:href="#DejaVuSans-65" transform="translate(112.056641 0)"/>
      <use xlink:href="#DejaVuSans-61" transform="translate(173.580078 0)"/>
      <use xlink:href="#DejaVuSans-20" transform="translate(234.859375 0)"/>
      <use xlink:href="#DejaVuSans-38" transform="translate(266.646484 0)"/>
      <use xlink:href="#DejaVuSans-36" transform="translate(330.269531 0)"/>
      <use xlink:href="#DejaVuSans-25" transform="translate(393.892578 0)"/>
     </g>
    </g>
    <g id="line2d_54">
     <path d="M 466.093759 142.240498 
L 470.393759 142.240498 
L 474.693759 142.240498 
" style="fill: none; stroke: #5ba053; stroke-linecap: square"/>
    </g>
    <g id="text_51">
     <!-- Urea 90% -->
     <g transform="translate(478.133759 143.745498) scale(0.043 -0.043)">
      <use xlink:href="#DejaVuSans-55"/>
      <use xlink:href="#DejaVuSans-72" transform="translate(73.193359 0)"/>
      <use xlink:href="#DejaVuSans-65" transform="translate(112.056641 0)"/>
      <use xlink:href="#DejaVuSans-61" transform="translate(173.580078 0)"/>
      <use xlink:href="#DejaVuSans-20" transform="translate(234.859375 0)"/>
      <use xlink:href="#DejaVuSans-39" transform="translate(266.646484 0)"/>
      <use xlink:href="#DejaVuSans-30" transform="translate(330.269531 0)"/>
      <use xlink:href="#DejaVuSans-25" transform="translate(393.892578 0)"/>
     </g>
    </g>
   </g>
  </g>
  <g id="text_52">
   <!-- Extended Data Fig. 10 | Gaussian-mutation ablation: PPC acceptance without vs with GM (mean +/-1 s.d.). -->
   <g transform="translate(93.416001 11.938156) scale(0.062 -0.062)">
    <defs>
     <path id="DejaVuSans-45" d="M 628 4666 
L 3578 4666 
L 3578 4134 
L 1259 4134 
L 1259 2753 
L 3481 2753 
L 3481 2222 
L 1259 2222 
L 1259 531 
L 3634 531 
L 3634 0 
L 628 0 
L 628 4666 
z
" transform="scale(0.015625)"/>
     <path id="DejaVuSans-78" d="M 3513 3500 
L 2247 1797 
L 3578 0 
L 2900 0 
L 1881 1375 
L 863 0 
L 184 0 
L 1544 1831 
L 300 3500 
L 978 3500 
L 1906 2253 
L 2834 3500 
L 3513 3500 
z
" transform="scale(0.015625)"/>
     <path id="DejaVuSans-44" d="M 1259 4147 
L 1259 519 
L 2022 519 
Q 2988 519 3436 956 
Q 3884 1394 3884 2338 
Q 3884 3275 3436 3711 
Q 2988 4147 2022 4147 
L 1259 4147 
z
M 628 4666 
L 1925 4666 
Q 3281 4666 3915 4102 
Q 4550 3538 4550 2338 
Q 4550 1131 3912 565 
Q 3275 0 1925 0 
L 628 0 
L 628 4666 
z
" transform="scale(0.015625)"/>
     <path id="DejaVuSans-67" d="M 2906 1791 
Q 2906 2416 2648 2759 
Q 2391 3103 1925 3103 
Q 1463 3103 1205 2759 
Q 947 2416 947 1791 
Q 947 1169 1205 825 
Q 1463 481 1925 481 
Q 2391 481 2648 825 
Q 2906 1169 2906 1791 
z
M 3481 434 
Q 3481 -459 3084 -895 
Q 2688 -1331 1869 -1331 
Q 1566 -1331 1297 -1286 
Q 1028 -1241 775 -1147 
L 775 -588 
Q 1028 -725 1275 -790 
Q 1522 -856 1778 -856 
Q 2344 -856 2625 -561 
Q 2906 -266 2906 331 
L 2906 616 
Q 2728 306 2450 153 
Q 2172 0 1784 0 
Q 1141 0 747 490 
Q 353 981 353 1791 
Q 353 2603 747 3093 
Q 1141 3584 1784 3584 
Q 2172 3584 2450 3431 
Q 2728 3278 2906 2969 
L 2906 3500 
L 3481 3500 
L 3481 434 
z
" transform="scale(0.015625)"/>
     <path id="DejaVuSans-7c" d="M 1344 4891 
L 1344 -1509 
L 813 -1509 
L 813 4891 
L 1344 4891 
z
" transform="scale(0.015625)"/>
     <path id="DejaVuSans-2d" d="M 313 2009 
L 1997 2009 
L 1997 1497 
L 313 1497 
L 313 2009 
z
" transform="scale(0.015625)"/>
     <path id="DejaVuSans-6d" d="M 3328 2828 
Q 3544 3216 3844 3400 
Q 4144 3584 4550 3584 
Q 5097 3584 5394 3201 
Q 5691 2819 5691 2113 
L 5691 0 
L 5113 0 
L 5113 2094 
Q 5113 2597 4934 2840 
Q 4756 3084 4391 3084 
Q 3944 3084 3684 2787 
Q 3425 2491 3425 1978 
L 3425 0 
L 2847 0 
L 2847 2094 
Q 2847 2600 2669 2842 
Q 2491 3084 2119 3084 
Q 1678 3084 1418 2786 
Q 1159 2488 1159 1978 
L 1159 0 
L 581 0 
L 581 3500 
L 1159 3500 
L 1159 2956 
Q 1356 3278 1631 3431 
Q 1906 3584 2284 3584 
Q 2666 3584 2933 3390 
Q 3200 3197 3328 2828 
z
" transform="scale(0.015625)"/>
     <path id="DejaVuSans-3a" d="M 750 794 
L 1409 794 
L 1409 0 
L 750 0 
L 750 794 
z
M 750 3309 
L 1409 3309 
L 1409 2516 
L 750 2516 
L 750 3309 
z
" transform="scale(0.015625)"/>
     <path id="DejaVuSans-2b" d="M 2944 4013 
L 2944 2272 
L 4684 2272 
L 4684 1741 
L 2944 1741 
L 2944 0 
L 2419 0 
L 2419 1741 
L 678 1741 
L 678 2272 
L 2419 2272 
L 2419 4013 
L 2944 4013 
z
" transform="scale(0.015625)"/>
     <path id="DejaVuSans-2f" d="M 1625 4666 
L 2156 4666 
L 531 -594 
L 0 -594 
L 1625 4666 
z
" transform="scale(0.015625)"/>
    </defs>
    <use xlink:href="#DejaVuSans-45"/>
    <use xlink:href="#DejaVuSans-78" transform="translate(63.183594 0)"/>
    <use xlink:href="#DejaVuSans-74" transform="translate(122.363281 0)"/>
    <use xlink:href="#DejaVuSans-65" transform="translate(161.572266 0)"/>
    <use xlink:href="#DejaVuSans-6e" transform="translate(223.095703 0)"/>
    <use xlink:href="#DejaVuSans-64" transform="translate(286.474609 0)"/>
    <use xlink:href="#DejaVuSans-65" transform="translate(349.951172 0)"/>
    <use xlink:href="#DejaVuSans-64" transform="translate(411.474609 0)"/>
    <use xlink:href="#DejaVuSans-20" transform="translate(474.951172 0)"/>
    <use xlink:href="#DejaVuSans-44" transform="translate(506.738281 0)"/>
    <use xlink:href="#DejaVuSans-61" transform="translate(583.740234 0)"/>
    <use xlink:href="#DejaVuSans-74" transform="translate(645.019531 0)"/>
    <use xlink:href="#DejaVuSans-61" transform="translate(684.228516 0)"/>
    <use xlink:href="#DejaVuSans-20" transform="translate(745.507812 0)"/>
    <use xlink:href="#DejaVuSans-46" transform="translate(777.294922 0)"/>
    <use xlink:href="#DejaVuSans-69" transform="translate(827.564453 0)"/>
    <use xlink:href="#DejaVuSans-67" transform="translate(855.347656 0)"/>
    <use xlink:href="#DejaVuSans-2e" transform="translate(918.824219 0)"/>
    <use xlink:href="#DejaVuSans-20" transform="translate(950.611328 0)"/>
    <use xlink:href="#DejaVuSans-31" transform="translate(982.398438 0)"/>
    <use xlink:href="#DejaVuSans-30" transform="translate(1046.021484 0)"/>
    <use xlink:href="#DejaVuSans-20" transform="translate(1109.644531 0)"/>
    <use xlink:href="#DejaVuSans-7c" transform="translate(1141.431641 0)"/>
    <use xlink:href="#DejaVuSans-20" transform="translate(1175.123047 0)"/>
    <use xlink:href="#DejaVuSans-47" transform="translate(1206.910156 0)"/>
    <use xlink:href="#DejaVuSans-61" transform="translate(1284.400391 0)"/>
    <use xlink:href="#DejaVuSans-75" transform="translate(1345.679688 0)"/>
    <use xlink:href="#DejaVuSans-73" transform="translate(1409.058594 0)"/>
    <use xlink:href="#DejaVuSans-73" transform="translate(1461.158203 0)"/>
    <use xlink:href="#DejaVuSans-69" transform="translate(1513.257812 0)"/>
    <use xlink:href="#DejaVuSans-61" transform="translate(1541.041016 0)"/>
    <use xlink:href="#DejaVuSans-6e" transform="translate(1602.320312 0)"/>
    <use xlink:href="#DejaVuSans-2d" transform="translate(1665.699219 0)"/>
    <use xlink:href="#DejaVuSans-6d" transform="translate(1701.783203 0)"/>
    <use xlink:href="#DejaVuSans-75" transform="translate(1799.195312 0)"/>
    <use xlink:href="#DejaVuSans-74" transform="translate(1862.574219 0)"/>
    <use xlink:href="#DejaVuSans-61" transform="translate(1901.783203 0)"/>
    <use xlink:href="#DejaVuSans-74" transform="translate(1963.0625 0)"/>
    <use xlink:href="#DejaVuSans-69" transform="translate(2002.271484 0)"/>
    <use xlink:href="#DejaVuSans-6f" transform="translate(2030.054688 0)"/>
    <use xlink:href="#DejaVuSans-6e" transform="translate(2091.236328 0)"/>
    <use xlink:href="#DejaVuSans-20" transform="translate(2154.615234 0)"/>
    <use xlink:href="#DejaVuSans-61" transform="translate(2186.402344 0)"/>
    <use xlink:href="#DejaVuSans-62" transform="translate(2247.681641 0)"/>
    <use xlink:href="#DejaVuSans-6c" transform="translate(2311.158203 0)"/>
    <use xlink:href="#DejaVuSans-61" transform="translate(2338.941406 0)"/>
    <use xlink:href="#DejaVuSans-74" transform="translate(2400.220703 0)"/>
    <use xlink:href="#DejaVuSans-69" transform="translate(2439.429688 0)"/>
    <use xlink:href="#DejaVuSans-6f" transform="translate(2467.212891 0)"/>
    <use xlink:href="#DejaVuSans-6e" transform="translate(2528.394531 0)"/>
    <use xlink:href="#DejaVuSans-3a" transform="translate(2591.773438 0)"/>
    <use xlink:href="#DejaVuSans-20" transform="translate(2625.464844 0)"/>
    <use xlink:href="#DejaVuSans-50" transform="translate(2657.251953 0)"/>
    <use xlink:href="#DejaVuSans-50" transform="translate(2717.554688 0)"/>
    <use xlink:href="#DejaVuSans-43" transform="translate(2777.857422 0)"/>
    <use xlink:href="#DejaVuSans-20" transform="translate(2847.681641 0)"/>
    <use xlink:href="#DejaVuSans-61" transform="translate(2879.46875 0)"/>
    <use xlink:href="#DejaVuSans-63" transform="translate(2940.748047 0)"/>
    <use xlink:href="#DejaVuSans-63" transform="translate(2995.728516 0)"/>
    <use xlink:href="#DejaVuSans-65" transform="translate(3050.708984 0)"/>
    <use xlink:href="#DejaVuSans-70" transform="translate(3112.232422 0)"/>
    <use xlink:href="#DejaVuSans-74" transform="translate(3175.708984 0)"/>
    <use xlink:href="#DejaVuSans-61" transform="translate(3214.917969 0)"/>
    <use xlink:href="#DejaVuSans-6e" transform="translate(3276.197266 0)"/>
    <use xlink:href="#DejaVuSans-63" transform="translate(3339.576172 0)"/>
    <use xlink:href="#DejaVuSans-65" transform="translate(3394.556641 0)"/>
    <use xlink:href="#DejaVuSans-20" transform="translate(3456.080078 0)"/>
    <use xlink:href="#DejaVuSans-77" transform="translate(3487.867188 0)"/>
    <use xlink:href="#DejaVuSans-69" transform="translate(3569.654297 0)"/>
    <use xlink:href="#DejaVuSans-74" transform="translate(3597.4375 0)"/>
    <use xlink:href="#DejaVuSans-68" transform="translate(3636.646484 0)"/>
    <use xlink:href="#DejaVuSans-6f" transform="translate(3700.025391 0)"/>
    <use xlink:href="#DejaVuSans-75" transform="translate(3761.207031 0)"/>
    <use xlink:href="#DejaVuSans-74" transform="translate(3824.585938 0)"/>
    <use xlink:href="#DejaVuSans-20" transform="translate(3863.794922 0)"/>
    <use xlink:href="#DejaVuSans-76" transform="translate(3895.582031 0)"/>
    <use xlink:href="#DejaVuSans-73" transform="translate(3954.761719 0)"/>
    <use xlink:href="#DejaVuSans-20" transform="translate(4006.861328 0)"/>
    <use xlink:href="#DejaVuSans-77" transform="translate(4038.648438 0)"/>
    <use xlink:href="#DejaVuSans-69" transform="translate(4120.435547 0)"/>
    <use xlink:href="#DejaVuSans-74" transform="translate(4148.21875 0)"/>
    <use xlink:href="#DejaVuSans-68" transform="translate(4187.427734 0)"/>
    <use xlink:href="#DejaVuSans-20" transform="translate(4250.806641 0)"/>
    <use xlink:href="#DejaVuSans-47" transform="translate(4282.59375 0)"/>
    <use xlink:href="#DejaVuSans-4d" transform="translate(4360.083984 0)"/>
    <use xlink:href="#DejaVuSans-20" transform="translate(4446.363281 0)"/>
    <use xlink:href="#DejaVuSans-28" transform="translate(4478.150391 0)"/>
    <use xlink:href="#DejaVuSans-6d" transform="translate(4517.164062 0)"/>
    <use xlink:href="#DejaVuSans-65" transform="translate(4614.576172 0)"/>
    <use xlink:href="#DejaVuSans-61" transform="translate(4676.099609 0)"/>
    <use xlink:href="#DejaVuSans-6e" transform="translate(4737.378906 0)"/>
    <use xlink:href="#DejaVuSans-20" transform="translate(4800.757812 0)"/>
    <use xlink:href="#DejaVuSans-2b" transform="translate(4832.544922 0)"/>
    <use xlink:href="#DejaVuSans-2f" transform="translate(4916.333984 0)"/>
    <use xlink:href="#DejaVuSans-2d" transform="translate(4950.025391 0)"/>
    <use xlink:href="#DejaVuSans-31" transform="translate(4986.109375 0)"/>
    <use xlink:href="#DejaVuSans-20" transform="translate(5049.732422 0)"/>
    <use xlink:href="#DejaVuSans-73" transform="translate(5081.519531 0)"/>
    <use xlink:href="#DejaVuSans-2e" transform="translate(5133.619141 0)"/>
    <use xlink:href="#DejaVuSans-64" transform="translate(5165.40625 0)"/>
    <use xlink:href="#DejaVuSans-2e" transform="translate(5228.882812 0)"/>
    <use xlink:href="#DejaVuSans-29" transform="translate(5260.669922 0)"/>
    <use xlink:href="#DejaVuSans-2e" transform="translate(5299.683594 0)"/>
   </g>
  </g>
 </g>
 <defs>
  <clipPath id="pe13d4f38b6">
   <rect x="31.016563" y="44.419213" width="141.013612" height="104.090551"/>
  </clipPath>
  <clipPath id="pa5071d9865">
   <rect x="199.928636" y="44.419213" width="141.013612" height="104.090551"/>
  </clipPath>
  <clipPath id="pba0c63083b">
   <rect x="368.840709" y="44.419213" width="141.013612" height="104.090551"/>
  </clipPath>
 </defs>
</svg>
