<?xml version="1.0" encoding="UTF-8"?>
<svg id="Layer_2" data-name="Layer 2" xmlns="http://www.w3.org/2000/svg" xmlns:xlink="http://www.w3.org/1999/xlink" viewBox="0 0 249.45 226.77">
  <defs>
    <style>
      .cls-1 {
        clip-path: url(#clippath-6);
      }

      .cls-2 {
        clip-path: url(#clippath-7);
      }

      .cls-3 {
        clip-path: url(#clippath-4);
      }

      .cls-4, .cls-5, .cls-6, .cls-7, .cls-8, .cls-9, .cls-10, .cls-11, .cls-12, .cls-13, .cls-14, .cls-15, .cls-16, .cls-17, .cls-18, .cls-19 {
        fill: none;
      }

      .cls-4, .cls-5, .cls-6, .cls-7, .cls-8, .cls-10, .cls-11, .cls-12, .cls-13, .cls-14, .cls-16, .cls-18, .cls-19 {
        stroke-linecap: square;
      }

      .cls-4, .cls-5, .cls-6, .cls-7, .cls-8, .cls-10, .cls-11, .cls-13, .cls-14, .cls-15, .cls-16, .cls-17, .cls-18, .cls-20, .cls-19 {
        stroke-linejoin: round;
      }

      .cls-4, .cls-5, .cls-6, .cls-10, .cls-14, .cls-16 {
        stroke-width: .8px;
      }

      .cls-4, .cls-19 {
        stroke: #d6337c;
      }

      .cls-5, .cls-13 {
        stroke: #7b4fa3;
      }

      .cls-21, .cls-22 {
        fill: #d6337c;
      }

      .cls-23 {
        clip-path: url(#clippath-9);
      }

      .cls-6, .cls-8 {
        stroke: #1f9e89;
      }

      .cls-24 {
        clip-path: url(#clippath-10);
      }

      .cls-7, .cls-8, .cls-11, .cls-13, .cls-18, .cls-19 {
        stroke-width: .7px;
      }

      .cls-7, .cls-10 {
        stroke: #b8a11e;
      }

      .cls-25 {
        fill: #fff;
      }

      .cls-26 {
        fill: rgba(214, 51, 124, .16);
      }

      .cls-27 {
        clip-path: url(#clippath-11);
      }

      .cls-28 {
        fill: #1f9e89;
      }

      .cls-29 {
        clip-path: url(#clippath-1);
      }

      .cls-30 {
        fill: #8a8a8a;
      }

      .cls-31 {
        fill: #2e6fae;
      }

      .cls-32 {
        clip-path: url(#clippath-5);
      }

      .cls-33 {
        clip-path: url(#clippath-8);
      }

      .cls-34 {
        clip-path: url(#clippath-3);
      }

      .cls-35 {
        clip-path: url(#clippath-12);
      }

      .cls-11, .cls-16 {
        stroke: #8a8a8a;
      }

      .cls-12, .cls-20 {
        stroke: #000;
        stroke-width: .6px;
      }

      .cls-14, .cls-18 {
        stroke: #2e6fae;
      }

      .cls-15 {
        stroke-dasharray: 5.2 2.6;
        stroke-width: 1.3px;
      }

      .cls-15, .cls-17 {
        stroke: #1a1a1a;
      }

      .cls-22 {
        isolation: isolate;
        opacity: .16;
      }

      .cls-17 {
        stroke-dasharray: 3 2;
      }

      .cls-36 {
        fill: #b8a11e;
      }

      .cls-37 {
        clip-path: url(#clippath-2);
      }

      .cls-38 {
        clip-path: url(#clippath-13);
      }

      .cls-39 {
        clip-path: url(#clippath);
      }

      .cls-40 {
        fill: #7b4fa3;
      }
    </style>
    <clipPath id="clippath">
      <rect class="cls-9" x="27.98" y="21.18" width="220.44" height="180.17"/>
    </clipPath>
    <clipPath id="clippath-1">
      <rect class="cls-9" x="27.98" y="21.18" width="220.44" height="180.17"/>
    </clipPath>
    <clipPath id="clippath-2">
      <rect class="cls-9" x="27.98" y="21.18" width="220.44" height="180.17"/>
    </clipPath>
    <clipPath id="clippath-3">
      <rect class="cls-9" x="27.98" y="21.18" width="220.44" height="180.17"/>
    </clipPath>
    <clipPath id="clippath-4">
      <rect class="cls-9" x="27.98" y="21.18" width="220.44" height="180.17"/>
    </clipPath>
    <clipPath id="clippath-5">
      <rect class="cls-9" x="27.98" y="21.18" width="220.44" height="180.17"/>
    </clipPath>
    <clipPath id="clippath-6">
      <rect class="cls-9" x="27.98" y="21.18" width="220.44" height="180.17"/>
    </clipPath>
    <clipPath id="clippath-7">
      <rect class="cls-9" x="27.98" y="21.18" width="220.44" height="180.17"/>
    </clipPath>
    <clipPath id="clippath-8">
      <rect class="cls-9" x="27.98" y="21.18" width="220.44" height="180.17"/>
    </clipPath>
    <clipPath id="clippath-9">
      <rect class="cls-9" x="27.98" y="21.18" width="220.44" height="180.17"/>
    </clipPath>
    <clipPath id="clippath-10">
      <rect class="cls-9" x="27.98" y="21.18" width="220.44" height="180.17"/>
    </clipPath>
    <clipPath id="clippath-11">
      <rect class="cls-9" x="27.98" y="21.18" width="220.44" height="180.17"/>
    </clipPath>
    <clipPath id="clippath-12">
      <rect class="cls-9" x="27.98" y="21.18" width="220.44" height="180.17"/>
    </clipPath>
    <clipPath id="clippath-13">
      <rect class="cls-9" x="27.98" y="21.18" width="220.44" height="180.17"/>
    </clipPath>
  </defs>
  <g id="Layer_1-2" data-name="Layer 1">
    <g>
      <g id="patch_1" data-name="patch 1">
        <path class="cls-25" d="M0,226.77h249.45V0H0v226.77Z"/>
      </g>
      <g id="text_19" data-name="text 19">
        <g>
          <path id="DejaVuSans-57" d="M81.41,3.84h.7l1.07,4.31,1.07-4.31h.78l1.07,4.31,1.07-4.31h.7l-1.28,5.1h-.87l-1.08-4.43-1.09,4.43h-.87l-1.28-5.1Z"/>
          <path id="DejaVuSans-61" d="M90.05,7.02c-.51,0-.86.06-1.06.17s-.29.31-.29.6c0,.22.07.4.22.53.15.13.35.2.6.2.35,0,.63-.12.84-.37s.32-.58.32-.99v-.14h-.63ZM91.31,6.76v2.18h-.63v-.58c-.14.23-.32.4-.54.51-.21.11-.48.17-.79.17-.39,0-.7-.11-.94-.33-.23-.22-.35-.51-.35-.88,0-.43.14-.75.43-.97.29-.22.72-.33,1.29-.33h.88v-.06c0-.29-.1-.51-.29-.67s-.46-.24-.8-.24c-.22,0-.43.03-.64.08-.21.05-.41.13-.6.24v-.58c.23-.09.45-.16.67-.2.22-.04.43-.07.63-.07.55,0,.97.14,1.24.43.27.29.41.72.41,1.3Z"/>
          <path id="DejaVuSans-6c" d="M92.6,3.63h.63v5.32h-.63V3.63Z"/>
          <path id="DejaVuSans-6b" d="M94.52,3.63h.63v3.14l1.88-1.65h.8l-2.03,1.79,2.12,2.04h-.82l-1.95-1.87v1.87h-.63V3.63Z"/>
          <path id="DejaVuSans-2d" d="M98.28,6.75h1.84v.56h-1.84v-.56Z"/>
          <path id="DejaVuSans-66" d="M103.06,3.63v.52h-.6c-.23,0-.38.05-.47.14-.09.09-.13.26-.13.49v.34h1.04v.49h-1.04v3.34h-.63v-3.34h-.6v-.49h.6v-.27c0-.43.1-.74.3-.93.2-.2.51-.29.94-.29h.6Z"/>
          <path id="DejaVuSans-6f" d="M105.07,5.56c-.34,0-.6.13-.8.39s-.29.62-.29,1.08.1.82.29,1.08c.2.26.46.39.8.39s.6-.13.8-.4c.2-.26.29-.62.29-1.08s-.1-.81-.29-1.08c-.2-.27-.46-.4-.8-.4ZM105.07,5.02c.55,0,.98.18,1.29.53.31.36.47.85.47,1.48s-.16,1.12-.47,1.48c-.31.36-.74.53-1.29.53s-.98-.18-1.29-.53c-.31-.36-.47-.85-.47-1.48s.16-1.12.47-1.48c.31-.36.74-.53,1.29-.53Z"/>
          <path id="DejaVuSans-72" d="M110.09,5.7c-.07-.04-.15-.07-.23-.09-.08-.02-.17-.03-.27-.03-.36,0-.63.12-.82.35s-.29.56-.29,1v2.02h-.63v-3.83h.63v.6c.13-.23.3-.41.52-.52.21-.11.47-.17.77-.17.04,0,.09,0,.14,0,.05,0,.11.01.17.03v.65Z"/>
          <path id="DejaVuSans-77" d="M110.38,5.12h.63l.79,2.99.78-2.99h.74l.79,2.99.78-2.99h.63l-1,3.83h-.74l-.82-3.14-.83,3.14h-.74l-1-3.83Z"/>
          <path id="DejaVuSans-61-2" data-name="DejaVuSans-61" d="M118.22,7.02c-.51,0-.86.06-1.06.17s-.29.31-.29.6c0,.22.07.4.22.53.15.13.35.2.6.2.35,0,.63-.12.84-.37s.32-.58.32-.99v-.14h-.63ZM119.47,6.76v2.18h-.63v-.58c-.14.23-.32.4-.54.51-.21.11-.48.17-.79.17-.39,0-.7-.11-.94-.33-.23-.22-.35-.51-.35-.88,0-.43.14-.75.43-.97.29-.22.72-.33,1.29-.33h.88v-.06c0-.29-.1-.51-.29-.67s-.46-.24-.8-.24c-.22,0-.43.03-.64.08-.21.05-.41.13-.6.24v-.58c.23-.09.45-.16.67-.2.22-.04.43-.07.63-.07.55,0,.97.14,1.24.43.27.29.41.72.41,1.3Z"/>
          <path id="DejaVuSans-72-2" data-name="DejaVuSans-72" d="M122.98,5.7c-.07-.04-.15-.07-.23-.09-.08-.02-.17-.03-.27-.03-.36,0-.63.12-.82.35s-.29.56-.29,1v2.02h-.63v-3.83h.63v.6c.13-.23.3-.41.52-.52.21-.11.47-.17.77-.17.04,0,.09,0,.14,0,.05,0,.11.01.17.03v.65Z"/>
          <path id="DejaVuSans-64" d="M126.04,5.7v-2.07h.63v5.32h-.63v-.57c-.13.23-.3.4-.5.51-.2.11-.44.17-.73.17-.46,0-.84-.18-1.13-.55-.29-.37-.44-.86-.44-1.46s.15-1.09.44-1.46c.29-.37.67-.55,1.13-.55.28,0,.53.06.73.17.2.11.37.28.5.51ZM123.9,7.03c0,.46.1.83.29,1.09.19.26.45.39.78.39s.59-.13.79-.39c.19-.26.29-.63.29-1.09s-.1-.83-.29-1.09c-.19-.26-.45-.39-.79-.39s-.59.13-.78.39-.29.63-.29,1.09Z"/>
          <path id="DejaVuSans-52" d="M132.64,6.55c.15.05.29.16.43.32s.28.39.42.68l.7,1.39h-.74l-.65-1.31c-.17-.34-.33-.57-.49-.68s-.37-.17-.65-.17h-.75v2.16h-.69V3.84h1.56c.58,0,1.02.12,1.31.37.29.24.43.61.43,1.1,0,.32-.07.59-.22.8-.15.21-.37.36-.65.44ZM130.91,4.41v1.81h.87c.33,0,.58-.08.75-.23s.25-.38.25-.68-.08-.52-.25-.67-.42-.23-.75-.23h-.87Z"/>
          <path id="DejaVuSans-55" d="M135,3.84h.69v3.1c0,.55.1.94.3,1.18.2.24.52.36.96.36s.76-.12.96-.36c.2-.24.3-.63.3-1.18v-3.1h.69v3.19c0,.67-.16,1.17-.49,1.51-.33.34-.81.51-1.46.51s-1.13-.17-1.46-.51c-.33-.34-.49-.84-.49-1.51v-3.19Z"/>
          <path id="DejaVuSans-4c" d="M140.2,3.84h.69v4.52h2.49v.58h-3.18V3.84Z"/>
          <path id="DejaVuSans-74" d="M146.92,4.03v1.09h1.3v.49h-1.3v2.08c0,.31.04.51.13.6s.26.13.52.13h.65v.53h-.65c-.49,0-.82-.09-1.01-.27-.18-.18-.28-.51-.28-.99v-2.08h-.46v-.49h.46v-1.09h.63Z"/>
          <path id="DejaVuSans-6f-2" data-name="DejaVuSans-6f" d="M150.53,5.56c-.34,0-.6.13-.8.39s-.29.62-.29,1.08.1.82.29,1.08c.2.26.46.39.8.39s.6-.13.8-.4c.2-.26.29-.62.29-1.08s-.1-.81-.29-1.08c-.2-.27-.46-.4-.8-.4ZM150.53,5.02c.55,0,.98.18,1.29.53.31.36.47.85.47,1.48s-.16,1.12-.47,1.48c-.31.36-.74.53-1.29.53s-.98-.18-1.29-.53c-.31-.36-.47-.85-.47-1.48s.16-1.12.47-1.48c.31-.36.74-.53,1.29-.53Z"/>
          <path id="DejaVuSans-65" d="M158.83,6.87v.31h-2.89c.03.43.16.76.39.99.23.23.56.34.98.34.24,0,.48-.03.7-.09s.45-.15.68-.27v.6c-.23.1-.46.17-.69.22s-.48.08-.72.08c-.61,0-1.09-.18-1.45-.53-.36-.36-.53-.84-.53-1.44s.17-1.12.51-1.49c.34-.37.79-.55,1.37-.55.51,0,.92.17,1.22.5.3.33.45.78.45,1.35ZM158.2,6.69c0-.34-.1-.62-.29-.82-.19-.21-.44-.31-.75-.31-.35,0-.63.1-.84.3s-.33.48-.36.84h2.24Z"/>
          <path id="DejaVuSans-6e" d="M163.04,6.63v2.31h-.63v-2.29c0-.36-.07-.63-.21-.81-.14-.18-.35-.27-.64-.27-.34,0-.61.11-.8.32-.2.22-.29.51-.29.88v2.16h-.63v-3.83h.63v.6c.15-.23.33-.4.53-.52.2-.11.44-.17.71-.17.44,0,.77.14,1,.41.23.27.34.67.34,1.2Z"/>
          <path id="DejaVuSans-64-2" data-name="DejaVuSans-64" d="M166.82,5.7v-2.07h.63v5.32h-.63v-.57c-.13.23-.3.4-.5.51-.2.11-.44.17-.73.17-.46,0-.84-.18-1.13-.55-.29-.37-.44-.86-.44-1.46s.15-1.09.44-1.46c.29-.37.67-.55,1.13-.55.28,0,.53.06.73.17.2.11.37.28.5.51ZM164.67,7.03c0,.46.1.83.29,1.09.19.26.45.39.78.39s.59-.13.79-.39c.19-.26.29-.63.29-1.09s-.1-.83-.29-1.09c-.19-.26-.45-.39-.79-.39s-.59.13-.78.39-.29.63-.29,1.09Z"/>
          <path id="DejaVuSans-2d-2" data-name="DejaVuSans-2d" d="M168.42,6.75h1.84v.56h-1.84v-.56Z"/>
          <path id="DejaVuSans-6f-3" data-name="DejaVuSans-6f" d="M172.88,5.56c-.34,0-.6.13-.8.39s-.29.62-.29,1.08.1.82.29,1.08c.2.26.46.39.8.39s.6-.13.8-.4c.2-.26.29-.62.29-1.08s-.1-.81-.29-1.08c-.2-.27-.46-.4-.8-.4ZM172.88,5.02c.55,0,.98.18,1.29.53.31.36.47.85.47,1.48s-.16,1.12-.47,1.48c-.31.36-.74.53-1.29.53s-.98-.18-1.29-.53c-.31-.36-.47-.85-.47-1.48s.16-1.12.47-1.48c.31-.36.74-.53,1.29-.53Z"/>
          <path id="DejaVuSans-66-2" data-name="DejaVuSans-66" d="M177.62,3.63v.52h-.6c-.23,0-.38.05-.47.14-.09.09-.13.26-.13.49v.34h1.04v.49h-1.04v3.34h-.63v-3.34h-.6v-.49h.6v-.27c0-.43.1-.74.3-.93.2-.2.51-.29.94-.29h.6Z"/>
          <path id="DejaVuSans-2d-3" data-name="DejaVuSans-2d" d="M177.44,6.75h1.84v.56h-1.84v-.56Z"/>
          <path id="DejaVuSans-6c-2" data-name="DejaVuSans-6c" d="M180.29,3.63h.63v5.32h-.63V3.63Z"/>
          <path id="DejaVuSans-69" d="M182.23,5.12h.63v3.83h-.63v-3.83ZM182.23,3.63h.63v.8h-.63v-.8Z"/>
          <path id="DejaVuSans-66-3" data-name="DejaVuSans-66" d="M186.11,3.63v.52h-.6c-.23,0-.38.05-.47.14-.09.09-.13.26-.13.49v.34h1.04v.49h-1.04v3.34h-.63v-3.34h-.6v-.49h.6v-.27c0-.43.1-.74.3-.93.2-.2.51-.29.94-.29h.6Z"/>
          <path id="DejaVuSans-65-2" data-name="DejaVuSans-65" d="M189.91,6.87v.31h-2.89c.03.43.16.76.39.99.23.23.56.34.98.34.24,0,.48-.03.7-.09s.45-.15.68-.27v.6c-.23.1-.46.17-.69.22s-.48.08-.72.08c-.61,0-1.09-.18-1.45-.53-.36-.36-.53-.84-.53-1.44s.17-1.12.51-1.49c.34-.37.79-.55,1.37-.55.51,0,.92.17,1.22.5.3.33.45.78.45,1.35ZM189.28,6.69c0-.34-.1-.62-.29-.82-.19-.21-.44-.31-.75-.31-.35,0-.63.1-.84.3s-.33.48-.36.84h2.24Z"/>
        </g>
        <g>
          <path id="DejaVuSans-4e" d="M51.87,11.72h.93l2.26,4.27v-4.27h.67v5.1h-.93l-2.26-4.27v4.27h-.67v-5.1Z"/>
          <path id="DejaVuSans-48" d="M57.1,11.72h.69v2.09h2.51v-2.09h.69v5.1h-.69v-2.43h-2.51v2.43h-.69v-5.1Z"/>
          <path id="DejaVuSans-34" d="M64.33,12.32l-1.74,2.72h1.74v-2.72ZM64.15,11.72h.87v3.33h.73v.57h-.73v1.2h-.69v-1.2h-2.3v-.67l2.12-3.23Z"/>
          <path id="DejaVuSans-43" d="M70.64,12.11v.73c-.23-.22-.48-.38-.74-.48-.26-.11-.54-.16-.84-.16-.58,0-1.03.18-1.34.53s-.46.87-.46,1.55.15,1.19.46,1.54.76.53,1.34.53c.3,0,.58-.05.84-.16s.51-.27.74-.49v.72c-.24.16-.5.29-.77.37-.27.08-.55.12-.86.12-.77,0-1.38-.24-1.83-.71-.44-.47-.67-1.12-.67-1.94s.22-1.47.67-1.94c.44-.47,1.05-.71,1.83-.71.3,0,.59.04.86.12.27.08.52.2.76.36Z"/>
          <path id="DejaVuSans-6c-3" data-name="DejaVuSans-6c" d="M71.68,11.5h.63v5.32h-.63v-5.32Z"/>
          <path id="DejaVuSans-7c" d="M76.66,11.47v7h-.58v-7h.58Z"/>
          <path id="DejaVuSans-4e-2" data-name="DejaVuSans-4e" d="M80.46,11.72h.93l2.26,4.27v-4.27h.67v5.1h-.93l-2.26-4.27v4.27h-.67v-5.1Z"/>
          <path id="DejaVuSans-61-3" data-name="DejaVuSans-61" d="M87.41,14.9c-.51,0-.86.06-1.06.17s-.29.31-.29.6c0,.22.07.4.22.53.15.13.35.2.6.2.35,0,.63-.12.84-.37s.32-.58.32-.99v-.14h-.63ZM88.67,14.64v2.18h-.63v-.58c-.14.23-.32.4-.54.51-.21.11-.48.17-.79.17-.39,0-.7-.11-.94-.33-.23-.22-.35-.51-.35-.88,0-.43.14-.75.43-.97.29-.22.72-.33,1.29-.33h.88v-.06c0-.29-.1-.51-.29-.67s-.46-.24-.8-.24c-.22,0-.43.03-.64.08-.21.05-.41.13-.6.24v-.58c.23-.09.45-.16.67-.2.22-.04.43-.07.63-.07.55,0,.97.14,1.24.43.27.29.41.72.41,1.3Z"/>
          <path id="DejaVuSans-43-2" data-name="DejaVuSans-43" d="M93.81,12.11v.73c-.23-.22-.48-.38-.74-.48-.26-.11-.54-.16-.84-.16-.58,0-1.03.18-1.34.53s-.46.87-.46,1.55.15,1.19.46,1.54.76.53,1.34.53c.3,0,.58-.05.84-.16s.51-.27.74-.49v.72c-.24.16-.5.29-.77.37-.27.08-.55.12-.86.12-.77,0-1.38-.24-1.83-.71-.44-.47-.67-1.12-.67-1.94s.22-1.47.67-1.94c.44-.47,1.05-.71,1.83-.71.3,0,.59.04.86.12.27.08.52.2.76.36Z"/>
          <path id="DejaVuSans-6f-4" data-name="DejaVuSans-6f" d="M96.33,13.43c-.34,0-.6.13-.8.39s-.29.62-.29,1.08.1.82.29,1.08c.2.26.46.39.8.39s.6-.13.8-.4c.2-.26.29-.62.29-1.08s-.1-.81-.29-1.08c-.2-.27-.46-.4-.8-.4ZM96.33,12.9c.55,0,.98.18,1.29.53.31.36.47.85.47,1.48s-.16,1.12-.47,1.48c-.31.36-.74.53-1.29.53s-.98-.18-1.29-.53c-.31-.36-.47-.85-.47-1.48s.16-1.12.47-1.48c.31-.36.74-.53,1.29-.53Z"/>
          <path id="DejaVuSans-48-2" data-name="DejaVuSans-48" d="M99.16,11.72h.69v2.09h2.51v-2.09h.69v5.1h-.69v-2.43h-2.51v2.43h-.69v-5.1Z"/>
          <path id="DejaVuSans-43-3" data-name="DejaVuSans-43" d="M108.24,12.11v.73c-.23-.22-.48-.38-.74-.48-.26-.11-.54-.16-.84-.16-.58,0-1.03.18-1.34.53s-.46.87-.46,1.55.15,1.19.46,1.54.76.53,1.34.53c.3,0,.58-.05.84-.16s.51-.27.74-.49v.72c-.24.16-.5.29-.77.37-.27.08-.55.12-.86.12-.77,0-1.38-.24-1.83-.71-.44-.47-.67-1.12-.67-1.94s.22-1.47.67-1.94c.44-.47,1.05-.71,1.83-.71.3,0,.59.04.86.12.27.08.52.2.76.36Z"/>
          <path id="DejaVuSans-46" d="M109.31,11.72h2.93v.58h-2.24v1.5h2.02v.58h-2.02v2.44h-.69v-5.1Z"/>
          <path id="DejaVuSans-28" d="M117.05,11.51c-.3.52-.53,1.04-.68,1.56-.15.51-.22,1.03-.22,1.56s.07,1.05.22,1.56.38,1.04.68,1.56h-.55c-.34-.54-.6-1.06-.77-1.58-.17-.52-.25-1.03-.25-1.54s.08-1.02.25-1.53c.17-.52.43-1.04.77-1.58h.55Z"/>
          <path id="DejaVuSans-6c-4" data-name="DejaVuSans-6c" d="M118.27,11.5h.63v5.32h-.63v-5.32Z"/>
          <path id="DejaVuSans-69-2" data-name="DejaVuSans-69" d="M120.21,12.99h.63v3.83h-.63v-3.83ZM120.21,11.5h.63v.8h-.63v-.8Z"/>
          <path id="DejaVuSans-66-4" data-name="DejaVuSans-66" d="M124.09,11.5v.52h-.6c-.23,0-.38.05-.47.14-.09.09-.13.26-.13.49v.34h1.04v.49h-1.04v3.34h-.63v-3.34h-.6v-.49h.6v-.27c0-.43.1-.74.3-.93.2-.2.51-.29.94-.29h.6Z"/>
          <path id="DejaVuSans-65-3" data-name="DejaVuSans-65" d="M127.89,14.75v.31h-2.89c.03.43.16.76.39.99.23.23.56.34.98.34.24,0,.48-.03.7-.09s.45-.15.68-.27v.6c-.23.1-.46.17-.69.22s-.48.08-.72.08c-.61,0-1.09-.18-1.45-.53-.36-.36-.53-.84-.53-1.44s.17-1.12.51-1.49c.34-.37.79-.55,1.37-.55.51,0,.92.17,1.22.5.3.33.45.78.45,1.35ZM127.27,14.56c0-.34-.1-.62-.29-.82-.19-.21-.44-.31-.75-.31-.35,0-.63.1-.84.3s-.33.48-.36.84h2.24Z"/>
          <path id="DejaVuSans-3d" d="M131.23,13.64h4.38v.57h-4.38v-.57ZM131.23,15.04h4.38v.58h-4.38v-.58Z"/>
          <path id="DejaVuSans-37" d="M139.16,11.72h3.28v.29l-1.85,4.81h-.72l1.74-4.52h-2.45v-.58Z"/>
          <path id="DejaVuSans-30" d="M145.26,12.17c-.36,0-.62.18-.8.53-.18.35-.27.88-.27,1.58s.09,1.22.27,1.57c.18.35.45.53.8.53s.63-.18.81-.53c.18-.35.27-.87.27-1.57s-.09-1.23-.27-1.58c-.18-.35-.45-.53-.81-.53ZM145.26,11.62c.57,0,1.01.23,1.31.68.3.45.45,1.11.45,1.97s-.15,1.51-.45,1.97c-.3.45-.74.68-1.31.68s-1.01-.23-1.31-.68c-.3-.45-.45-1.11-.45-1.97s.15-1.52.45-1.97c.3-.45.74-.68,1.31-.68Z"/>
          <path id="DejaVuSans-3b" d="M148.31,13.2h.72v.87h-.72v-.87ZM148.31,15.95h.72v.59l-.56,1.09h-.44l.28-1.09v-.59Z"/>
          <path id="DejaVuSans-4d" d="M152.76,11.72h1.03l1.3,3.47,1.31-3.47h1.03v5.1h-.67v-4.48l-1.32,3.5h-.69l-1.32-3.5v4.48h-.67v-5.1Z"/>
          <path id="DejaVuSans-41" d="M160.51,12.4l-.94,2.54h1.88l-.94-2.54ZM160.12,11.72h.78l1.94,5.1h-.72l-.46-1.31h-2.3l-.46,1.31h-.73l1.95-5.1Z"/>
          <path id="DejaVuSans-45" d="M163.59,11.72h3.23v.58h-2.54v1.51h2.43v.58h-2.43v1.85h2.6v.58h-3.29v-5.1Z"/>
          <path id="DejaVuSans-35" d="M170.31,11.72h2.71v.58h-2.08v1.25c.1-.03.2-.06.3-.08.1-.02.2-.03.3-.03.57,0,1.02.16,1.35.47.33.31.5.73.5,1.27s-.17.98-.51,1.28c-.34.3-.82.46-1.45.46-.21,0-.43-.02-.66-.05-.22-.04-.45-.09-.69-.16v-.69c.2.11.42.19.64.25s.45.08.69.08c.39,0,.71-.1.94-.31.23-.21.35-.49.35-.84s-.12-.64-.35-.84c-.23-.21-.54-.31-.94-.31-.18,0-.37.02-.55.06-.18.04-.37.1-.56.19v-2.56Z"/>
          <path id="DejaVuSans-2e" d="M174.75,15.95h.72v.87h-.72v-.87Z"/>
          <path id="DejaVuSans-33" d="M179.07,14.07c.33.07.59.22.77.44.19.22.28.5.28.83,0,.5-.17.89-.52,1.17-.35.28-.84.41-1.48.41-.21,0-.43-.02-.66-.06-.23-.04-.46-.11-.7-.19v-.67c.19.11.4.2.63.25.23.06.47.09.72.09.43,0,.76-.09.99-.26s.34-.42.34-.74c0-.3-.11-.54-.32-.71-.21-.17-.5-.25-.88-.25h-.6v-.57h.62c.34,0,.6-.07.78-.2s.27-.33.27-.59-.09-.46-.28-.6c-.19-.14-.45-.21-.8-.21-.19,0-.39.02-.61.06-.22.04-.45.1-.71.19v-.61c.26-.07.51-.13.74-.16s.44-.05.65-.05c.52,0,.94.12,1.24.36.31.24.46.56.46.96,0,.28-.08.52-.24.72s-.39.33-.69.4Z"/>
          <path id="DejaVuSans-76" d="M183.12,12.99h.67l1.2,3.21,1.2-3.21h.67l-1.44,3.83h-.85l-1.44-3.83Z"/>
          <path id="DejaVuSans-73" d="M190.15,13.1v.6c-.18-.09-.36-.16-.55-.2-.19-.05-.39-.07-.6-.07-.31,0-.55.05-.7.14-.16.1-.23.24-.23.43,0,.15.06.26.17.34s.34.16.67.24l.22.05c.45.1.76.23.95.4s.28.42.28.73c0,.36-.14.64-.42.85-.28.21-.67.31-1.16.31-.2,0-.42-.02-.64-.06-.22-.04-.46-.1-.7-.18v-.65c.23.12.46.21.69.27.23.06.45.09.67.09.3,0,.52-.05.68-.15.16-.1.24-.24.24-.43,0-.17-.06-.3-.17-.39-.11-.09-.37-.18-.76-.26l-.22-.05c-.39-.08-.67-.21-.84-.38-.17-.17-.26-.4-.26-.7,0-.36.13-.64.38-.83.26-.2.62-.29,1.09-.29.23,0,.45.02.66.05.21.03.39.08.57.15Z"/>
          <path id="DejaVuSans-31" d="M193.79,16.24h1.13v-3.89l-1.23.25v-.63l1.22-.25h.69v4.52h1.13v.58h-2.94v-.58Z"/>
          <path id="DejaVuSans-35-2" data-name="DejaVuSans-35" d="M198.13,11.72h2.71v.58h-2.08v1.25c.1-.03.2-.06.3-.08.1-.02.2-.03.3-.03.57,0,1.02.16,1.35.47.33.31.5.73.5,1.27s-.17.98-.51,1.28c-.34.3-.82.46-1.45.46-.21,0-.43-.02-.66-.05-.22-.04-.45-.09-.69-.16v-.69c.2.11.42.19.64.25s.45.08.69.08c.39,0,.71-.1.94-.31.23-.21.35-.49.35-.84s-.12-.64-.35-.84c-.23-.21-.54-.31-.94-.31-.18,0-.37.02-.55.06-.18.04-.37.1-.56.19v-2.56Z"/>
          <path id="DejaVuSans-32" d="M203.17,16.24h2.41v.58h-3.24v-.58c.26-.27.62-.64,1.07-1.09.45-.46.74-.75.85-.88.22-.25.38-.46.46-.63.09-.17.13-.34.13-.51,0-.27-.1-.49-.29-.66-.19-.17-.44-.26-.74-.26-.22,0-.45.04-.69.11-.24.08-.5.19-.77.34v-.7c.28-.11.54-.2.78-.25.24-.06.46-.09.66-.09.53,0,.95.13,1.26.4.31.26.47.62.47,1.06,0,.21-.04.41-.12.6-.08.19-.22.41-.43.66-.06.07-.24.26-.54.57-.3.32-.74.76-1.29,1.32Z"/>
          <path id="DejaVuSans-2f" d="M208.06,11.72h.58l-1.78,5.75h-.58l1.78-5.75Z"/>
          <path id="DejaVuSans-39" d="M209.41,16.71v-.63c.17.08.35.15.53.19.18.04.35.06.52.06.46,0,.8-.15,1.04-.46.24-.31.38-.77.41-1.4-.13.2-.3.35-.5.45-.2.11-.43.16-.67.16-.51,0-.91-.15-1.21-.46-.3-.31-.45-.73-.45-1.27s.15-.94.46-1.26c.31-.32.72-.48,1.24-.48.59,0,1.04.23,1.35.68.31.45.47,1.11.47,1.97,0,.8-.19,1.45-.57,1.93-.38.48-.89.72-1.54.72-.17,0-.35-.02-.53-.05-.18-.03-.36-.09-.55-.15ZM210.78,14.55c.31,0,.56-.11.74-.32.18-.21.27-.5.27-.87s-.09-.66-.27-.87c-.18-.21-.43-.32-.74-.32s-.56.11-.74.32c-.18.21-.27.5-.27.87s.09.66.27.87c.18.21.43.32.74.32Z"/>
          <path id="DejaVuSans-34-2" data-name="DejaVuSans-34" d="M215.74,12.32l-1.74,2.72h1.74v-2.72ZM215.56,11.72h.87v3.33h.73v.57h-.73v1.2h-.69v-1.2h-2.3v-.67l2.12-3.23Z"/>
          <path id="DejaVuSans-29" d="M218.11,11.51h.55c.34.54.6,1.06.77,1.58.17.51.25,1.03.25,1.53s-.08,1.02-.25,1.54c-.17.52-.43,1.04-.77,1.58h-.55c.3-.52.53-1.04.68-1.56.15-.52.22-1.04.22-1.56s-.07-1.05-.22-1.56c-.15-.51-.38-1.03-.68-1.56Z"/>
        </g>
      </g>
      <g id="patch_4" data-name="patch 4">
        <path class="cls-12" d="M248.42,201.36V21.18"/>
      </g>
      <g id="patch_2" data-name="patch 2">
        <path class="cls-25" d="M27.98,201.36h219.97V21.18H27.98v180.17Z"/>
      </g>
      <g id="FillBetweenPolyCollection_1" data-name="FillBetweenPolyCollection 1">
        <g class="cls-39">
          <path id="m2141384b8b" class="cls-26" d="M69.38,21.18v99.29l41.4,36.56,41.4,21.15,41.4-8.55,41.4,23.96v-53.93h0l-41.4-43.41-41.4-26.03-41.4-42.71-41.4-6.34Z"/>
        </g>
      </g>
      <g>
        <g id="xtick_1" data-name="xtick 1">
          <g id="line2d_1" data-name="line2d 1">
            <path id="m11365bf1f7" class="cls-20" d="M27.98,203.86v-2.5"/>
          </g>
          <g id="text_1" data-name="text 1">
            <path id="DejaVuSans-30-2" data-name="DejaVuSans-30" d="M27.98,207.93c-.3,0-.53.15-.69.45-.15.3-.23.75-.23,1.35s.08,1.05.23,1.35c.15.3.38.45.69.45s.54-.15.69-.45c.15-.3.23-.75.23-1.35s-.08-1.05-.23-1.35c-.15-.3-.38-.45-.69-.45ZM27.98,207.46c.49,0,.87.19,1.12.58.26.39.39.95.39,1.69s-.13,1.3-.39,1.69c-.26.39-.63.58-1.12.58s-.86-.19-1.12-.58c-.26-.39-.39-.95-.39-1.69s.13-1.3.39-1.69c.26-.39.63-.58,1.12-.58Z"/>
          </g>
        </g>
        <g id="xtick_2" data-name="xtick 2">
          <g id="line2d_2" data-name="line2d 2">
            <path id="m11365bf1f7-2" data-name="m11365bf1f7" class="cls-20" d="M57.55,203.86v-2.5"/>
          </g>
          <g id="text_2" data-name="text 2">
            <g>
              <path id="DejaVuSans-31-2" data-name="DejaVuSans-31" d="M54.48,211.42h.97v-3.34l-1.05.21v-.54l1.05-.21h.59v3.88h.97v.5h-2.52v-.5Z"/>
              <path id="DejaVuSans-30-3" data-name="DejaVuSans-30" d="M59.46,207.93c-.3,0-.53.15-.69.45-.15.3-.23.75-.23,1.35s.08,1.05.23,1.35c.15.3.38.45.69.45s.54-.15.69-.45c.15-.3.23-.75.23-1.35s-.08-1.05-.23-1.35c-.15-.3-.38-.45-.69-.45ZM59.46,207.46c.49,0,.87.19,1.12.58.26.39.39.95.39,1.69s-.13,1.3-.39,1.69c-.26.39-.63.58-1.12.58s-.86-.19-1.12-.58c-.26-.39-.39-.95-.39-1.69s.13-1.3.39-1.69c.26-.39.63-.58,1.12-.58Z"/>
            </g>
          </g>
        </g>
        <g id="xtick_3" data-name="xtick 3">
          <g id="line2d_3" data-name="line2d 3">
            <path id="m11365bf1f7-3" data-name="m11365bf1f7" class="cls-20" d="M87.12,203.86v-2.5"/>
          </g>
          <g id="text_3" data-name="text 3">
            <g>
              <path id="DejaVuSans-32-2" data-name="DejaVuSans-32" d="M84.46,211.42h2.07v.5h-2.78v-.5c.22-.23.53-.54.92-.94.39-.39.63-.64.73-.76.19-.21.32-.39.4-.54.08-.15.11-.29.11-.43,0-.23-.08-.42-.24-.57-.16-.15-.38-.22-.64-.22-.19,0-.38.03-.59.1-.21.06-.43.16-.66.29v-.6c.24-.1.46-.17.67-.22.21-.05.4-.07.57-.07.45,0,.81.11,1.08.34.27.23.4.53.4.91,0,.18-.03.35-.1.51-.07.16-.19.35-.37.57-.05.06-.2.22-.47.49-.26.27-.63.65-1.11,1.14Z"/>
              <path id="DejaVuSans-30-4" data-name="DejaVuSans-30" d="M89.03,207.93c-.3,0-.53.15-.69.45-.15.3-.23.75-.23,1.35s.08,1.05.23,1.35c.15.3.38.45.69.45s.54-.15.69-.45c.15-.3.23-.75.23-1.35s-.08-1.05-.23-1.35c-.15-.3-.38-.45-.69-.45ZM89.03,207.46c.49,0,.87.19,1.12.58.26.39.39.95.39,1.69s-.13,1.3-.39,1.69c-.26.39-.63.58-1.12.58s-.86-.19-1.12-.58c-.26-.39-.39-.95-.39-1.69s.13-1.3.39-1.69c.26-.39.63-.58,1.12-.58Z"/>
            </g>
          </g>
        </g>
        <g id="xtick_4" data-name="xtick 4">
          <g id="line2d_4" data-name="line2d 4">
            <path id="m11365bf1f7-4" data-name="m11365bf1f7" class="cls-20" d="M116.69,203.86v-2.5"/>
          </g>
          <g id="text_4" data-name="text 4">
            <g>
              <path id="DejaVuSans-33-2" data-name="DejaVuSans-33" d="M115.31,209.56c.28.06.5.19.66.38.16.19.24.43.24.71,0,.43-.15.77-.45,1-.3.24-.72.35-1.27.35-.18,0-.37-.02-.57-.05-.19-.04-.39-.09-.6-.16v-.57c.16.1.34.17.54.22.2.05.4.07.61.07.37,0,.65-.07.85-.22s.29-.36.29-.64c0-.26-.09-.46-.27-.6-.18-.15-.43-.22-.75-.22h-.51v-.49h.53c.29,0,.51-.06.67-.17s.23-.28.23-.5-.08-.4-.24-.52c-.16-.12-.39-.18-.68-.18-.16,0-.34.02-.52.05-.19.04-.39.09-.61.16v-.53c.22-.06.44-.11.63-.14s.38-.05.55-.05c.45,0,.8.1,1.07.31.26.2.39.48.39.83,0,.24-.07.45-.21.61s-.34.28-.59.35Z"/>
              <path id="DejaVuSans-30-5" data-name="DejaVuSans-30" d="M118.6,207.93c-.3,0-.53.15-.69.45-.15.3-.23.75-.23,1.35s.08,1.05.23,1.35c.15.3.38.45.69.45s.54-.15.69-.45c.15-.3.23-.75.23-1.35s-.08-1.05-.23-1.35c-.15-.3-.38-.45-.69-.45ZM118.6,207.46c.49,0,.87.19,1.12.58.26.39.39.95.39,1.69s-.13,1.3-.39,1.69c-.26.39-.63.58-1.12.58s-.86-.19-1.12-.58c-.26-.39-.39-.95-.39-1.69s.13-1.3.39-1.69c.26-.39.63-.58,1.12-.58Z"/>
            </g>
          </g>
        </g>
        <g id="xtick_5" data-name="xtick 5">
          <g id="line2d_5" data-name="line2d 5">
            <path id="m11365bf1f7-5" data-name="m11365bf1f7" class="cls-20" d="M146.26,203.86v-2.5"/>
          </g>
          <g id="text_5" data-name="text 5">
            <g>
              <path id="DejaVuSans-34-3" data-name="DejaVuSans-34" d="M144.71,208.06l-1.49,2.34h1.49v-2.34ZM144.56,207.54h.74v2.85h.62v.49h-.62v1.03h-.59v-1.03h-1.97v-.57l1.82-2.77Z"/>
              <path id="DejaVuSans-30-6" data-name="DejaVuSans-30" d="M148.17,207.93c-.3,0-.53.15-.69.45-.15.3-.23.75-.23,1.35s.08,1.05.23,1.35c.15.3.38.45.69.45s.54-.15.69-.45c.15-.3.23-.75.23-1.35s-.08-1.05-.23-1.35c-.15-.3-.38-.45-.69-.45ZM148.17,207.46c.49,0,.87.19,1.12.58.26.39.39.95.39,1.69s-.13,1.3-.39,1.69c-.26.39-.63.58-1.12.58s-.86-.19-1.12-.58c-.26-.39-.39-.95-.39-1.69s.13-1.3.39-1.69c.26-.39.63-.58,1.12-.58Z"/>
            </g>
          </g>
        </g>
        <g id="xtick_6" data-name="xtick 6">
          <g id="line2d_6" data-name="line2d 6">
            <path id="m11365bf1f7-6" data-name="m11365bf1f7" class="cls-20" d="M175.84,203.86v-2.5"/>
          </g>
          <g id="text_6" data-name="text 6">
            <g>
              <path id="DejaVuSans-35-3" data-name="DejaVuSans-35" d="M172.67,207.54h2.32v.5h-1.78v1.07c.09-.03.17-.05.26-.07.09-.01.17-.02.26-.02.49,0,.87.13,1.16.4.29.27.43.63.43,1.09s-.15.84-.44,1.1c-.29.26-.71.39-1.24.39-.18,0-.37-.02-.56-.05-.19-.03-.39-.08-.59-.14v-.6c.18.1.36.17.54.21s.39.07.59.07c.34,0,.61-.09.8-.27.2-.18.3-.42.3-.72s-.1-.55-.3-.72c-.2-.18-.46-.27-.8-.27-.16,0-.32.02-.47.05-.16.03-.32.09-.48.16v-2.2Z"/>
              <path id="DejaVuSans-30-7" data-name="DejaVuSans-30" d="M177.74,207.93c-.3,0-.53.15-.69.45-.15.3-.23.75-.23,1.35s.08,1.05.23,1.35c.15.3.38.45.69.45s.54-.15.69-.45c.15-.3.23-.75.23-1.35s-.08-1.05-.23-1.35c-.15-.3-.38-.45-.69-.45ZM177.74,207.46c.49,0,.87.19,1.12.58.26.39.39.95.39,1.69s-.13,1.3-.39,1.69c-.26.39-.63.58-1.12.58s-.86-.19-1.12-.58c-.26-.39-.39-.95-.39-1.69s.13-1.3.39-1.69c.26-.39.63-.58,1.12-.58Z"/>
            </g>
          </g>
        </g>
        <g id="xtick_7" data-name="xtick 7">
          <g id="line2d_7" data-name="line2d 7">
            <path id="m11365bf1f7-7" data-name="m11365bf1f7" class="cls-20" d="M205.41,203.86v-2.5"/>
          </g>
          <g id="text_7" data-name="text 7">
            <g>
              <path id="DejaVuSans-36" d="M203.57,209.49c-.27,0-.48.09-.63.27-.16.18-.23.43-.23.75s.08.56.23.75c.16.18.37.27.63.27s.48-.09.63-.27c.15-.18.23-.43.23-.75s-.08-.57-.23-.75c-.15-.18-.37-.27-.63-.27ZM204.74,207.64v.54c-.15-.07-.3-.12-.45-.16-.15-.04-.3-.06-.45-.06-.39,0-.69.13-.9.4-.21.26-.32.66-.35,1.2.11-.17.26-.3.43-.39.17-.09.37-.14.57-.14.44,0,.79.13,1.04.4.25.27.38.63.38,1.09s-.13.81-.4,1.08c-.27.27-.62.41-1.06.41-.51,0-.89-.19-1.16-.58-.27-.39-.4-.95-.4-1.69,0-.69.16-1.24.49-1.65.33-.41.77-.62,1.32-.62.15,0,.3.01.45.04s.31.07.47.13Z"/>
              <path id="DejaVuSans-30-8" data-name="DejaVuSans-30" d="M207.31,207.93c-.3,0-.53.15-.69.45-.15.3-.23.75-.23,1.35s.08,1.05.23,1.35c.15.3.38.45.69.45s.54-.15.69-.45c.15-.3.23-.75.23-1.35s-.08-1.05-.23-1.35c-.15-.3-.38-.45-.69-.45ZM207.31,207.46c.49,0,.87.19,1.12.58.26.39.39.95.39,1.69s-.13,1.3-.39,1.69c-.26.39-.63.58-1.12.58s-.86-.19-1.12-.58c-.26-.39-.39-.95-.39-1.69s.13-1.3.39-1.69c.26-.39.63-.58,1.12-.58Z"/>
            </g>
          </g>
        </g>
        <g id="xtick_8" data-name="xtick 8">
          <g id="line2d_8" data-name="line2d 8">
            <path id="m11365bf1f7-8" data-name="m11365bf1f7" class="cls-20" d="M234.98,203.86v-2.5"/>
          </g>
          <g id="text_8" data-name="text 8">
            <g>
              <path id="DejaVuSans-37-2" data-name="DejaVuSans-37" d="M231.65,207.54h2.81v.25l-1.59,4.12h-.62l1.49-3.88h-2.1v-.5Z"/>
              <path id="DejaVuSans-30-9" data-name="DejaVuSans-30" d="M236.88,207.93c-.3,0-.53.15-.69.45-.15.3-.23.75-.23,1.35s.08,1.05.23,1.35c.15.3.38.45.69.45s.54-.15.69-.45c.15-.3.23-.75.23-1.35s-.08-1.05-.23-1.35c-.15-.3-.38-.45-.69-.45ZM236.88,207.46c.49,0,.87.19,1.12.58.26.39.39.95.39,1.69s-.13,1.3-.39,1.69c-.26.39-.63.58-1.12.58s-.86-.19-1.12-.58c-.26-.39-.39-.95-.39-1.69s.13-1.3.39-1.69c.26-.39.63-.58,1.12-.58Z"/>
            </g>
          </g>
        </g>
        <g id="text_9" data-name="text 9">
          <g>
            <path id="DejaVuSans-43-4" data-name="DejaVuSans-43" d="M133.14,217.77v.73c-.23-.22-.48-.38-.74-.48-.26-.11-.54-.16-.84-.16-.58,0-1.03.18-1.34.53s-.46.87-.46,1.55.15,1.19.46,1.54.76.53,1.34.53c.3,0,.58-.05.84-.16s.51-.27.74-.49v.72c-.24.16-.5.29-.77.37-.27.08-.55.12-.86.12-.77,0-1.38-.24-1.83-.71-.44-.47-.67-1.12-.67-1.94s.22-1.47.67-1.94c.44-.47,1.05-.71,1.83-.71.3,0,.59.04.86.12.27.08.52.2.76.36Z"/>
            <path id="DejaVuSans-79" d="M135.77,222.84c-.18.46-.35.75-.52.89-.17.14-.39.21-.68.21h-.5v-.53h.37c.17,0,.31-.04.4-.12.1-.08.2-.28.32-.58l.11-.29-1.55-3.77h.67l1.2,2.99,1.2-2.99h.67l-1.68,4.18Z"/>
            <path id="DejaVuSans-63" d="M141.08,218.8v.59c-.18-.1-.36-.17-.53-.22s-.36-.07-.54-.07c-.41,0-.73.13-.95.39-.23.26-.34.62-.34,1.09s.11.83.34,1.09c.23.26.54.39.95.39.18,0,.36-.02.54-.07s.36-.12.53-.22v.58c-.18.08-.36.14-.55.18-.19.04-.39.06-.6.06-.58,0-1.04-.18-1.37-.54-.34-.36-.51-.85-.51-1.47s.17-1.11.51-1.47c.34-.36.81-.54,1.41-.54.19,0,.38.02.57.06.18.04.36.1.54.18Z"/>
            <path id="DejaVuSans-6c-5" data-name="DejaVuSans-6c" d="M142.17,217.16h.63v5.32h-.63v-5.32Z"/>
            <path id="DejaVuSans-65-4" data-name="DejaVuSans-65" d="M147.39,220.41v.31h-2.89c.03.43.16.76.39.99.23.23.56.34.98.34.24,0,.48-.03.7-.09s.45-.15.68-.27v.6c-.23.1-.46.17-.69.22s-.48.08-.72.08c-.61,0-1.09-.18-1.45-.53-.36-.36-.53-.84-.53-1.44s.17-1.12.51-1.49c.34-.37.79-.55,1.37-.55.51,0,.92.17,1.22.5.3.33.45.78.45,1.35ZM146.76,220.23c0-.34-.1-.62-.29-.82-.19-.21-.44-.31-.75-.31-.35,0-.63.1-.84.3s-.33.48-.36.84h2.24Z"/>
          </g>
        </g>
      </g>
      <g id="matplotlib.axis_2" data-name="matplotlib.axis 2">
        <g id="ytick_1" data-name="ytick 1">
          <g id="line2d_9" data-name="line2d 9">
            <path id="md948c95264" class="cls-20" d="M25.57,193.6h2.5"/>
          </g>
          <g id="text_10" data-name="text 10">
            <path id="DejaVuSans-30-10" data-name="DejaVuSans-30" d="M20.16,191.89c-.3,0-.53.15-.69.45-.15.3-.23.75-.23,1.35s.08,1.05.23,1.35c.15.3.38.45.69.45s.54-.15.69-.45c.15-.3.23-.75.23-1.35s-.08-1.05-.23-1.35c-.15-.3-.38-.45-.69-.45ZM20.16,191.42c.49,0,.87.19,1.12.58.26.39.39.95.39,1.69s-.13,1.3-.39,1.69c-.26.39-.63.58-1.12.58s-.86-.19-1.12-.58c-.26-.39-.39-.95-.39-1.69s.13-1.3.39-1.69c.26-.39.63-.58,1.12-.58Z"/>
          </g>
        </g>
        <g id="ytick_2" data-name="ytick 2">
          <g id="line2d_10" data-name="line2d 10">
            <path id="md948c95264-2" data-name="md948c95264" class="cls-20" d="M25.57,170.47h2.5"/>
          </g>
          <g id="text_11" data-name="text 11">
            <g>
              <path id="DejaVuSans-31-3" data-name="DejaVuSans-31" d="M15.18,172.25h.97v-3.34l-1.05.21v-.54l1.05-.21h.59v3.88h.97v.5h-2.52v-.5Z"/>
              <path id="DejaVuSans-30-11" data-name="DejaVuSans-30" d="M20.16,168.76c-.3,0-.53.15-.69.45-.15.3-.23.75-.23,1.35s.08,1.05.23,1.35c.15.3.38.45.69.45s.54-.15.69-.45c.15-.3.23-.75.23-1.35s-.08-1.05-.23-1.35c-.15-.3-.38-.45-.69-.45ZM20.16,168.3c.49,0,.87.19,1.12.58.26.39.39.95.39,1.69s-.13,1.3-.39,1.69c-.26.39-.63.58-1.12.58s-.86-.19-1.12-.58c-.26-.39-.39-.95-.39-1.69s.13-1.3.39-1.69c.26-.39.63-.58,1.12-.58Z"/>
            </g>
          </g>
        </g>
        <g id="ytick_3" data-name="ytick 3">
          <g id="line2d_11" data-name="line2d 11">
            <path id="md948c95264-3" data-name="md948c95264" class="cls-20" d="M25.57,147.34h2.5"/>
          </g>
          <g id="text_12" data-name="text 12">
            <g>
              <path id="DejaVuSans-32-3" data-name="DejaVuSans-32" d="M15.59,149.12h2.07v.5h-2.78v-.5c.22-.23.53-.54.92-.94.39-.39.63-.64.73-.76.19-.21.32-.39.4-.54.08-.15.11-.29.11-.43,0-.23-.08-.42-.24-.57-.16-.15-.38-.22-.64-.22-.19,0-.38.03-.59.1-.21.06-.43.16-.66.29v-.6c.24-.1.46-.17.67-.22.21-.05.4-.07.57-.07.45,0,.81.11,1.08.34.27.23.4.53.4.91,0,.18-.03.35-.1.51-.07.16-.19.35-.37.57-.05.06-.2.22-.47.49-.26.27-.63.65-1.11,1.14Z"/>
              <path id="DejaVuSans-30-12" data-name="DejaVuSans-30" d="M20.16,145.64c-.3,0-.53.15-.69.45-.15.3-.23.75-.23,1.35s.08,1.05.23,1.35c.15.3.38.45.69.45s.54-.15.69-.45c.15-.3.23-.75.23-1.35s-.08-1.05-.23-1.35c-.15-.3-.38-.45-.69-.45ZM20.16,145.17c.49,0,.87.19,1.12.58.26.39.39.95.39,1.69s-.13,1.3-.39,1.69c-.26.39-.63.58-1.12.58s-.86-.19-1.12-.58c-.26-.39-.39-.95-.39-1.69s.13-1.3.39-1.69c.26-.39.63-.58,1.12-.58Z"/>
            </g>
          </g>
        </g>
        <g id="ytick_4" data-name="ytick 4">
          <g id="line2d_12" data-name="line2d 12">
            <path id="md948c95264-4" data-name="md948c95264" class="cls-20" d="M25.57,124.21h2.5"/>
          </g>
          <g id="text_13" data-name="text 13">
            <g>
              <path id="DejaVuSans-33-3" data-name="DejaVuSans-33" d="M16.87,124.13c.28.06.5.19.66.38.16.19.24.43.24.71,0,.43-.15.77-.45,1-.3.24-.72.35-1.27.35-.18,0-.37-.02-.57-.05-.19-.04-.39-.09-.6-.16v-.57c.16.1.34.17.54.22.2.05.4.07.61.07.37,0,.65-.07.85-.22s.29-.36.29-.64c0-.26-.09-.46-.27-.6-.18-.15-.43-.22-.75-.22h-.51v-.49h.53c.29,0,.51-.06.67-.17s.23-.28.23-.5-.08-.4-.24-.52c-.16-.12-.39-.18-.68-.18-.16,0-.34.02-.52.05-.19.04-.39.09-.61.16v-.53c.22-.06.44-.11.63-.14s.38-.05.55-.05c.45,0,.8.1,1.07.31.26.2.39.48.39.83,0,.24-.07.45-.21.61s-.34.28-.59.35Z"/>
              <path id="DejaVuSans-30-13" data-name="DejaVuSans-30" d="M20.16,122.51c-.3,0-.53.15-.69.45-.15.3-.23.75-.23,1.35s.08,1.05.23,1.35c.15.3.38.45.69.45s.54-.15.69-.45c.15-.3.23-.75.23-1.35s-.08-1.05-.23-1.35c-.15-.3-.38-.45-.69-.45ZM20.16,122.04c.49,0,.87.19,1.12.58.26.39.39.95.39,1.69s-.13,1.3-.39,1.69c-.26.39-.63.58-1.12.58s-.86-.19-1.12-.58c-.26-.39-.39-.95-.39-1.69s.13-1.3.39-1.69c.26-.39.63-.58,1.12-.58Z"/>
            </g>
          </g>
        </g>
        <g id="ytick_5" data-name="ytick 5">
          <g id="line2d_13" data-name="line2d 13">
            <path id="md948c95264-5" data-name="md948c95264" class="cls-20" d="M25.57,101.08h2.5"/>
          </g>
          <g id="text_14" data-name="text 14">
            <g>
              <path id="DejaVuSans-34-4" data-name="DejaVuSans-34" d="M16.7,99.5l-1.49,2.34h1.49v-2.34ZM16.55,98.99h.74v2.85h.62v.49h-.62v1.03h-.59v-1.03h-1.97v-.57l1.82-2.77Z"/>
              <path id="DejaVuSans-30-14" data-name="DejaVuSans-30" d="M20.16,99.38c-.3,0-.53.15-.69.45-.15.3-.23.75-.23,1.35s.08,1.05.23,1.35c.15.3.38.45.69.45s.54-.15.69-.45c.15-.3.23-.75.23-1.35s-.08-1.05-.23-1.35c-.15-.3-.38-.45-.69-.45ZM20.16,98.91c.49,0,.87.19,1.12.58.26.39.39.95.39,1.69s-.13,1.3-.39,1.69c-.26.39-.63.58-1.12.58s-.86-.19-1.12-.58c-.26-.39-.39-.95-.39-1.69s.13-1.3.39-1.69c.26-.39.63-.58,1.12-.58Z"/>
            </g>
          </g>
        </g>
        <g id="ytick_6" data-name="ytick 6">
          <g id="line2d_14" data-name="line2d 14">
            <path id="md948c95264-6" data-name="md948c95264" class="cls-20" d="M25.57,77.95h2.5"/>
          </g>
          <g id="text_15" data-name="text 15">
            <g>
              <path id="DejaVuSans-35-4" data-name="DejaVuSans-35" d="M15.08,75.86h2.32v.5h-1.78v1.07c.09-.03.17-.05.26-.07.09-.01.17-.02.26-.02.49,0,.87.13,1.16.4.29.27.43.63.43,1.09s-.15.84-.44,1.1c-.29.26-.71.39-1.24.39-.18,0-.37-.02-.56-.05-.19-.03-.39-.08-.59-.14v-.6c.18.1.36.17.54.21s.39.07.59.07c.34,0,.61-.09.8-.27.2-.18.3-.42.3-.72s-.1-.55-.3-.72c-.2-.18-.46-.27-.8-.27-.16,0-.32.02-.47.05-.16.03-.32.09-.48.16v-2.2Z"/>
              <path id="DejaVuSans-30-15" data-name="DejaVuSans-30" d="M20.16,76.25c-.3,0-.53.15-.69.45-.15.3-.23.75-.23,1.35s.08,1.05.23,1.35c.15.3.38.45.69.45s.54-.15.69-.45c.15-.3.23-.75.23-1.35s-.08-1.05-.23-1.35c-.15-.3-.38-.45-.69-.45ZM20.16,75.78c.49,0,.87.19,1.12.58.26.39.39.95.39,1.69s-.13,1.3-.39,1.69c-.26.39-.63.58-1.12.58s-.86-.19-1.12-.58c-.26-.39-.39-.95-.39-1.69s.13-1.3.39-1.69c.26-.39.63-.58,1.12-.58Z"/>
            </g>
          </g>
        </g>
        <g id="ytick_7" data-name="ytick 7">
          <g id="line2d_15" data-name="line2d 15">
            <path id="md948c95264-7" data-name="md948c95264" class="cls-20" d="M25.57,54.83h2.5"/>
          </g>
          <g id="text_16" data-name="text 16">
            <g>
              <path id="DejaVuSans-36-2" data-name="DejaVuSans-36" d="M16.42,54.68c-.27,0-.48.09-.63.27-.16.18-.23.43-.23.75s.08.56.23.75c.16.18.37.27.63.27s.48-.09.63-.27c.15-.18.23-.43.23-.75s-.08-.57-.23-.75c-.15-.18-.37-.27-.63-.27ZM17.59,52.83v.54c-.15-.07-.3-.12-.45-.16-.15-.04-.3-.06-.45-.06-.39,0-.69.13-.9.4-.21.26-.32.66-.35,1.2.11-.17.26-.3.43-.39.17-.09.37-.14.57-.14.44,0,.79.13,1.04.4.25.27.38.63.38,1.09s-.13.81-.4,1.08c-.27.27-.62.41-1.06.41-.51,0-.89-.19-1.16-.58-.27-.39-.4-.95-.4-1.69,0-.69.16-1.24.49-1.65.33-.41.77-.62,1.32-.62.15,0,.3.01.45.04s.31.07.47.13Z"/>
              <path id="DejaVuSans-30-16" data-name="DejaVuSans-30" d="M20.16,53.12c-.3,0-.53.15-.69.45-.15.3-.23.75-.23,1.35s.08,1.05.23,1.35c.15.3.38.45.69.45s.54-.15.69-.45c.15-.3.23-.75.23-1.35s-.08-1.05-.23-1.35c-.15-.3-.38-.45-.69-.45ZM20.16,52.65c.49,0,.87.19,1.12.58.26.39.39.95.39,1.69s-.13,1.3-.39,1.69c-.26.39-.63.58-1.12.58s-.86-.19-1.12-.58c-.26-.39-.39-.95-.39-1.69s.13-1.3.39-1.69c.26-.39.63-.58,1.12-.58Z"/>
            </g>
          </g>
        </g>
        <g id="ytick_8" data-name="ytick 8">
          <g id="line2d_16" data-name="line2d 16">
            <path id="md948c95264-8" data-name="md948c95264" class="cls-20" d="M25.57,31.7h2.5"/>
          </g>
          <g id="text_17" data-name="text 17">
            <g>
              <path id="DejaVuSans-37-3" data-name="DejaVuSans-37" d="M14.93,29.6h2.81v.25l-1.59,4.12h-.62l1.49-3.88h-2.1v-.5Z"/>
              <path id="DejaVuSans-30-17" data-name="DejaVuSans-30" d="M20.16,29.99c-.3,0-.53.15-.69.45-.15.3-.23.75-.23,1.35s.08,1.05.23,1.35c.15.3.38.45.69.45s.54-.15.69-.45c.15-.3.23-.75.23-1.35s-.08-1.05-.23-1.35c-.15-.3-.38-.45-.69-.45ZM20.16,29.52c.49,0,.87.19,1.12.58.26.39.39.95.39,1.69s-.13,1.3-.39,1.69c-.26.39-.63.58-1.12.58s-.86-.19-1.12-.58c-.26-.39-.39-.95-.39-1.69s.13-1.3.39-1.69c.26-.39.63-.58,1.12-.58Z"/>
            </g>
          </g>
        </g>
        <g id="text_18" data-name="text 18">
          <g>
            <path id="DejaVuSans-52-2" data-name="DejaVuSans-52" d="M6.59,159.63c.05-.15.16-.29.32-.43s.39-.28.68-.42l1.39-.7v.74l-1.31.65c-.34.17-.57.33-.68.49s-.17.37-.17.65v.75h2.16v.69H3.88v-1.56c0-.58.12-1.02.37-1.31.24-.29.61-.43,1.1-.43.32,0,.59.07.8.22.21.15.36.37.44.65ZM4.44,161.36h1.81v-.87c0-.33-.08-.58-.23-.75s-.38-.25-.68-.25-.52.08-.67.25-.23.42-.23.75v.87Z"/>
            <path id="DejaVuSans-65-5" data-name="DejaVuSans-65" d="M6.91,154.26h.31v2.89c.43-.03.76-.16.99-.39.23-.23.34-.56.34-.98,0-.24-.03-.48-.09-.7s-.15-.45-.27-.68h.6c.1.23.17.46.22.69s.08.48.08.72c0,.61-.18,1.09-.53,1.45-.36.36-.84.53-1.44.53s-1.12-.17-1.49-.51c-.37-.34-.55-.79-.55-1.37,0-.51.17-.92.5-1.22.33-.3.78-.45,1.35-.45ZM6.72,154.89c-.34,0-.62.1-.82.29-.21.19-.31.44-.31.75,0,.35.1.63.3.84s.48.33.84.36v-2.24Z"/>
            <path id="DejaVuSans-6d" d="M5.89,150.25c-.28-.16-.49-.35-.63-.56s-.2-.48-.2-.77c0-.4.14-.71.42-.92.28-.22.68-.32,1.19-.32h2.31v.63h-2.29c-.37,0-.64.07-.82.2-.18.13-.27.33-.27.59,0,.33.11.58.32.77.22.19.51.28.88.28h2.16v.63h-2.29c-.37,0-.64.06-.82.19s-.26.33-.26.6c0,.32.11.58.33.77.22.19.51.28.88.28h2.16v.63h-3.83v-.63h.6c-.23-.14-.41-.32-.52-.52s-.17-.44-.17-.71.07-.52.21-.71c.14-.19.35-.34.61-.43Z"/>
            <path id="DejaVuSans-61-4" data-name="DejaVuSans-61" d="M7.05,144.67c0,.51.06.86.17,1.06s.31.29.6.29c.22,0,.4-.07.53-.22.13-.15.2-.35.2-.6,0-.35-.12-.63-.37-.84s-.58-.32-.99-.32h-.14v.63ZM6.79,143.41h2.18v.63h-.58c.23.14.4.32.51.54.11.21.17.48.17.79,0,.39-.11.7-.33.94-.22.23-.51.35-.88.35-.43,0-.75-.14-.97-.43-.22-.29-.33-.72-.33-1.29v-.88h-.06c-.29,0-.51.1-.67.29s-.24.46-.24.8c0,.22.03.43.08.64.05.21.13.41.24.6h-.58c-.09-.23-.16-.45-.2-.67-.04-.22-.07-.43-.07-.63,0-.55.14-.97.43-1.24.29-.27.72-.41,1.3-.41Z"/>
            <path id="DejaVuSans-69-3" data-name="DejaVuSans-69" d="M5.15,142.12v-.63h3.83v.63h-3.83ZM3.66,142.12v-.63h.8v.63h-.8Z"/>
            <path id="DejaVuSans-6e-2" data-name="DejaVuSans-6e" d="M6.67,136.99h2.31v.63h-2.29c-.36,0-.63.07-.81.21-.18.14-.27.35-.27.64,0,.34.11.61.32.8.22.2.51.29.88.29h2.16v.63h-3.83v-.63h.6c-.23-.15-.4-.33-.52-.53-.11-.2-.17-.44-.17-.71,0-.44.14-.77.41-1,.27-.23.67-.34,1.2-.34Z"/>
            <path id="DejaVuSans-69-4" data-name="DejaVuSans-69" d="M5.15,135.74v-.63h3.83v.63h-3.83ZM3.66,135.74v-.63h.8v.63h-.8Z"/>
            <path id="DejaVuSans-6e-3" data-name="DejaVuSans-6e" d="M6.67,130.61h2.31v.63h-2.29c-.36,0-.63.07-.81.21-.18.14-.27.35-.27.64,0,.34.11.61.32.8.22.2.51.29.88.29h2.16v.63h-3.83v-.63h.6c-.23-.15-.4-.33-.52-.53-.11-.2-.17-.44-.17-.71,0-.44.14-.77.41-1,.27-.23.67-.34,1.2-.34Z"/>
            <path id="DejaVuSans-67" d="M7.02,126.84c-.46,0-.81.09-1.06.28-.25.19-.38.45-.38.79s.13.6.38.79c.25.19.6.28,1.06.28s.81-.09,1.06-.28c.25-.19.38-.45.38-.79s-.13-.6-.38-.79c-.25-.19-.6-.28-1.06-.28ZM8.5,126.21c.65,0,1.14.14,1.45.43.32.29.48.73.48,1.33,0,.22-.02.43-.05.63s-.08.39-.15.57h-.61c.1-.18.17-.37.22-.55.05-.18.07-.36.07-.55,0-.41-.11-.72-.32-.93-.22-.2-.54-.31-.98-.31h-.31c.23.13.39.3.51.5s.17.45.17.73c0,.47-.18.85-.54,1.13-.36.29-.83.43-1.42.43s-1.07-.14-1.42-.43c-.36-.29-.54-.67-.54-1.13,0-.28.06-.53.17-.73s.28-.37.51-.5h-.58v-.63h3.35Z"/>
            <path id="DejaVuSans-75" d="M7.47,122.75h-2.32v-.63h2.29c.36,0,.63-.07.82-.21.18-.14.27-.35.27-.64,0-.34-.11-.61-.32-.8-.22-.2-.51-.3-.89-.3h-2.17v-.63h3.83v.63h-.59c.23.15.41.33.52.53.11.2.17.44.17.7,0,.44-.14.77-.41,1-.27.23-.67.34-1.2.34Z"/>
            <path id="DejaVuSans-73-2" data-name="DejaVuSans-73" d="M5.26,115.81h.6c-.09.18-.16.36-.2.55-.05.19-.07.39-.07.6,0,.31.05.55.14.7.1.16.24.23.43.23.15,0,.26-.06.34-.17s.16-.34.24-.67l.05-.22c.1-.45.23-.76.4-.95s.42-.28.73-.28c.36,0,.64.14.85.42.21.28.31.67.31,1.16,0,.2-.02.42-.06.64-.04.22-.1.46-.18.7h-.65c.12-.23.21-.46.27-.69.06-.23.09-.45.09-.67,0-.3-.05-.52-.15-.68-.1-.16-.24-.24-.43-.24-.17,0-.3.06-.39.17-.09.11-.18.37-.26.76l-.05.22c-.08.39-.21.67-.38.84-.17.17-.4.26-.7.26-.36,0-.64-.13-.83-.38-.2-.26-.29-.62-.29-1.09,0-.23.02-.45.05-.66.03-.21.08-.39.15-.57Z"/>
            <path id="DejaVuSans-65-6" data-name="DejaVuSans-65" d="M6.91,111.33h.31v2.89c.43-.03.76-.16.99-.39.23-.23.34-.56.34-.98,0-.24-.03-.48-.09-.7s-.15-.45-.27-.68h.6c.1.23.17.46.22.69s.08.48.08.72c0,.61-.18,1.09-.53,1.45-.36.36-.84.53-1.44.53s-1.12-.17-1.49-.51c-.37-.34-.55-.79-.55-1.37,0-.51.17-.92.5-1.22.33-.3.78-.45,1.35-.45ZM6.72,111.96c-.34,0-.62.1-.82.29-.21.19-.31.44-.31.75,0,.35.1.63.3.84s.48.33.84.36v-2.24Z"/>
            <path id="DejaVuSans-66-5" data-name="DejaVuSans-66" d="M3.66,108.36h.52v.6c0,.23.05.38.14.47.09.09.26.13.49.13h.34v-1.04h.49v1.04h3.34v.63h-3.34v.6h-.49v-.6h-.27c-.43,0-.74-.1-.93-.3-.2-.2-.29-.51-.29-.94v-.6Z"/>
            <path id="DejaVuSans-75-2" data-name="DejaVuSans-75" d="M7.47,107.9h-2.32v-.63h2.29c.36,0,.63-.07.82-.21.18-.14.27-.35.27-.64,0-.34-.11-.61-.32-.8-.22-.2-.51-.3-.89-.3h-2.17v-.63h3.83v.63h-.59c.23.15.41.33.52.53.11.2.17.44.17.7,0,.44-.14.77-.41,1-.27.23-.67.34-1.2.34Z"/>
            <path id="DejaVuSans-6c-6" data-name="DejaVuSans-6c" d="M3.66,103.4v-.63h5.32v.63H3.66Z"/>
            <path id="DejaVuSans-6c-7" data-name="DejaVuSans-6c" d="M3.66,99.23v-.63h5.32v.63H3.66Z"/>
            <path id="DejaVuSans-69-5" data-name="DejaVuSans-69" d="M5.15,97.28v-.63h3.83v.63h-3.83ZM3.66,97.28v-.63h.8v.63h-.8Z"/>
            <path id="DejaVuSans-66-6" data-name="DejaVuSans-66" d="M3.66,93.4h.52v.6c0,.23.05.38.14.47.09.09.26.13.49.13h.34v-1.04h.49v1.04h3.34v.63h-3.34v.6h-.49v-.6h-.27c-.43,0-.74-.1-.93-.3-.2-.2-.29-.51-.29-.94v-.6Z"/>
            <path id="DejaVuSans-65-7" data-name="DejaVuSans-65" d="M6.91,89.6h.31v2.89c.43-.03.76-.16.99-.39.23-.23.34-.56.34-.98,0-.24-.03-.48-.09-.7s-.15-.45-.27-.68h.6c.1.23.17.46.22.69s.08.48.08.72c0,.61-.18,1.09-.53,1.45-.36.36-.84.53-1.44.53s-1.12-.17-1.49-.51c-.37-.34-.55-.79-.55-1.37,0-.51.17-.92.5-1.22.33-.3.78-.45,1.35-.45ZM6.72,90.23c-.34,0-.62.1-.82.29-.21.19-.31.44-.31.75,0,.35.1.63.3.84s.48.33.84.36v-2.24Z"/>
            <path id="DejaVuSans-28-2" data-name="DejaVuSans-28" d="M3.67,84.83c.52.3,1.04.53,1.56.68.51.15,1.03.22,1.56.22s1.05-.07,1.56-.22,1.04-.38,1.56-.68v.55c-.54.34-1.06.6-1.58.77-.52.17-1.03.25-1.54.25s-1.02-.08-1.53-.25c-.52-.17-1.04-.43-1.58-.77v-.55Z"/>
            <path id="DejaVuSans-63-2" data-name="DejaVuSans-63" d="M5.3,80.85h.59c-.1.18-.17.36-.22.53s-.07.36-.07.54c0,.41.13.73.39.95.26.23.62.34,1.09.34s.83-.11,1.09-.34c.26-.23.39-.54.39-.95,0-.18-.02-.36-.07-.54s-.12-.36-.22-.53h.58c.08.18.14.36.18.55.04.19.06.39.06.6,0,.58-.18,1.04-.54,1.37-.36.34-.85.51-1.47.51s-1.11-.17-1.47-.51c-.36-.34-.54-.81-.54-1.41,0-.19.02-.38.06-.57.04-.18.1-.36.18-.54Z"/>
            <path id="DejaVuSans-79-2" data-name="DejaVuSans-79" d="M9.33,78.17c.46.18.75.35.89.52.14.17.21.39.21.68v.5h-.53v-.37c0-.17-.04-.31-.12-.4-.08-.1-.28-.2-.58-.32l-.29-.11-3.77,1.55v-.67l2.99-1.2-2.99-1.2v-.67l4.18,1.68Z"/>
            <path id="DejaVuSans-63-3" data-name="DejaVuSans-63" d="M5.3,72.86h.59c-.1.18-.17.36-.22.53s-.07.36-.07.54c0,.41.13.73.39.95.26.23.62.34,1.09.34s.83-.11,1.09-.34c.26-.23.39-.54.39-.95,0-.18-.02-.36-.07-.54s-.12-.36-.22-.53h.58c.08.18.14.36.18.55.04.19.06.39.06.6,0,.58-.18,1.04-.54,1.37-.36.34-.85.51-1.47.51s-1.11-.17-1.47-.51c-.36-.34-.54-.81-.54-1.41,0-.19.02-.38.06-.57.04-.18.1-.36.18-.54Z"/>
            <path id="DejaVuSans-6c-8" data-name="DejaVuSans-6c" d="M3.66,71.77v-.63h5.32v.63H3.66Z"/>
            <path id="DejaVuSans-65-8" data-name="DejaVuSans-65" d="M6.91,66.55h.31v2.89c.43-.03.76-.16.99-.39.23-.23.34-.56.34-.98,0-.24-.03-.48-.09-.7s-.15-.45-.27-.68h.6c.1.23.17.46.22.69s.08.48.08.72c0,.61-.18,1.09-.53,1.45-.36.36-.84.53-1.44.53s-1.12-.17-1.49-.51c-.37-.34-.55-.79-.55-1.37,0-.51.17-.92.5-1.22.33-.3.78-.45,1.35-.45ZM6.72,67.18c-.34,0-.62.1-.82.29-.21.19-.31.44-.31.75,0,.35.1.63.3.84s.48.33.84.36v-2.24Z"/>
            <path id="DejaVuSans-73-3" data-name="DejaVuSans-73" d="M5.26,63.08h.6c-.09.18-.16.36-.2.55-.05.19-.07.39-.07.6,0,.31.05.55.14.7.1.16.24.23.43.23.15,0,.26-.06.34-.17s.16-.34.24-.67l.05-.22c.1-.45.23-.76.4-.95s.42-.28.73-.28c.36,0,.64.14.85.42.21.28.31.67.31,1.16,0,.2-.02.42-.06.64-.04.22-.1.46-.18.7h-.65c.12-.23.21-.46.27-.69.06-.23.09-.45.09-.67,0-.3-.05-.52-.15-.68-.1-.16-.24-.24-.43-.24-.17,0-.3.06-.39.17-.09.11-.18.37-.26.76l-.05.22c-.08.39-.21.67-.38.84-.17.17-.4.26-.7.26-.36,0-.64-.13-.83-.38-.2-.26-.29-.62-.29-1.09,0-.23.02-.45.05-.66.03-.21.08-.39.15-.57Z"/>
            <path id="DejaVuSans-29-2" data-name="DejaVuSans-29" d="M3.67,61.97v-.55c.54-.34,1.06-.6,1.58-.77.51-.17,1.03-.25,1.53-.25s1.02.08,1.54.25c.52.17,1.04.43,1.58.77v.55c-.52-.3-1.04-.53-1.56-.68-.52-.15-1.04-.22-1.56-.22s-1.05.07-1.56.22c-.51.15-1.03.38-1.56.68Z"/>
          </g>
        </g>
      </g>
      <g id="patch_3" data-name="patch 3">
        <path class="cls-12" d="M27.98,201.36V21.18"/>
      </g>
      <g id="patch_5" data-name="patch 5">
        <path class="cls-12" d="M27.98,201.36h220.44"/>
      </g>
      <g id="patch_6" data-name="patch 6">
        <path class="cls-12" d="M27.98,21.18h220.44"/>
      </g>
      <g id="line2d_17" data-name="line2d 17">
        <g class="cls-29">
          <path class="cls-14" d="M69.38,21.18h82.8l41.4,81.05,41.4,71.02"/>
        </g>
        <g class="cls-37">
          <g>
            <path id="m4a766d8a74" class="cls-31" d="M66.38,24.18h6v-6h-6v6Z"/>
            <path id="m4a766d8a74-2" data-name="m4a766d8a74" class="cls-31" d="M107.78,24.18h6v-6h-6v6Z"/>
            <path id="m4a766d8a74-3" data-name="m4a766d8a74" class="cls-31" d="M149.18,24.18h6v-6h-6v6Z"/>
            <path id="m4a766d8a74-4" data-name="m4a766d8a74" class="cls-31" d="M190.58,105.24h6v-6h-6v6Z"/>
            <path id="m4a766d8a74-5" data-name="m4a766d8a74" class="cls-31" d="M231.98,176.26h6v-6h-6v6Z"/>
          </g>
        </g>
      </g>
      <g id="line2d_18" data-name="line2d 18">
        <g class="cls-34">
          <path class="cls-16" d="M69.38,21.18h124.2l41.4,103.03"/>
        </g>
        <g class="cls-3">
          <g>
            <path id="mf87d44443f" class="cls-30" d="M69.38,18.18l-3,6h6l-3-6Z"/>
            <path id="mf87d44443f-2" data-name="mf87d44443f" class="cls-30" d="M110.78,18.18l-3,6h6l-3-6Z"/>
            <path id="mf87d44443f-3" data-name="mf87d44443f" class="cls-30" d="M152.18,18.18l-3,6h6l-3-6Z"/>
            <path id="mf87d44443f-4" data-name="mf87d44443f" class="cls-30" d="M193.58,18.18l-3,6h6l-3-6Z"/>
            <path id="mf87d44443f-5" data-name="mf87d44443f" class="cls-30" d="M234.98,121.21l-3,6h6l-3-6Z"/>
          </g>
        </g>
      </g>
      <g id="line2d_19" data-name="line2d 19">
        <g class="cls-32">
          <path class="cls-10" d="M69.38,21.18h165.6"/>
        </g>
        <g class="cls-1">
          <g>
            <path id="m838302bee6" class="cls-36" d="M69.38,25.43l4.24-4.24-4.24-4.24-4.24,4.24,4.24,4.24Z"/>
            <path id="m838302bee6-2" data-name="m838302bee6" class="cls-36" d="M110.78,25.43l4.24-4.24-4.24-4.24-4.24,4.24,4.24,4.24Z"/>
            <path id="m838302bee6-3" data-name="m838302bee6" class="cls-36" d="M152.18,25.43l4.24-4.24-4.24-4.24-4.24,4.24,4.24,4.24Z"/>
            <path id="m838302bee6-4" data-name="m838302bee6" class="cls-36" d="M193.58,25.43l4.24-4.24-4.24-4.24-4.24,4.24,4.24,4.24Z"/>
            <path id="m838302bee6-5" data-name="m838302bee6" class="cls-36" d="M234.98,25.43l4.24-4.24-4.24-4.24-4.24,4.24,4.24,4.24Z"/>
          </g>
        </g>
      </g>
      <g id="line2d_20" data-name="line2d 20">
        <g class="cls-2">
          <path class="cls-6" d="M69.38,21.18h124.2l41.4,170.48"/>
        </g>
        <g class="cls-33">
          <g>
            <path id="m330a315b7d" class="cls-28" d="M69.38,24.18l3-6h-6l3,6Z"/>
            <path id="m330a315b7d-2" data-name="m330a315b7d" class="cls-28" d="M110.78,24.18l3-6h-6l3,6Z"/>
            <path id="m330a315b7d-3" data-name="m330a315b7d" class="cls-28" d="M152.18,24.18l3-6h-6l3,6Z"/>
            <path id="m330a315b7d-4" data-name="m330a315b7d" class="cls-28" d="M193.58,24.18l3-6h-6l3,6Z"/>
            <path id="m330a315b7d-5" data-name="m330a315b7d" class="cls-28" d="M234.98,194.67l3-6h-6l3,6Z"/>
          </g>
        </g>
      </g>
      <g id="line2d_21" data-name="line2d 21">
        <g class="cls-23">
          <path class="cls-5" d="M69.38,21.18h124.2l41.4,172.41"/>
        </g>
        <g class="cls-24">
          <g>
            <path id="m1470a7da23" class="cls-40" d="M68.38,24.18h2v-2h2v-2h-2v-2h-2v2h-2v2h2v2Z"/>
            <path id="m1470a7da23-2" data-name="m1470a7da23" class="cls-40" d="M109.78,24.18h2v-2h2v-2h-2v-2h-2v2h-2v2h2v2Z"/>
            <path id="m1470a7da23-3" data-name="m1470a7da23" class="cls-40" d="M151.18,24.18h2v-2h2v-2h-2v-2h-2v2h-2v2h2v2Z"/>
            <path id="m1470a7da23-4" data-name="m1470a7da23" class="cls-40" d="M192.58,24.18h2v-2h2v-2h-2v-2h-2v2h-2v2h2v2Z"/>
            <path id="m1470a7da23-5" data-name="m1470a7da23" class="cls-40" d="M233.98,196.6h2v-2h2v-2h-2v-2h-2v2h-2v2h2v2Z"/>
          </g>
        </g>
      </g>
      <g id="line2d_22" data-name="line2d 22">
        <g class="cls-27">
          <path class="cls-4" d="M69.38,53.12l41.4,39.16,41.4,31.93,41.4,17.42,40.89,44"/>
        </g>
        <g class="cls-35">
          <g>
            <path id="mcfcb0c50d0" class="cls-21" d="M69.38,56.12c.8,0,1.56-.32,2.12-.88.56-.56.88-1.33.88-2.12s-.32-1.56-.88-2.12c-.56-.56-1.33-.88-2.12-.88s-1.56.32-2.12.88c-.56.56-.88,1.33-.88,2.12s.32,1.56.88,2.12c.56.56,1.33.88,2.12.88Z"/>
            <path id="mcfcb0c50d0-2" data-name="mcfcb0c50d0" class="cls-21" d="M110.78,95.28c.8,0,1.56-.32,2.12-.88.56-.56.88-1.33.88-2.12s-.32-1.56-.88-2.12c-.56-.56-1.33-.88-2.12-.88s-1.56.32-2.12.88c-.56.56-.88,1.33-.88,2.12s.32,1.56.88,2.12c.56.56,1.33.88,2.12.88Z"/>
            <path id="mcfcb0c50d0-3" data-name="mcfcb0c50d0" class="cls-21" d="M152.18,127.21c.8,0,1.56-.32,2.12-.88.56-.56.88-1.33.88-2.12s-.32-1.56-.88-2.12c-.56-.56-1.33-.88-2.12-.88s-1.56.32-2.12.88c-.56.56-.88,1.33-.88,2.12s.32,1.56.88,2.12c.56.56,1.33.88,2.12.88Z"/>
            <path id="mcfcb0c50d0-4" data-name="mcfcb0c50d0" class="cls-21" d="M193.58,144.73c.8,0,1.56-.32,2.12-.88.56-.56.88-1.33.88-2.12s-.32-1.56-.88-2.12c-.56-.56-1.33-.88-2.12-.88s-1.56.32-2.12.88c-.56.56-.88,1.33-.88,2.12s.32,1.56.88,2.12c.56.56,1.33.88,2.12.88Z"/>
            <path id="mcfcb0c50d0-5" data-name="mcfcb0c50d0" class="cls-21" d="M234.98,188.17c.8,0,1.56-.32,2.12-.88.56-.56.88-1.33.88-2.12s-.32-1.56-.88-2.12c-.56-.56-1.33-.88-2.12-.88s-1.56.32-2.12.88c-.56.56-.88,1.33-.88,2.12s.32,1.56.88,2.12c.56.56,1.33.88,2.12.88Z"/>
          </g>
        </g>
      </g>
      <g id="legend_1" data-name="legend 1">
        <g id="line2d_23" data-name="line2d 23">
          <path class="cls-19" d="M37.4,144.45h7.02"/>
          <path id="ma32838b036" class="cls-21" d="M40.91,146.2c.46,0,.91-.18,1.24-.51.33-.33.51-.77.51-1.24s-.18-.91-.51-1.24c-.33-.33-.77-.51-1.24-.51s-.91.18-1.24.51c-.33.33-.51.77-.51,1.24s.18.91.51,1.24c.33.33.77.51,1.24.51Z"/>
        </g>
        <g id="text_20" data-name="text 20">
          <g>
            <path id="DejaVuSans-53" d="M51.63,142.54v.52c-.2-.1-.39-.17-.57-.22-.18-.05-.35-.07-.52-.07-.29,0-.51.06-.67.17-.16.11-.24.27-.24.48,0,.17.05.31.16.39.1.09.3.16.59.21l.32.07c.4.08.69.21.88.4s.28.45.28.77c0,.38-.13.67-.38.87-.26.2-.63.3-1.12.3-.19,0-.38-.02-.59-.06-.21-.04-.43-.1-.65-.19v-.55c.22.12.43.21.64.27.21.06.41.09.61.09.3,0,.54-.06.7-.18.17-.12.25-.29.25-.51,0-.19-.06-.34-.18-.45s-.31-.19-.58-.25l-.32-.06c-.4-.08-.68-.2-.86-.37-.18-.17-.27-.4-.27-.7,0-.35.12-.62.37-.82.25-.2.58-.3,1.01-.3.19,0,.37.02.56.05.19.03.39.08.59.15Z"/>
            <path id="DejaVuSans-50" d="M53.23,142.85v1.48h.67c.25,0,.44-.06.57-.19.14-.13.2-.31.2-.55s-.07-.42-.2-.55c-.14-.13-.33-.19-.57-.19h-.67ZM52.7,142.41h1.2c.44,0,.78.1,1,.3.23.2.34.49.34.88s-.11.68-.34.88c-.23.2-.56.3-1,.3h-.67v1.58h-.53v-3.94Z"/>
            <path id="DejaVuSans-49" d="M55.95,142.41h.53v3.94h-.53v-3.94Z"/>
            <path id="DejaVuSans-2b" d="M59.5,142.96v1.47h1.47v.45h-1.47v1.47h-.44v-1.47h-1.47v-.45h1.47v-1.47h.44Z"/>
            <path id="DejaVuSans-43-5" data-name="DejaVuSans-43" d="M65.02,142.71v.56c-.18-.17-.37-.29-.57-.37-.2-.08-.42-.12-.65-.12-.45,0-.79.14-1.03.41s-.36.67-.36,1.19.12.92.36,1.19.58.41,1.03.41c.23,0,.44-.04.65-.12s.39-.21.57-.37v.56c-.19.13-.38.22-.59.29-.21.06-.43.09-.66.09-.6,0-1.07-.18-1.41-.55-.34-.37-.51-.86-.51-1.49s.17-1.13.51-1.5c.34-.37.81-.55,1.41-.55.24,0,.46.03.66.09.21.06.4.16.59.28Z"/>
            <path id="DejaVuSans-42" d="M66.37,144.46v1.44h.85c.29,0,.5-.06.64-.18.14-.12.21-.3.21-.54s-.07-.43-.21-.54c-.14-.12-.35-.18-.64-.18h-.85ZM66.37,142.85v1.19h.79c.26,0,.45-.05.58-.15.13-.1.19-.25.19-.45s-.06-.35-.19-.45c-.13-.1-.32-.15-.58-.15h-.79ZM65.84,142.41h1.36c.41,0,.72.08.94.25.22.17.33.41.33.72,0,.24-.06.43-.17.58s-.28.23-.5.27c.26.06.47.17.61.35.15.18.22.4.22.67,0,.35-.12.62-.36.82-.24.19-.58.29-1.02.29h-1.41v-3.94Z"/>
            <path id="DejaVuSans-55-2" data-name="DejaVuSans-55" d="M69.49,142.41h.54v2.39c0,.42.08.73.23.91.15.19.4.28.74.28s.59-.09.74-.28c.15-.19.23-.49.23-.91v-2.39h.53v2.46c0,.51-.13.9-.38,1.16-.25.26-.63.39-1.12.39s-.87-.13-1.13-.39c-.25-.26-.38-.65-.38-1.16v-2.46Z"/>
            <path id="DejaVuSans-28-3" data-name="DejaVuSans-28" d="M76.36,142.25c-.24.4-.41.8-.52,1.2-.11.4-.17.8-.17,1.2s.06.81.17,1.21.29.8.52,1.2h-.42c-.26-.41-.46-.82-.59-1.22-.13-.4-.2-.8-.2-1.19s.06-.79.19-1.18c.13-.4.33-.8.59-1.22h.42Z"/>
            <path id="DejaVuSans-6f-5" data-name="DejaVuSans-6f" d="M78.45,143.73c-.26,0-.47.1-.62.3s-.23.48-.23.83.08.63.23.83c.15.2.36.3.62.3s.46-.1.61-.31c.15-.2.23-.48.23-.83s-.08-.63-.23-.83c-.15-.2-.36-.31-.61-.31ZM78.45,143.32c.42,0,.75.14.99.41.24.27.36.65.36,1.14s-.12.86-.36,1.14c-.24.28-.57.41-.99.41s-.76-.14-1-.41c-.24-.28-.36-.66-.36-1.14s.12-.86.36-1.14c.24-.27.57-.41,1-.41Z"/>
            <path id="DejaVuSans-75-3" data-name="DejaVuSans-75" d="M80.56,145.18v-1.79h.49v1.77c0,.28.05.49.16.63.11.14.27.21.49.21.26,0,.47-.08.62-.25.15-.17.23-.39.23-.68v-1.67h.49v2.95h-.49v-.45c-.12.18-.25.31-.41.4-.16.09-.34.13-.54.13-.34,0-.6-.11-.77-.32-.18-.21-.26-.52-.26-.93Z"/>
            <path id="DejaVuSans-72-3" data-name="DejaVuSans-72" d="M85.74,143.84c-.05-.03-.11-.05-.18-.07-.06-.02-.13-.02-.21-.02-.27,0-.49.09-.63.27s-.22.43-.22.77v1.56h-.49v-2.95h.49v.46c.1-.18.24-.31.4-.4.16-.09.36-.13.6-.13.03,0,.07,0,.11,0,.04,0,.09.01.13.02v.5Z"/>
            <path id="DejaVuSans-73-4" data-name="DejaVuSans-73" d="M88.13,143.48v.46c-.14-.07-.28-.12-.43-.16-.15-.04-.3-.05-.46-.05-.24,0-.42.04-.54.11-.12.07-.18.18-.18.33,0,.11.04.2.13.26s.26.13.52.18l.17.04c.34.07.59.18.73.31s.22.32.22.56c0,.27-.11.49-.33.65-.22.16-.52.24-.9.24-.16,0-.32-.02-.49-.05-.17-.03-.35-.08-.54-.14v-.5c.18.09.36.16.53.21.17.05.35.07.52.07.23,0,.4-.04.53-.12.12-.08.18-.19.18-.33,0-.13-.04-.23-.13-.3-.09-.07-.28-.14-.58-.2l-.17-.04c-.3-.06-.52-.16-.65-.29-.13-.13-.2-.31-.2-.54,0-.28.1-.49.3-.64.2-.15.48-.23.84-.23.18,0,.35.01.51.04.16.03.3.07.44.12Z"/>
            <path id="DejaVuSans-29-3" data-name="DejaVuSans-29" d="M88.99,142.25h.42c.26.41.46.82.59,1.22.13.4.2.79.2,1.18s-.07.79-.2,1.19c-.13.4-.33.8-.59,1.22h-.42c.23-.4.41-.8.52-1.2.12-.4.17-.8.17-1.21s-.06-.81-.17-1.2c-.12-.4-.29-.8-.52-1.2Z"/>
          </g>
        </g>
        <g id="line2d_24" data-name="line2d 24">
          <path class="cls-18" d="M37.4,151.3h7.02"/>
          <path id="m324e139e96" class="cls-31" d="M39.41,152.8h3v-3h-3v3Z"/>
        </g>
        <g id="text_21" data-name="text 21">
          <g>
            <path id="DejaVuSans-53-2" data-name="DejaVuSans-53" d="M51.63,149.38v.52c-.2-.1-.39-.17-.57-.22-.18-.05-.35-.07-.52-.07-.29,0-.51.06-.67.17-.16.11-.24.27-.24.48,0,.17.05.31.16.39.1.09.3.16.59.21l.32.07c.4.08.69.21.88.4s.28.45.28.77c0,.38-.13.67-.38.87-.26.2-.63.3-1.12.3-.19,0-.38-.02-.59-.06-.21-.04-.43-.1-.65-.19v-.55c.22.12.43.21.64.27.21.06.41.09.61.09.3,0,.54-.06.7-.18.17-.12.25-.29.25-.51,0-.19-.06-.34-.18-.45s-.31-.19-.58-.25l-.32-.06c-.4-.08-.68-.2-.86-.37-.18-.17-.27-.4-.27-.7,0-.35.12-.62.37-.82.25-.2.58-.3,1.01-.3.19,0,.37.02.56.05.19.03.39.08.59.15Z"/>
            <path id="DejaVuSans-50-2" data-name="DejaVuSans-50" d="M53.23,149.69v1.48h.67c.25,0,.44-.06.57-.19.14-.13.2-.31.2-.55s-.07-.42-.2-.55c-.14-.13-.33-.19-.57-.19h-.67ZM52.7,149.25h1.2c.44,0,.78.1,1,.3.23.2.34.49.34.88s-.11.68-.34.88c-.23.2-.56.3-1,.3h-.67v1.58h-.53v-3.94Z"/>
            <path id="DejaVuSans-49-2" data-name="DejaVuSans-49" d="M55.95,149.25h.53v3.94h-.53v-3.94Z"/>
            <path id="DejaVuSans-2b-2" data-name="DejaVuSans-2b" d="M59.5,149.8v1.47h1.47v.45h-1.47v1.47h-.44v-1.47h-1.47v-.45h1.47v-1.47h.44Z"/>
            <path id="DejaVuSans-54" d="M61.53,149.25h3.33v.45h-1.4v3.49h-.53v-3.49h-1.4v-.45Z"/>
            <path id="DejaVuSans-42-2" data-name="DejaVuSans-42" d="M65.9,151.31v1.44h.85c.29,0,.5-.06.64-.18.14-.12.21-.3.21-.54s-.07-.43-.21-.54c-.14-.12-.35-.18-.64-.18h-.85ZM65.9,149.69v1.19h.79c.26,0,.45-.05.58-.15.13-.1.19-.25.19-.45s-.06-.35-.19-.45c-.13-.1-.32-.15-.58-.15h-.79ZM65.37,149.25h1.36c.41,0,.72.08.94.25.22.17.33.41.33.72,0,.24-.06.43-.17.58s-.28.23-.5.27c.26.06.47.17.61.35.15.18.22.4.22.67,0,.35-.12.62-.36.82-.24.19-.58.29-1.02.29h-1.41v-3.94Z"/>
            <path id="DejaVuSans-55-3" data-name="DejaVuSans-55" d="M69.01,149.25h.54v2.39c0,.42.08.73.23.91.15.19.4.28.74.28s.59-.09.74-.28c.15-.19.23-.49.23-.91v-2.39h.53v2.46c0,.51-.13.9-.38,1.16-.25.26-.63.39-1.12.39s-.87-.13-1.13-.39c-.25-.26-.38-.65-.38-1.16v-2.46Z"/>
          </g>
        </g>
        <g id="line2d_25" data-name="line2d 25">
          <path class="cls-11" d="M37.4,158.15h7.02"/>
          <path id="m0fa9bcca7b" class="cls-30" d="M40.91,156.65l-1.5,3h3l-1.5-3Z"/>
        </g>
        <g id="text_22" data-name="text 22">
          <g>
            <path id="DejaVuSans-4c-2" data-name="DejaVuSans-4c" d="M49.27,156.1h.53v3.49h1.92v.45h-2.45v-3.94Z"/>
            <path id="DejaVuSans-69-6" data-name="DejaVuSans-69" d="M52.26,157.08h.49v2.95h-.49v-2.95ZM52.26,155.93h.49v.62h-.49v-.62Z"/>
            <path id="DejaVuSans-6e-4" data-name="DejaVuSans-6e" d="M56.21,158.25v1.78h-.49v-1.77c0-.28-.05-.49-.16-.63-.11-.14-.27-.21-.49-.21-.26,0-.47.08-.62.25-.15.17-.23.39-.23.68v1.67h-.49v-2.95h.49v.46c.12-.18.25-.31.41-.4.16-.09.34-.13.55-.13.34,0,.6.1.77.31.17.21.26.52.26.93Z"/>
            <path id="DejaVuSans-65-9" data-name="DejaVuSans-65" d="M59.71,158.44v.24h-2.23c.02.33.12.59.3.76.18.17.43.26.75.26.19,0,.37-.02.54-.07s.35-.11.52-.21v.46c-.17.07-.35.13-.54.17s-.37.06-.56.06c-.47,0-.84-.14-1.12-.41-.28-.27-.41-.65-.41-1.11s.13-.87.39-1.15c.26-.28.61-.43,1.06-.43.4,0,.71.13.94.38.23.26.35.6.35,1.04ZM59.22,158.3c0-.26-.08-.48-.22-.63-.15-.16-.34-.24-.58-.24-.27,0-.49.08-.65.23s-.26.37-.28.65h1.73Z"/>
            <path id="DejaVuSans-61-5" data-name="DejaVuSans-61" d="M61.85,158.55c-.39,0-.66.04-.82.13s-.23.24-.23.46c0,.17.06.31.17.41.11.1.27.15.46.15.27,0,.49-.1.65-.29s.24-.44.24-.76v-.11h-.48ZM62.81,158.35v1.68h-.49v-.45c-.11.18-.25.31-.41.4-.17.09-.37.13-.61.13-.3,0-.54-.08-.72-.25-.18-.17-.27-.4-.27-.68,0-.33.11-.58.33-.75.22-.17.55-.25,1-.25h.68v-.05c0-.22-.07-.4-.22-.52s-.35-.18-.62-.18c-.17,0-.33.02-.49.06-.16.04-.31.1-.46.18v-.45c.18-.07.35-.12.52-.15.17-.03.33-.05.49-.05.43,0,.75.11.96.33.21.22.32.56.32,1.01Z"/>
            <path id="DejaVuSans-72-4" data-name="DejaVuSans-72" d="M65.52,157.54c-.05-.03-.11-.05-.18-.07-.06-.02-.13-.02-.21-.02-.27,0-.49.09-.63.27s-.22.43-.22.77v1.56h-.49v-2.95h.49v.46c.1-.18.24-.31.4-.4.16-.09.36-.13.6-.13.03,0,.07,0,.11,0,.04,0,.09.01.13.02v.5Z"/>
          </g>
        </g>
        <g id="line2d_26" data-name="line2d 26">
          <path class="cls-7" d="M37.4,164.99h7.02"/>
          <path id="m1519c0ca4a" class="cls-36" d="M40.91,167.11l2.12-2.12-2.12-2.12-2.12,2.12,2.12,2.12Z"/>
        </g>
        <g id="text_23" data-name="text 23">
          <g>
            <path id="DejaVuSans-4c-3" data-name="DejaVuSans-4c" d="M49.27,162.95h.53v3.49h1.92v.45h-2.45v-3.94Z"/>
            <path id="DejaVuSans-6f-6" data-name="DejaVuSans-6f" d="M53.31,164.27c-.26,0-.47.1-.62.3s-.23.48-.23.83.08.63.23.83c.15.2.36.3.62.3s.46-.1.61-.31c.15-.2.23-.48.23-.83s-.08-.63-.23-.83c-.15-.2-.36-.31-.61-.31ZM53.31,163.86c.42,0,.75.14.99.41.24.27.36.65.36,1.14s-.12.86-.36,1.14c-.24.28-.57.41-.99.41s-.76-.14-1-.41c-.24-.28-.36-.66-.36-1.14s.12-.86.36-1.14c.24-.27.57-.41,1-.41Z"/>
            <path id="DejaVuSans-67-2" data-name="DejaVuSans-67" d="M57.41,165.37c0-.35-.07-.62-.22-.82-.14-.19-.35-.29-.61-.29s-.46.1-.61.29c-.15.19-.22.47-.22.82s.07.62.22.82c.15.19.35.29.61.29s.47-.1.61-.29c.15-.19.22-.47.22-.82ZM57.9,166.52c0,.5-.11.88-.33,1.12-.22.25-.56.37-1.03.37-.17,0-.33-.01-.48-.04s-.3-.06-.44-.12v-.47c.14.08.28.13.42.17.14.04.28.06.42.06.32,0,.56-.08.71-.25.16-.17.24-.42.24-.75v-.24c-.1.17-.23.3-.38.39s-.34.13-.56.13c-.36,0-.65-.14-.87-.41-.22-.28-.33-.64-.33-1.1s.11-.82.33-1.1c.22-.28.51-.41.87-.41.22,0,.41.04.56.13s.28.22.38.39v-.45h.49v2.59Z"/>
            <path id="DejaVuSans-2d-4" data-name="DejaVuSans-2d" d="M58.65,165.19h1.42v.43h-1.42v-.43Z"/>
            <path id="DejaVuSans-42-3" data-name="DejaVuSans-42" d="M61.2,165v1.44h.85c.29,0,.5-.06.64-.18.14-.12.21-.3.21-.54s-.07-.43-.21-.54c-.14-.12-.35-.18-.64-.18h-.85ZM61.2,163.38v1.19h.79c.26,0,.45-.05.58-.15.13-.1.19-.25.19-.45s-.06-.35-.19-.45c-.13-.1-.32-.15-.58-.15h-.79ZM60.67,162.95h1.36c.41,0,.72.08.94.25.22.17.33.41.33.72,0,.24-.06.43-.17.58s-.28.23-.5.27c.26.06.47.17.61.35.15.18.22.4.22.67,0,.35-.12.62-.36.82-.24.19-.58.29-1.02.29h-1.41v-3.94Z"/>
            <path id="DejaVuSans-61-6" data-name="DejaVuSans-61" d="M65.69,165.4c-.39,0-.66.04-.82.13s-.23.24-.23.46c0,.17.06.31.17.41.11.1.27.15.46.15.27,0,.49-.1.65-.29s.24-.44.24-.76v-.11h-.48ZM66.66,165.2v1.68h-.49v-.45c-.11.18-.25.31-.41.4-.17.09-.37.13-.61.13-.3,0-.54-.08-.72-.25-.18-.17-.27-.4-.27-.68,0-.33.11-.58.33-.75.22-.17.55-.25,1-.25h.68v-.05c0-.22-.07-.4-.22-.52s-.35-.18-.62-.18c-.17,0-.33.02-.49.06-.16.04-.31.1-.46.18v-.45c.18-.07.35-.12.52-.15.17-.03.33-.05.49-.05.43,0,.75.11.96.33.21.22.32.56.32,1.01Z"/>
            <path id="DejaVuSans-79-3" data-name="DejaVuSans-79" d="M68.89,167.16c-.14.35-.27.58-.4.69-.13.11-.3.16-.52.16h-.39v-.41h.29c.13,0,.24-.03.31-.1.07-.06.16-.21.25-.45l.09-.22-1.19-2.91h.51l.92,2.31.92-2.31h.51l-1.3,3.23Z"/>
            <path id="DejaVuSans-65-10" data-name="DejaVuSans-65" d="M73.38,165.28v.24h-2.23c.02.33.12.59.3.76.18.17.43.26.75.26.19,0,.37-.02.54-.07s.35-.11.52-.21v.46c-.17.07-.35.13-.54.17s-.37.06-.56.06c-.47,0-.84-.14-1.12-.41-.28-.27-.41-.65-.41-1.11s.13-.87.39-1.15c.26-.28.61-.43,1.06-.43.4,0,.71.13.94.38.23.26.35.6.35,1.04ZM72.9,165.14c0-.26-.08-.48-.22-.63-.15-.16-.34-.24-.58-.24-.27,0-.49.08-.65.23s-.26.37-.28.65h1.73Z"/>
            <path id="DejaVuSans-73-5" data-name="DejaVuSans-73" d="M76.06,164.02v.46c-.14-.07-.28-.12-.43-.16-.15-.04-.3-.05-.46-.05-.24,0-.42.04-.54.11-.12.07-.18.18-.18.33,0,.11.04.2.13.26s.26.13.52.18l.17.04c.34.07.59.18.73.31s.22.32.22.56c0,.27-.11.49-.33.65-.22.16-.52.24-.9.24-.16,0-.32-.02-.49-.05-.17-.03-.35-.08-.54-.14v-.5c.18.09.36.16.53.21.17.05.35.07.52.07.23,0,.4-.04.53-.12.12-.08.18-.19.18-.33,0-.13-.04-.23-.13-.3-.09-.07-.28-.14-.58-.2l-.17-.04c-.3-.06-.52-.16-.65-.29-.13-.13-.2-.31-.2-.54,0-.28.1-.49.3-.64.2-.15.48-.23.84-.23.18,0,.35.01.51.04.16.03.3.07.44.12Z"/>
          </g>
        </g>
        <g id="line2d_27" data-name="line2d 27">
          <path class="cls-8" d="M37.4,171.84h7.02"/>
          <path id="mb7af70b76a" class="cls-28" d="M40.91,173.34l1.5-3h-3l1.5,3Z"/>
        </g>
        <g id="text_24" data-name="text 24">
          <g>
            <path id="DejaVuSans-57-2" data-name="DejaVuSans-57" d="M48.92,169.79h.54l.83,3.33.83-3.33h.6l.83,3.33.83-3.33h.54l-.99,3.94h-.67l-.83-3.42-.84,3.42h-.67l-.99-3.94Z"/>
            <path id="DejaVuSans-69-7" data-name="DejaVuSans-69" d="M54.47,170.78h.49v2.95h-.49v-2.95ZM54.47,169.63h.49v.62h-.49v-.62Z"/>
            <path id="DejaVuSans-65-11" data-name="DejaVuSans-65" d="M58.49,172.13v.24h-2.23c.02.33.12.59.3.76.18.17.43.26.75.26.19,0,.37-.02.54-.07s.35-.11.52-.21v.46c-.17.07-.35.13-.54.17s-.37.06-.56.06c-.47,0-.84-.14-1.12-.41-.28-.27-.41-.65-.41-1.11s.13-.87.39-1.15c.26-.28.61-.43,1.06-.43.4,0,.71.13.94.38.23.26.35.6.35,1.04ZM58.01,171.99c0-.26-.08-.48-.22-.63-.15-.16-.34-.24-.58-.24-.27,0-.49.08-.65.23s-.26.37-.28.65h1.73Z"/>
            <path id="DejaVuSans-6e-5" data-name="DejaVuSans-6e" d="M61.75,171.95v1.78h-.49v-1.77c0-.28-.05-.49-.16-.63-.11-.14-.27-.21-.49-.21-.26,0-.47.08-.62.25-.15.17-.23.39-.23.68v1.67h-.49v-2.95h.49v.46c.12-.18.25-.31.41-.4.16-.09.34-.13.55-.13.34,0,.6.1.77.31.17.21.26.52.26.93Z"/>
            <path id="DejaVuSans-65-12" data-name="DejaVuSans-65" d="M65.24,172.13v.24h-2.23c.02.33.12.59.3.76.18.17.43.26.75.26.19,0,.37-.02.54-.07s.35-.11.52-.21v.46c-.17.07-.35.13-.54.17s-.37.06-.56.06c-.47,0-.84-.14-1.12-.41-.28-.27-.41-.65-.41-1.11s.13-.87.39-1.15c.26-.28.61-.43,1.06-.43.4,0,.71.13.94.38.23.26.35.6.35,1.04ZM64.75,171.99c0-.26-.08-.48-.22-.63-.15-.16-.34-.24-.58-.24-.27,0-.49.08-.65.23s-.26.37-.28.65h1.73Z"/>
            <path id="DejaVuSans-72-5" data-name="DejaVuSans-72" d="M67.75,171.23c-.05-.03-.11-.05-.18-.07-.06-.02-.13-.02-.21-.02-.27,0-.49.09-.63.27s-.22.43-.22.77v1.56h-.49v-2.95h.49v.46c.1-.18.24-.31.4-.4.16-.09.36-.13.6-.13.03,0,.07,0,.11,0,.04,0,.09.01.13.02v.5Z"/>
          </g>
        </g>
        <g id="line2d_28" data-name="line2d 28">
          <path class="cls-13" d="M37.4,178.69h7.02"/>
          <path id="m784f5c8dc4" class="cls-40" d="M40.41,180.19h1v-1h1v-1h-1v-1h-1v1h-1v1h1v1Z"/>
        </g>
        <g id="text_25" data-name="text 25">
          <g>
            <path id="DejaVuSans-57-3" data-name="DejaVuSans-57" d="M48.92,176.64h.54l.83,3.33.83-3.33h.6l.83,3.33.83-3.33h.54l-.99,3.94h-.67l-.83-3.42-.84,3.42h-.67l-.99-3.94Z"/>
            <path id="DejaVuSans-65-13" data-name="DejaVuSans-65" d="M56.8,178.98v.24h-2.23c.02.33.12.59.3.76.18.17.43.26.75.26.19,0,.37-.02.54-.07s.35-.11.52-.21v.46c-.17.07-.35.13-.54.17s-.37.06-.56.06c-.47,0-.84-.14-1.12-.41-.28-.27-.41-.65-.41-1.11s.13-.87.39-1.15c.26-.28.61-.43,1.06-.43.4,0,.71.13.94.38.23.26.35.6.35,1.04ZM56.31,178.83c0-.26-.08-.48-.22-.63-.15-.16-.34-.24-.58-.24-.27,0-.49.08-.65.23s-.26.37-.28.65h1.73Z"/>
            <path id="DejaVuSans-69-8" data-name="DejaVuSans-69" d="M57.59,177.62h.49v2.95h-.49v-2.95ZM57.59,176.47h.49v.62h-.49v-.62Z"/>
            <path id="DejaVuSans-62" d="M61.21,179.1c0-.36-.07-.64-.22-.84s-.35-.3-.6-.3-.46.1-.61.3-.22.48-.22.84.07.64.22.84c.15.2.35.3.61.3s.46-.1.6-.3c.15-.2.22-.48.22-.84ZM59.56,178.07c.1-.18.23-.31.39-.39.16-.09.34-.13.56-.13.36,0,.65.14.87.43.22.28.34.66.34,1.12s-.11.84-.34,1.12c-.22.28-.52.43-.87.43-.22,0-.4-.04-.56-.13-.16-.09-.28-.22-.39-.39v.44h-.49v-4.1h.49v1.6Z"/>
            <path id="DejaVuSans-75-4" data-name="DejaVuSans-75" d="M62.47,179.41v-1.79h.49v1.77c0,.28.05.49.16.63.11.14.27.21.49.21.26,0,.47-.08.62-.25.15-.17.23-.39.23-.68v-1.67h.49v2.95h-.49v-.45c-.12.18-.25.31-.41.4-.16.09-.34.13-.54.13-.34,0-.6-.11-.77-.32-.18-.21-.26-.52-.26-.93Z"/>
            <path id="DejaVuSans-6c-9" data-name="DejaVuSans-6c" d="M65.94,176.47h.49v4.1h-.49v-4.1Z"/>
            <path id="DejaVuSans-6c-10" data-name="DejaVuSans-6c" d="M67.44,176.47h.49v4.1h-.49v-4.1Z"/>
          </g>
        </g>
        <g id="line2d_29" data-name="line2d 29">
          <path class="cls-17" d="M37.4,185.53h7.02"/>
        </g>
        <g id="text_26" data-name="text 26">
          <g>
            <path id="DejaVuSans-47" d="M51.95,186.86v-1.06h-.87v-.44h1.4v1.69c-.21.15-.43.26-.68.33-.25.07-.51.11-.79.11-.62,0-1.1-.18-1.44-.54-.35-.36-.52-.86-.52-1.5s.17-1.14.52-1.5c.35-.36.83-.54,1.44-.54.26,0,.5.03.73.1.23.06.44.16.64.28v.57c-.2-.17-.41-.29-.63-.38s-.45-.13-.7-.13c-.48,0-.84.13-1.09.4-.24.27-.36.67-.36,1.2s.12.93.36,1.2c.24.27.6.4,1.09.4.19,0,.36-.02.5-.05.15-.03.28-.08.4-.15Z"/>
            <path id="DejaVuSans-72-6" data-name="DejaVuSans-72" d="M55.15,184.92c-.05-.03-.11-.05-.18-.07-.06-.02-.13-.02-.21-.02-.27,0-.49.09-.63.27s-.22.43-.22.77v1.56h-.49v-2.95h.49v.46c.1-.18.24-.31.4-.4.16-.09.36-.13.6-.13.03,0,.07,0,.11,0,.04,0,.09.01.13.02v.5Z"/>
            <path id="DejaVuSans-6f-7" data-name="DejaVuSans-6f" d="M56.68,184.81c-.26,0-.47.1-.62.3s-.23.48-.23.83.08.63.23.83c.15.2.36.3.62.3s.46-.1.61-.31c.15-.2.23-.48.23-.83s-.08-.63-.23-.83c-.15-.2-.36-.31-.61-.31ZM56.68,184.4c.42,0,.75.14.99.41.24.27.36.65.36,1.14s-.12.86-.36,1.14c-.24.28-.57.41-.99.41s-.76-.14-1-.41c-.24-.28-.36-.66-.36-1.14s.12-.86.36-1.14c.24-.27.57-.41,1-.41Z"/>
            <path id="DejaVuSans-75-5" data-name="DejaVuSans-75" d="M58.79,186.26v-1.79h.49v1.77c0,.28.05.49.16.63.11.14.27.21.49.21.26,0,.47-.08.62-.25.15-.17.23-.39.23-.68v-1.67h.49v2.95h-.49v-.45c-.12.18-.25.31-.41.4-.16.09-.34.13-.54.13-.34,0-.6-.11-.77-.32-.18-.21-.26-.52-.26-.93Z"/>
            <path id="DejaVuSans-6e-6" data-name="DejaVuSans-6e" d="M64.71,185.64v1.78h-.49v-1.77c0-.28-.05-.49-.16-.63-.11-.14-.27-.21-.49-.21-.26,0-.47.08-.62.25-.15.17-.23.39-.23.68v1.67h-.49v-2.95h.49v.46c.12-.18.25-.31.41-.4.16-.09.34-.13.55-.13.34,0,.6.1.77.31.17.21.26.52.26.93Z"/>
            <path id="DejaVuSans-64-3" data-name="DejaVuSans-64" d="M67.62,184.92v-1.6h.49v4.1h-.49v-.44c-.1.18-.23.31-.39.39-.16.09-.34.13-.56.13-.36,0-.65-.14-.87-.43-.22-.29-.34-.66-.34-1.12s.11-.84.34-1.12c.22-.28.51-.43.87-.43.22,0,.41.04.56.13.16.08.28.22.39.39ZM65.97,185.95c0,.36.07.64.22.84.15.2.35.3.6.3s.46-.1.61-.3c.15-.2.22-.48.22-.84s-.07-.64-.22-.84c-.15-.2-.35-.3-.61-.3s-.46.1-.6.3-.22.48-.22.84Z"/>
            <path id="DejaVuSans-2d-5" data-name="DejaVuSans-2d" d="M68.86,185.73h1.42v.43h-1.42v-.43Z"/>
            <path id="DejaVuSans-74-2" data-name="DejaVuSans-74" d="M71.54,183.63v.84h1v.38h-1v1.6c0,.24.03.4.1.46s.2.1.4.1h.5v.41h-.5c-.37,0-.63-.07-.78-.21-.14-.14-.21-.39-.21-.76v-1.6h-.36v-.38h.36v-.84h.49Z"/>
            <path id="DejaVuSans-72-7" data-name="DejaVuSans-72" d="M74.89,184.92c-.05-.03-.11-.05-.18-.07-.06-.02-.13-.02-.21-.02-.27,0-.49.09-.63.27s-.22.43-.22.77v1.56h-.49v-2.95h.49v.46c.1-.18.24-.31.4-.4.16-.09.36-.13.6-.13.03,0,.07,0,.11,0,.04,0,.09.01.13.02v.5Z"/>
            <path id="DejaVuSans-75-6" data-name="DejaVuSans-75" d="M75.35,186.26v-1.79h.49v1.77c0,.28.05.49.16.63.11.14.27.21.49.21.26,0,.47-.08.62-.25.15-.17.23-.39.23-.68v-1.67h.49v2.95h-.49v-.45c-.12.18-.25.31-.41.4-.16.09-.34.13-.54.13-.34,0-.6-.11-.77-.32-.18-.21-.26-.52-.26-.93Z"/>
            <path id="DejaVuSans-74-3" data-name="DejaVuSans-74" d="M79.3,183.63v.84h1v.38h-1v1.6c0,.24.03.4.1.46s.2.1.4.1h.5v.41h-.5c-.37,0-.63-.07-.78-.21-.14-.14-.21-.39-.21-.76v-1.6h-.36v-.38h.36v-.84h.49Z"/>
            <path id="DejaVuSans-68" d="M83.39,185.64v1.78h-.49v-1.77c0-.28-.05-.49-.16-.63-.11-.14-.27-.21-.49-.21-.26,0-.47.08-.62.25-.15.17-.23.39-.23.68v1.67h-.49v-4.1h.49v1.61c.12-.18.25-.31.41-.4.16-.09.34-.13.55-.13.34,0,.6.1.77.31.17.21.26.52.26.93Z"/>
            <path id="DejaVuSans-52-3" data-name="DejaVuSans-52" d="M87.96,185.58c.11.04.23.12.33.25s.22.3.33.52l.54,1.08h-.57l-.5-1.01c-.13-.26-.26-.44-.38-.52s-.29-.13-.5-.13h-.58v1.66h-.53v-3.94h1.2c.45,0,.79.09,1.01.28.22.19.33.47.33.85,0,.25-.06.45-.17.62-.12.16-.28.28-.5.34ZM86.63,183.92v1.4h.67c.26,0,.45-.06.58-.18s.2-.29.2-.52-.07-.4-.2-.52-.32-.18-.58-.18h-.67Z"/>
            <path id="DejaVuSans-55-4" data-name="DejaVuSans-55" d="M89.79,183.48h.54v2.39c0,.42.08.73.23.91.15.19.4.28.74.28s.59-.09.74-.28c.15-.19.23-.49.23-.91v-2.39h.53v2.46c0,.51-.13.9-.38,1.16-.25.26-.63.39-1.12.39s-.87-.13-1.13-.39c-.25-.26-.38-.65-.38-1.16v-2.46Z"/>
            <path id="DejaVuSans-4c-4" data-name="DejaVuSans-4c" d="M93.8,183.48h.53v3.49h1.92v.45h-2.45v-3.94Z"/>
          </g>
        </g>
        <g id="patch_7" data-name="patch 7">
          <path class="cls-22" d="M37.4,194.27h7.02v-3.78h-7.02v3.78Z"/>
        </g>
        <g id="text_27" data-name="text 27">
          <g>
            <path id="DejaVuSans-43-6" data-name="DejaVuSans-43" d="M52.22,190.63v.56c-.18-.17-.37-.29-.57-.37-.2-.08-.42-.12-.65-.12-.45,0-.79.14-1.03.41s-.36.67-.36,1.19.12.92.36,1.19.58.41,1.03.41c.23,0,.44-.04.65-.12s.39-.21.57-.37v.56c-.19.13-.38.22-.59.29-.21.06-.43.09-.66.09-.6,0-1.07-.18-1.41-.55-.34-.37-.51-.86-.51-1.49s.17-1.13.51-1.5c.34-.37.81-.55,1.41-.55.24,0,.46.03.66.09.21.06.4.16.59.28Z"/>
            <path id="DejaVuSans-61-7" data-name="DejaVuSans-61" d="M54.36,192.78c-.39,0-.66.04-.82.13s-.23.24-.23.46c0,.17.06.31.17.41.11.1.27.15.46.15.27,0,.49-.1.65-.29s.24-.44.24-.76v-.11h-.48ZM55.33,192.58v1.68h-.49v-.45c-.11.18-.25.31-.41.4-.17.09-.37.13-.61.13-.3,0-.54-.08-.72-.25-.18-.17-.27-.4-.27-.68,0-.33.11-.58.33-.75.22-.17.55-.25,1-.25h.68v-.05c0-.22-.07-.4-.22-.52s-.35-.18-.62-.18c-.17,0-.33.02-.49.06-.16.04-.31.1-.46.18v-.45c.18-.07.35-.12.52-.15.17-.03.33-.05.49-.05.43,0,.75.11.96.33.21.22.32.56.32,1.01Z"/>
            <path id="DejaVuSans-6c-11" data-name="DejaVuSans-6c" d="M56.33,190.16h.49v4.1h-.49v-4.1Z"/>
            <path id="DejaVuSans-69-9" data-name="DejaVuSans-69" d="M57.83,191.31h.49v2.95h-.49v-2.95ZM57.83,190.16h.49v.62h-.49v-.62Z"/>
            <path id="DejaVuSans-62-2" data-name="DejaVuSans-62" d="M61.45,192.79c0-.36-.07-.64-.22-.84s-.35-.3-.6-.3-.46.1-.61.3-.22.48-.22.84.07.64.22.84c.15.2.35.3.61.3s.46-.1.6-.3c.15-.2.22-.48.22-.84ZM59.8,191.76c.1-.18.23-.31.39-.39.16-.09.34-.13.56-.13.36,0,.65.14.87.43.22.28.34.66.34,1.12s-.11.84-.34,1.12c-.22.28-.52.43-.87.43-.22,0-.4-.04-.56-.13-.16-.09-.28-.22-.39-.39v.44h-.49v-4.1h.49v1.6Z"/>
            <path id="DejaVuSans-72-8" data-name="DejaVuSans-72" d="M64.47,191.77c-.05-.03-.11-.05-.18-.07-.06-.02-.13-.02-.21-.02-.27,0-.49.09-.63.27s-.22.43-.22.77v1.56h-.49v-2.95h.49v.46c.1-.18.24-.31.4-.4.16-.09.36-.13.6-.13.03,0,.07,0,.11,0,.04,0,.09.01.13.02v.5Z"/>
            <path id="DejaVuSans-61-8" data-name="DejaVuSans-61" d="M66.32,192.78c-.39,0-.66.04-.82.13s-.23.24-.23.46c0,.17.06.31.17.41.11.1.27.15.46.15.27,0,.49-.1.65-.29s.24-.44.24-.76v-.11h-.48ZM67.29,192.58v1.68h-.49v-.45c-.11.18-.25.31-.41.4-.17.09-.37.13-.61.13-.3,0-.54-.08-.72-.25-.18-.17-.27-.4-.27-.68,0-.33.11-.58.33-.75.22-.17.55-.25,1-.25h.68v-.05c0-.22-.07-.4-.22-.52s-.35-.18-.62-.18c-.17,0-.33.02-.49.06-.16.04-.31.1-.46.18v-.45c.18-.07.35-.12.52-.15.17-.03.33-.05.49-.05.43,0,.75.11.96.33.21.22.32.56.32,1.01Z"/>
            <path id="DejaVuSans-74-4" data-name="DejaVuSans-74" d="M68.77,190.48v.84h1v.38h-1v1.6c0,.24.03.4.1.46s.2.1.4.1h.5v.41h-.5c-.37,0-.63-.07-.78-.21-.14-.14-.21-.39-.21-.76v-1.6h-.36v-.38h.36v-.84h.49Z"/>
            <path id="DejaVuSans-65-14" data-name="DejaVuSans-65" d="M72.93,192.67v.24h-2.23c.02.33.12.59.3.76.18.17.43.26.75.26.19,0,.37-.02.54-.07s.35-.11.52-.21v.46c-.17.07-.35.13-.54.17s-.37.06-.56.06c-.47,0-.84-.14-1.12-.41-.28-.27-.41-.65-.41-1.11s.13-.87.39-1.15c.26-.28.61-.43,1.06-.43.4,0,.71.13.94.38.23.26.35.6.35,1.04ZM72.44,192.53c0-.26-.08-.48-.22-.63-.15-.16-.34-.24-.58-.24-.27,0-.49.08-.65.23s-.26.37-.28.65h1.73Z"/>
            <path id="DejaVuSans-64-4" data-name="DejaVuSans-64" d="M75.67,191.76v-1.6h.49v4.1h-.49v-.44c-.1.18-.23.31-.39.39-.16.09-.34.13-.56.13-.36,0-.65-.14-.87-.43-.22-.29-.34-.66-.34-1.12s.11-.84.34-1.12c.22-.28.51-.43.87-.43.22,0,.41.04.56.13.16.08.28.22.39.39ZM74.02,192.79c0,.36.07.64.22.84.15.2.35.3.6.3s.46-.1.61-.3c.15-.2.22-.48.22-.84s-.07-.64-.22-.84c-.15-.2-.35-.3-.61-.3s-.46.1-.6.3-.22.48-.22.84Z"/>
            <path id="DejaVuSans-39-2" data-name="DejaVuSans-39" d="M78.95,194.19v-.49c.13.06.27.11.41.15.14.03.27.05.4.05.35,0,.62-.12.8-.35.19-.24.29-.6.32-1.08-.1.15-.23.27-.39.35-.16.08-.33.12-.52.12-.39,0-.71-.12-.93-.36-.23-.24-.34-.56-.34-.98s.12-.73.36-.97c.24-.24.56-.37.95-.37.46,0,.8.17,1.04.52.24.35.36.86.36,1.52,0,.62-.15,1.12-.44,1.49-.29.37-.69.56-1.19.56-.13,0-.27-.01-.41-.04-.14-.03-.28-.07-.43-.12ZM80.01,192.52c.24,0,.43-.08.57-.24.14-.16.21-.39.21-.67s-.07-.51-.21-.67c-.14-.16-.33-.25-.57-.25s-.43.08-.57.25c-.14.16-.21.39-.21.67s.07.51.21.67c.14.16.33.24.57.24Z"/>
            <path id="DejaVuSans-30-18" data-name="DejaVuSans-30" d="M83.51,190.68c-.27,0-.48.14-.62.41-.14.27-.21.68-.21,1.22s.07.94.21,1.21c.14.27.34.41.62.41s.48-.14.62-.41c.14-.27.21-.67.21-1.21s-.07-.95-.21-1.22c-.14-.27-.34-.41-.62-.41ZM83.51,190.26c.44,0,.78.17,1.01.52.23.35.35.86.35,1.52s-.12,1.17-.35,1.52c-.23.35-.57.52-1.01.52s-.78-.17-1.01-.52c-.23-.35-.35-.86-.35-1.52s.12-1.17.35-1.52c.23-.35.57-.52,1.01-.52Z"/>
            <path id="DejaVuSans-25" d="M89.16,192.54c-.15,0-.27.06-.36.19-.09.13-.13.31-.13.54s.04.41.13.54c.09.13.21.2.36.2s.27-.07.35-.2c.09-.13.13-.31.13-.54s-.04-.41-.13-.54c-.09-.13-.2-.2-.35-.2ZM89.16,192.2c.28,0,.5.1.66.29.16.19.25.45.25.78s-.08.59-.25.78c-.16.19-.38.29-.66.29s-.5-.1-.67-.29c-.16-.19-.24-.45-.24-.78s.08-.59.25-.78.39-.29.67-.29ZM86.44,190.59c-.15,0-.27.07-.36.2-.09.13-.13.31-.13.54s.04.41.13.54c.09.13.21.19.36.19s.27-.06.36-.19c.09-.13.13-.31.13-.54s-.04-.41-.13-.54c-.09-.13-.21-.2-.36-.2ZM88.82,190.26h.42l-2.46,4.08h-.42l2.46-4.08ZM86.44,190.26c.28,0,.5.1.66.29.17.19.25.45.25.78s-.08.59-.25.79c-.16.19-.39.29-.67.29s-.5-.1-.66-.29c-.16-.19-.24-.45-.24-.78s.08-.59.24-.78c.16-.19.38-.29.66-.29Z"/>
            <path id="DejaVuSans-69-10" data-name="DejaVuSans-69" d="M92.59,191.31h.49v2.95h-.49v-2.95ZM92.59,190.16h.49v.62h-.49v-.62Z"/>
            <path id="DejaVuSans-6e-7" data-name="DejaVuSans-6e" d="M96.54,192.48v1.78h-.49v-1.77c0-.28-.05-.49-.16-.63-.11-.14-.27-.21-.49-.21-.26,0-.47.08-.62.25-.15.17-.23.39-.23.68v1.67h-.49v-2.95h.49v.46c.12-.18.25-.31.41-.4.16-.09.34-.13.55-.13.34,0,.6.1.77.31.17.21.26.52.26.93Z"/>
            <path id="DejaVuSans-74-5" data-name="DejaVuSans-74" d="M97.99,190.48v.84h1v.38h-1v1.6c0,.24.03.4.1.46s.2.1.4.1h.5v.41h-.5c-.37,0-.63-.07-.78-.21-.14-.14-.21-.39-.21-.76v-1.6h-.36v-.38h.36v-.84h.49Z"/>
            <path id="DejaVuSans-65-15" data-name="DejaVuSans-65" d="M102.16,192.67v.24h-2.23c.02.33.12.59.3.76.18.17.43.26.75.26.19,0,.37-.02.54-.07s.35-.11.52-.21v.46c-.17.07-.35.13-.54.17s-.37.06-.56.06c-.47,0-.84-.14-1.12-.41-.28-.27-.41-.65-.41-1.11s.13-.87.39-1.15c.26-.28.61-.43,1.06-.43.4,0,.71.13.94.38.23.26.35.6.35,1.04ZM101.67,192.53c0-.26-.08-.48-.22-.63-.15-.16-.34-.24-.58-.24-.27,0-.49.08-.65.23s-.26.37-.28.65h1.73Z"/>
            <path id="DejaVuSans-72-9" data-name="DejaVuSans-72" d="M104.66,191.77c-.05-.03-.11-.05-.18-.07-.06-.02-.13-.02-.21-.02-.27,0-.49.09-.63.27s-.22.43-.22.77v1.56h-.49v-2.95h.49v.46c.1-.18.24-.31.4-.4.16-.09.36-.13.6-.13.03,0,.07,0,.11,0,.04,0,.09.01.13.02v.5Z"/>
            <path id="DejaVuSans-76-2" data-name="DejaVuSans-76" d="M104.82,191.31h.51l.92,2.48.92-2.48h.51l-1.11,2.95h-.66l-1.11-2.95Z"/>
            <path id="DejaVuSans-61-9" data-name="DejaVuSans-61" d="M109.71,192.78c-.39,0-.66.04-.82.13s-.23.24-.23.46c0,.17.06.31.17.41.11.1.27.15.46.15.27,0,.49-.1.65-.29s.24-.44.24-.76v-.11h-.48ZM110.68,192.58v1.68h-.49v-.45c-.11.18-.25.31-.41.4-.17.09-.37.13-.61.13-.3,0-.54-.08-.72-.25-.18-.17-.27-.4-.27-.68,0-.33.11-.58.33-.75.22-.17.55-.25,1-.25h.68v-.05c0-.22-.07-.4-.22-.52s-.35-.18-.62-.18c-.17,0-.33.02-.49.06-.16.04-.31.1-.46.18v-.45c.18-.07.35-.12.52-.15.17-.03.33-.05.49-.05.43,0,.75.11.96.33.21.22.32.56.32,1.01Z"/>
            <path id="DejaVuSans-6c-12" data-name="DejaVuSans-6c" d="M111.68,190.16h.49v4.1h-.49v-4.1Z"/>
          </g>
        </g>
      </g>
      <g id="line2d_30" data-name="line2d 30">
        <g class="cls-38">
          <path class="cls-15" d="M69.38,63.32l41.4,32.38,41.4,32.38,41.4,32.38,41.4,32.38"/>
        </g>
      </g>
    </g>
  </g>
</svg>